<svg width="51" height="51" viewBox="0 0 51 51" fill="none" xmlns="http://www.w3.org/2000/svg">
<path d="M41.1667 17.6667V25.5V17.6667ZM41.1667 25.5V33.3333V25.5ZM41.1667 25.5H49H41.1667ZM41.1667 25.5H33.3333H41.1667ZM28.1111 12.4444C28.1111 15.2145 27.0107 17.8711 25.052 19.8298C23.0933 21.7885 20.4367 22.8889 17.6667 22.8889C14.8966 22.8889 12.24 21.7885 10.2813 19.8298C8.32262 17.8711 7.22222 15.2145 7.22222 12.4444C7.22222 9.67441 8.32262 7.01782 10.2813 5.05911C12.24 3.10039 14.8966 2 17.6667 2C20.4367 2 23.0933 3.10039 25.052 5.05911C27.0107 7.01782 28.1111 9.67441 28.1111 12.4444V12.4444ZM2 46.3889C2 42.2338 3.65059 38.249 6.58866 35.3109C9.52673 32.3728 13.5116 30.7222 17.6667 30.7222C21.8217 30.7222 25.8066 32.3728 28.7447 35.3109C31.6827 38.249 33.3333 42.2338 33.3333 46.3889V49H2V46.3889Z" stroke="black" stroke-width="2.5" stroke-linecap="round" stroke-linejoin="round"/>
</svg>
