<svg width="56" height="56" viewBox="0 0 56 56" fill="none" xmlns="http://www.w3.org/2000/svg">
<path d="M37.375 41.8889H18.625M37.375 41.8889H53L48.6094 37.9861C48.0198 37.4619 47.5521 36.8396 47.233 36.1547C46.914 35.4698 46.7499 34.7357 46.75 33.9944V25.2222C46.7505 21.7748 45.5487 18.4121 43.3101 15.5969C41.0715 12.7818 37.9062 10.6527 34.25 9.50278V8.55556C34.25 7.08213 33.5915 5.66905 32.4194 4.62718C31.2473 3.58532 29.6576 3 28 3C26.3424 3 24.7527 3.58532 23.5806 4.62718C22.4085 5.66905 21.75 7.08213 21.75 8.55556V9.50278C14.4688 11.7917 9.25 17.9667 9.25 25.2222V33.9972C9.25 35.4917 8.58125 36.9278 7.39063 37.9861L3 41.8889H18.625H37.375ZM37.375 41.8889V44.6667C37.375 46.8768 36.3873 48.9964 34.6291 50.5592C32.871 52.122 30.4864 53 28 53C25.5136 53 23.129 52.122 21.3709 50.5592C19.6127 48.9964 18.625 46.8768 18.625 44.6667V41.8889H37.375Z" stroke="black" stroke-width="5" stroke-linecap="round" stroke-linejoin="round"/>
</svg>
