<svg width="56" height="51" viewBox="0 0 56 51" fill="none" xmlns="http://www.w3.org/2000/svg">
<path d="M28 6.95601C31.2444 4.506 35.65 3 40.5 3C45.3528 3 49.7556 4.506 53 6.95601V48C49.7556 45.55 45.3528 44.044 40.5 44.044C35.65 44.044 31.2444 45.55 28 48M28 6.95601V48V6.95601ZM28 6.95601C24.7556 4.506 20.35 3 15.5 3C10.65 3 6.24444 4.506 3 6.95601V48C6.24444 45.55 10.65 44.044 15.5 44.044C20.35 44.044 24.7556 45.55 28 48V6.95601Z" stroke="black" stroke-width="5" stroke-linecap="round" stroke-linejoin="round"/>
</svg>
