<svg width="56" height="56" viewBox="0 0 56 56" fill="none" xmlns="http://www.w3.org/2000/svg">
<path d="M16.8889 14.1111V3V14.1111ZM39.1111 14.1111V3V14.1111ZM14.1111 25.2222H41.8889H14.1111ZM8.55556 53H47.4444C48.9179 53 50.3309 52.4147 51.3728 51.3728C52.4147 50.3309 53 48.9179 53 47.4444V14.1111C53 12.6377 52.4147 11.2246 51.3728 10.1827C50.3309 9.14087 48.9179 8.55556 47.4444 8.55556H8.55556C7.08213 8.55556 5.66905 9.14087 4.62718 10.1827C3.58532 11.2246 3 12.6377 3 14.1111V47.4444C3 48.9179 3.58532 50.3309 4.62718 51.3728C5.66905 52.4147 7.08213 53 8.55556 53Z" stroke="black" stroke-width="5" stroke-linecap="round" stroke-linejoin="round"/>
</svg>
