<svg width="71" height="56" viewBox="0 0 71 56" fill="none" xmlns="http://www.w3.org/2000/svg">
<path d="M24.6667 17.2857H60.7778C62.6932 17.2857 64.5302 18.0383 65.8847 19.3778C67.2391 20.7174 68 22.5342 68 24.4286V45.8571C68 47.7515 67.2391 49.5684 65.8847 50.9079C64.5302 52.2474 62.6932 53 60.7778 53H24.6667C22.7512 53 20.9142 52.2474 19.5598 50.9079C18.2054 49.5684 17.4444 47.7515 17.4444 45.8571V24.4286M24.6667 17.2857C22.7512 17.2857 20.9142 18.0383 19.5598 19.3778M24.6667 17.2857H53.5556V10.1429C53.5556 8.24845 52.7946 6.43164 51.4402 5.09209C50.0858 3.75255 48.2488 3 46.3333 3H10.2222C8.30677 3 6.46977 3.75255 5.11534 5.09209C3.76091 6.43164 3 8.24845 3 10.1429V31.5714C3 33.4658 3.76091 35.2826 5.11534 36.6222C6.46977 37.9617 8.30677 38.7143 10.2222 38.7143H17.4444V24.4286M24.6667 17.2857L24.0121 17.3151L22.932 17.4948L21.9502 17.8102L20.6737 18.4766L19.5598 19.3778M19.5598 19.3778C18.2054 20.7174 17.4444 22.5342 17.4444 24.4286M19.5598 19.3778L17.9358 21.839L17.4444 24.4286M49.9444 35.1429C49.9444 37.0373 49.1835 38.8541 47.8291 40.1936C46.4747 41.5332 44.6377 42.2857 42.7222 42.2857C40.8068 42.2857 38.9698 41.5332 37.6153 40.1936C36.2609 38.8541 35.5 37.0373 35.5 35.1429C35.5 33.2485 36.2609 31.4316 37.6153 30.0921C38.9698 28.7526 40.8068 28 42.7222 28C44.6377 28 46.4747 28.7526 47.8291 30.0921C49.1835 31.4316 49.9444 33.2485 49.9444 35.1429Z" stroke="black" stroke-width="5" stroke-linecap="round" stroke-linejoin="round"/>
</svg>
