<svg width="80" height="66" viewBox="0 0 80 66" fill="none" xmlns="http://www.w3.org/2000/svg">
<path d="M58 61.6H76V54.4C75.9998 52.1555 75.3004 49.9669 73.9989 48.1383C72.6974 46.3096 70.8585 44.932 68.7379 44.1967C66.6173 43.4615 64.3202 43.4052 62.1661 44.0357C60.012 44.6662 58.1079 45.9521 56.7184 47.7148L58 61.6ZM58 61.6H22H58ZM58 61.6V54.4C58 52.0384 57.5464 49.7812 56.7184 47.7148L58 61.6ZM22 61.6H4V54.4C4.00016 52.1555 4.69961 49.9669 6.0011 48.1383C7.30259 46.3096 9.14147 44.932 11.2621 44.1967C13.3827 43.4615 15.6798 43.4052 17.8339 44.0357C19.988 44.6662 21.8921 45.9521 23.2816 47.7148L22 61.6ZM22 61.6V54.4C22 52.0384 22.4536 49.7812 23.2816 47.7148L22 61.6ZM23.2816 47.7148C24.6185 44.3738 26.9257 41.5101 29.9056 39.4928C32.8855 37.4756 36.4015 36.3975 40 36.3975C43.5985 36.3975 47.1145 37.4756 50.0944 39.4928C53.0743 41.5101 55.3815 44.3738 56.7184 47.7148H23.2816ZM50.8 14.8C50.8 17.6643 49.6621 20.4114 47.6368 22.4368C45.6114 24.4621 42.8643 25.6 40 25.6C37.1357 25.6 34.3886 24.4621 32.3632 22.4368C30.3379 20.4114 29.2 17.6643 29.2 14.8C29.2 11.9357 30.3379 9.18864 32.3632 7.16325C34.3886 5.13785 37.1357 4 40 4C42.8643 4 45.6114 5.13785 47.6368 7.16325C49.6621 9.18864 50.8 11.9357 50.8 14.8V14.8ZM72.4 25.6C72.4 27.5096 71.6414 29.3409 70.2912 30.6912C68.9409 32.0414 67.1096 32.8 65.2 32.8C63.2904 32.8 61.4591 32.0414 60.1088 30.6912C58.7586 29.3409 58 27.5096 58 25.6C58 23.6904 58.7586 21.8591 60.1088 20.5088C61.4591 19.1586 63.2904 18.4 65.2 18.4C67.1096 18.4 68.9409 19.1586 70.2912 20.5088C71.6414 21.8591 72.4 23.6904 72.4 25.6ZM22 25.6C22 27.5096 21.2414 29.3409 19.8912 30.6912C18.5409 32.0414 16.7096 32.8 14.8 32.8C12.8904 32.8 11.0591 32.0414 9.70883 30.6912C8.35857 29.3409 7.6 27.5096 7.6 25.6C7.6 23.6904 8.35857 21.8591 9.70883 20.5088C11.0591 19.1586 12.8904 18.4 14.8 18.4C16.7096 18.4 18.5409 19.1586 19.8912 20.5088C21.2414 21.8591 22 23.6904 22 25.6Z" stroke="black" stroke-width="7.2" stroke-linecap="round" stroke-linejoin="round"/>
</svg>
