<svg width="60" height="60" viewBox="0 0 60 60" fill="none" xmlns="http://www.w3.org/2000/svg">
<path d="M25.2032 9.42172H9.34377C7.6613 9.42172 6.04773 10.0901 4.85805 11.2798C3.66836 12.4695 3 14.083 3 15.7655V50.6562C3 52.3387 3.66836 53.9523 4.85805 55.1419C6.04773 56.3316 7.6613 57 9.34377 57H44.2345C45.917 57 47.5305 56.3316 48.7202 55.1419C49.9099 53.9523 50.5783 52.3387 50.5783 50.6562V34.7968L25.2032 9.42172ZM46.0932 4.93668C46.6784 4.33078 47.3784 3.8475 48.1524 3.51503C48.9264 3.18256 49.7588 3.00756 50.6011 3.00024C51.4434 2.99292 52.2788 3.15343 53.0584 3.4724C53.838 3.79137 54.5463 4.26241 55.1419 4.85805C55.7376 5.45368 56.2086 6.16197 56.5276 6.9416C56.8466 7.72123 57.0071 8.55657 56.9998 9.39889C56.9924 10.2412 56.8174 11.0736 56.485 11.8476C56.1525 12.6216 55.6692 13.3216 55.0633 13.9068L27.8295 41.1406H18.8594V32.1705L46.0932 4.93668Z" stroke="#4F4F4F" stroke-width="5" stroke-linecap="round" stroke-linejoin="round"/>
</svg>
