<svg width="56" height="56" viewBox="0 0 56 56" fill="none" xmlns="http://www.w3.org/2000/svg">
<path d="M3 28L8.55556 22.4444M8.55556 22.4444L28 3L47.4444 22.4444M8.55556 22.4444V50.2222M47.4444 22.4444L53 28M47.4444 22.4444V50.2222M8.55556 50.2222C8.55556 50.9589 8.84821 51.6655 9.36915 52.1864M8.55556 50.2222L8.75 51.2432L9.36915 52.1864M9.36915 52.1864C9.89008 52.7073 10.5966 53 11.3333 53M9.36915 52.1864L10.25 52.78L11.3333 53M11.3333 53H19.6667M19.6667 53C20.4034 53 21.1099 52.7073 21.6309 52.1864C22.1518 51.6655 22.4444 50.9589 22.4444 50.2222V39.1111C22.4444 38.3744 22.7371 37.6679 23.258 37.1469C23.779 36.626 24.4855 36.3333 25.2222 36.3333H30.7778C31.5145 36.3333 32.221 36.626 32.742 37.1469C33.2629 37.6679 33.5556 38.3744 33.5556 39.1111V50.2222C33.5556 50.9589 33.8482 51.6655 34.3691 52.1864C34.8901 52.7073 35.5966 53 36.3333 53M19.6667 53H36.3333M47.4444 50.2222C47.4444 50.9589 47.1518 51.6655 46.6309 52.1864M47.4444 50.2222L47.2045 51.3515L46.6309 52.1864M46.6309 52.1864C46.1099 52.7073 45.4034 53 44.6667 53M46.6309 52.1864L45.5889 52.8424L44.6667 53M44.6667 53H36.3333" stroke="black" stroke-width="5" stroke-linecap="round" stroke-linejoin="round"/>
</svg>
