<svg width="45" height="51" viewBox="0 0 45 51" fill="none" xmlns="http://www.w3.org/2000/svg">
<path d="M36.2889 36.7155L25.9466 47.0578C25.4943 47.5105 24.9572 47.8697 24.366 48.1147C23.7749 48.3598 23.1412 48.4859 22.5012 48.4859C21.8613 48.4859 21.2276 48.3598 20.6364 48.1147C20.0452 47.8697 19.5081 47.5105 19.0558 47.0578L8.71107 36.7155C5.98405 33.9883 4.12695 30.5137 3.37462 26.7311C2.62229 22.9485 3.00852 19.0278 4.48445 15.4647C5.96039 11.9016 8.45975 8.85616 11.6665 6.71352C14.8732 4.57087 18.6433 3.42725 22.5 3.42725C26.3567 3.42725 30.1268 4.57087 33.3335 6.71352C36.5402 8.85616 39.0396 11.9016 40.5155 15.4647C41.9915 19.0278 42.3777 22.9485 41.6254 26.7311C40.873 30.5137 39.016 33.9883 36.2889 36.7155V36.7155Z" stroke="black" stroke-width="4.875" stroke-linecap="round" stroke-linejoin="round"/>
<path d="M29.8125 22.9265C29.8125 24.8659 29.0421 26.7259 27.6707 28.0972C26.2994 29.4686 24.4394 30.239 22.5 30.239C20.5606 30.239 18.7006 29.4686 17.3293 28.0972C15.9579 26.7259 15.1875 24.8659 15.1875 22.9265C15.1875 20.9871 15.9579 19.1272 17.3293 17.7558C18.7006 16.3844 20.5606 15.614 22.5 15.614C24.4394 15.614 26.2994 16.3844 27.6707 17.7558C29.0421 19.1272 29.8125 20.9871 29.8125 22.9265V22.9265Z" stroke="black" stroke-width="4.875" stroke-linecap="round" stroke-linejoin="round"/>
</svg>

