<svg width="85" height="76" viewBox="0 0 85 76" fill="none" xmlns="http://www.w3.org/2000/svg">
<path d="M46.6667 55V59.1667C46.6667 62.4819 45.3497 65.6613 43.0055 68.0055C40.6613 70.3497 37.4819 71.6667 34.1667 71.6667H17.5C14.1848 71.6667 11.0054 70.3497 8.66117 68.0055C6.31696 65.6613 5 62.4819 5 59.1667V17.5C5 14.1848 6.31696 11.0054 8.66117 8.66117C11.0054 6.31696 14.1848 5 17.5 5H34.1667C37.4819 5 40.6613 6.31696 43.0055 8.66117C45.3497 11.0054 46.6667 14.1848 46.6667 17.5V21.6667M63.3333 55L80 38.3333L63.3333 55ZM80 38.3333L63.3333 21.6667L80 38.3333ZM80 38.3333H21.6667H80Z" stroke="black" stroke-width="8.33333" stroke-linecap="round" stroke-linejoin="round"/>
</svg>
