<svg width="76" height="76" viewBox="0 0 76 76" fill="none" xmlns="http://www.w3.org/2000/svg">
<path d="M23.5 33L34.2222 45.5556L53.5 26M72 38C72 42.4649 71.1206 46.8862 69.4119 51.0112C67.7032 55.1363 65.1988 58.8844 62.0416 62.0416C58.8844 65.1988 55.1363 67.7032 51.0112 69.4119C46.8862 71.1206 42.4649 72 38 72C33.5351 72 29.1138 71.1206 24.9888 69.4119C20.8637 67.7032 17.1156 65.1988 13.9584 62.0416C10.8012 58.8844 8.29676 55.1363 6.5881 51.0112C4.87944 46.8862 4 42.4649 4 38C4 28.9826 7.58213 20.3346 13.9584 13.9584C20.3346 7.58213 28.9826 4 38 4C47.0174 4 55.6654 7.58213 62.0416 13.9584C68.4179 20.3346 72 28.9826 72 38Z" stroke="black" stroke-width="7.55556" stroke-linecap="round" stroke-linejoin="round"/>
</svg>
