<svg width="11" height="60" viewBox="0 0 11 60" fill="none" xmlns="http://www.w3.org/2000/svg">
<path d="M5.5 54.5V54.465V54.5ZM5.5 30V29.965V30ZM5.5 5.5V5.465V5.5ZM5.5 51C4.57174 51 3.6815 51.3687 3.02513 52.0251C2.36875 52.6815 2 53.5717 2 54.5C2 55.4283 2.36875 56.3185 3.02513 56.9749C3.6815 57.6313 4.57174 58 5.5 58C6.42826 58 7.3185 57.6313 7.97487 56.9749C8.63125 56.3185 9 55.4283 9 54.5C9 53.5717 8.63125 52.6815 7.97487 52.0251C7.3185 51.3687 6.42826 51 5.5 51ZM5.5 26.5C4.57174 26.5 3.6815 26.8687 3.02513 27.5251C2.36875 28.1815 2 29.0717 2 30C2 30.9283 2.36875 31.8185 3.02513 32.4749C3.6815 33.1313 4.57174 33.5 5.5 33.5C6.42826 33.5 7.3185 33.1313 7.97487 32.4749C8.63125 31.8185 9 30.9283 9 30C9 29.0717 8.63125 28.1815 7.97487 27.5251C7.3185 26.8687 6.42826 26.5 5.5 26.5ZM5.5 2C4.57174 2 3.6815 2.36875 3.02513 3.02512C2.36875 3.6815 2 4.57174 2 5.5C2 6.42826 2.36875 7.3185 3.02513 7.97488C3.6815 8.63125 4.57174 9 5.5 9C6.42826 9 7.3185 8.63125 7.97487 7.97488C8.63125 7.3185 9 6.42826 9 5.5C9 4.57174 8.63125 3.6815 7.97487 3.02512C7.3185 2.36875 6.42826 2 5.5 2Z" fill="#4F4F4F" stroke="#4F4F4F" stroke-width="2.69231" stroke-linecap="round" stroke-linejoin="round"/>
</svg>
