<svg width="123" height="98" viewBox="0 0 123 98" fill="none" xmlns="http://www.w3.org/2000/svg">
<g clip-path="url(#clip0)">
<path d="M22.29 76.9072L32.1363 97.6823H36.8898L37.572 96.0966L38.4147 97.6823H41.5339L41.1727 85.5539L41.0195 78.3919L22.29 76.9072Z" fill="#C96BCF"/>
<path opacity="0.3" d="M22.29 76.9072L32.1363 97.6823H36.8898L37.572 96.0966L38.4147 97.6823H41.5339L41.1727 85.5539L41.0195 78.3919L22.29 76.9072Z" fill="#4F4F4F"/>
<path d="M65.3926 79.1342L74.9944 97.6823H79.7479L80.4301 96.2325L81.2765 97.6823H84.3956L84.0308 86.582L83.8776 80.0229L65.3926 79.1342Z" fill="#C96BCF"/>
<path opacity="0.3" d="M65.3926 79.1342L74.9944 97.6823H79.7479L80.4301 96.2325L81.2765 97.6823H84.3956L84.0308 86.582L83.8776 80.0229L65.3926 79.1342Z" fill="#4F4F4F"/>
<path d="M120.023 24.4658L120.11 24.4972L120.366 24.6052C120.688 24.7574 120.988 24.9483 121.26 25.1733C121.696 25.5277 122.067 25.9509 122.354 26.4245C122.732 27.0535 122.954 27.7569 123.003 28.4807C123.059 29.3647 122.824 30.2431 122.332 30.9935C121.773 31.8581 120.945 32.5343 119.965 32.9278C119.426 33.1562 118.844 33.2742 118.255 33.2742C117.667 33.2742 117.084 33.1562 116.546 32.9278C115.969 32.6677 115.517 32.2081 115.28 31.6418C115.15 31.3526 115.097 31.0366 115.128 30.723C115.158 30.4093 115.271 30.1081 115.455 29.8469C115.649 29.5989 115.897 29.394 116.182 29.2465C116.466 29.0991 116.781 29.0126 117.104 28.9931C117.74 28.9699 118.363 29.1666 118.859 29.5472C119.319 29.9015 119.686 30.3535 119.93 30.8672C120.175 31.381 120.29 31.9422 120.267 32.5061C120.232 33.5249 119.848 34.5045 119.173 35.2942C118.873 35.6524 118.513 35.9609 118.108 36.2074C117.733 36.4294 117.329 36.604 116.907 36.7266C116.18 36.9275 115.418 36.9821 114.667 36.887C114.103 36.8196 113.551 36.6753 113.029 36.4583C112.7 36.3227 112.386 36.1557 112.092 35.9599L111.869 35.7996C111.843 35.7824 111.818 35.7626 111.796 35.7403C112.196 35.9927 112.619 36.2108 113.059 36.3921C113.577 36.5949 114.122 36.7274 114.678 36.7859C115.413 36.8675 116.158 36.8058 116.867 36.6047C117.275 36.4806 117.665 36.3073 118.027 36.0889C118.415 35.848 118.759 35.5478 119.045 35.2001C119.686 34.4317 120.049 33.485 120.078 32.5026C120.095 31.9659 119.983 31.4325 119.75 30.944C119.516 30.4555 119.168 30.0252 118.731 29.6866C118.271 29.3331 117.691 29.1511 117.101 29.1743C116.801 29.1892 116.509 29.2665 116.245 29.4007C115.98 29.535 115.749 29.723 115.569 29.9515C115.403 30.1884 115.302 30.4612 115.275 30.7449C115.249 31.0286 115.297 31.3142 115.415 31.5756C115.642 32.1025 116.072 32.5265 116.616 32.7605C117.132 32.9797 117.692 33.093 118.257 33.093C118.823 33.093 119.382 32.9797 119.899 32.7605C120.849 32.383 121.654 31.7326 122.201 30.8994C122.685 30.1728 122.918 29.3197 122.868 28.4598C122.817 27.7661 122.604 27.0922 122.245 26.4872C121.974 26.0194 121.624 25.5977 121.209 25.2395C120.848 24.9367 120.449 24.6769 120.023 24.4658Z" fill="#C96BCF"/>
<path d="M115.317 43.2649C116.747 74.0912 89.6964 89.4713 59.0777 89.4713C28.4591 89.4713 3.64819 69.442 3.64819 44.7356C3.64819 20.0293 28.4554 7.62939e-06 59.0777 7.62939e-06C89.7 7.62939e-06 114.186 18.5829 115.317 43.2649Z" fill="#E0A4E3"/>
<path opacity="0.3" d="M55.2141 11.048C55.2141 11.048 58.8914 9.93272 62.3316 13.6479C65.7718 17.3631 70.5581 23.6991 70.5581 23.6991C70.1276 25.7589 68.869 27.3655 66.4284 28.3205L55.2141 11.048Z" fill="#4F4F4F"/>
<path d="M22.6184 76.7853C33.1034 76.7853 41.6032 70.5625 41.6032 62.8864C41.6032 55.2103 33.1034 48.9875 22.6184 48.9875C12.1333 48.9875 3.63354 55.2103 3.63354 62.8864C3.63354 70.5625 12.1333 76.7853 22.6184 76.7853Z" fill="#C96BCF"/>
<path d="M40.3267 25.7309C40.3267 25.7309 51.4388 9.23912 56.5462 11.027C61.6536 12.8149 66.4253 28.3134 66.4253 28.3134" fill="#C96BCF"/>
<path d="M27.7442 21.9565L27.2225 17.485C27.2225 17.485 20.2546 14.6969 14.0163 13.3412C7.778 11.9854 6.54858 13.3412 6.54858 13.3412L16.4167 26.5534L27.7442 21.9565Z" fill="#C96BCF"/>
<path opacity="0.3" d="M42.5955 6.13385L46.2874 8.22495C46.2874 8.22495 64.1631 3.69423 77.902 8.22495L72.8639 4.12988C72.8639 4.12988 56.2102 0.696988 42.5955 6.13385Z" fill="#4F4F4F"/>
<path opacity="0.3" d="M22.6184 76.7853C33.1034 76.7853 41.6032 70.5625 41.6032 62.8864C41.6032 55.2103 33.1034 48.9875 22.6184 48.9875C12.1333 48.9875 3.63354 55.2103 3.63354 62.8864C3.63354 70.5625 12.1333 76.7853 22.6184 76.7853Z" fill="#4F4F4F"/>
<path d="M17.7956 76.7853C27.6177 76.7853 35.5802 70.5625 35.5802 62.8864C35.5802 55.2103 27.6177 48.9875 17.7956 48.9875C7.97342 48.9875 0.0109863 55.2103 0.0109863 62.8864C0.0109863 70.5625 7.97342 76.7853 17.7956 76.7853Z" fill="#C96BCF"/>
<path opacity="0.3" d="M11.6485 56.3656H10.2805C9.60754 56.3656 9.06201 56.8868 9.06201 57.5297V68.2431C9.06201 68.886 9.60754 69.4071 10.2805 69.4071H11.6485C12.3215 69.4071 12.867 68.886 12.867 68.2431V57.5297C12.867 56.8868 12.3215 56.3656 11.6485 56.3656Z" fill="#4F4F4F"/>
<path opacity="0.3" d="M21.8668 56.3656H20.4987C19.8258 56.3656 19.2803 56.8868 19.2803 57.5297V68.2431C19.2803 68.886 19.8258 69.4071 20.4987 69.4071H21.8668C22.5397 69.4071 23.0853 68.886 23.0853 68.2431V57.5297C23.0853 56.8868 22.5397 56.3656 21.8668 56.3656Z" fill="#4F4F4F"/>
<path opacity="0.3" d="M26.6643 22.3887C28.2658 21.5244 29.1231 20.2349 28.5212 18.1089C28.5212 18.1089 20.2546 14.7039 14.0163 13.3412C7.778 11.9785 6.54858 13.3412 6.54858 13.3412L16.4167 26.5535L26.6643 22.3887Z" fill="#4F4F4F"/>
<path d="M27.2226 22.7512C27.2226 22.7512 26.7593 22.448 25.9786 21.9496C22.2976 19.6006 11.543 12.8881 8.8324 12.8149C5.08943 12.7104 5.08214 15.7948 5.08943 18.1786C5.08943 19.8724 6.54868 34.5589 6.54868 34.5589" fill="#C96BCF"/>
<path d="M66.4285 28.3135C66.4151 28.2866 66.4041 28.2586 66.3957 28.2299C66.3701 28.1497 66.3337 28.0521 66.2899 27.9267C66.1914 27.6478 66.0528 27.2575 65.8813 26.7591C65.5165 25.7484 64.9839 24.2881 64.2542 22.5107C63.4112 20.4244 62.4365 18.3888 61.3357 16.4151C60.6892 15.2519 59.9334 14.1472 59.0775 13.1147C58.63 12.5704 58.11 12.0842 57.5307 11.6683C56.9674 11.2119 56.2439 10.9765 55.506 11.0096C54.768 11.0992 54.0582 11.3367 53.423 11.7067C52.7937 12.054 52.1947 12.4491 51.6317 12.8881C50.5653 13.7257 49.5597 14.6316 48.622 15.5996C47.0316 17.2395 45.5291 18.9552 44.1203 20.7402C42.9091 22.2598 41.9715 23.5284 41.3294 24.3962C41.0157 24.8249 40.7713 25.1664 40.5998 25.4069L40.4065 25.6683C40.3863 25.6993 40.3631 25.7285 40.3372 25.7554C40.3372 25.7554 40.3372 25.7205 40.3919 25.6578L40.567 25.386C40.7239 25.149 40.961 24.8005 41.2711 24.3404C41.8949 23.4552 42.8179 22.1796 44.0181 20.6496C45.4144 18.8487 46.9098 17.12 48.498 15.4707C49.4391 14.4946 50.4483 13.5806 51.5186 12.7348C52.0921 12.2892 52.7021 11.8882 53.3427 11.5359C53.9936 11.1487 54.7238 10.8991 55.4841 10.804C55.8772 10.7681 56.2735 10.8219 56.6406 10.9608C56.9954 11.1018 57.331 11.2831 57.6402 11.501C58.2302 11.9278 58.7599 12.4257 59.2162 12.9822C60.0793 14.0231 60.8389 15.1385 61.4853 16.3141C62.5812 18.2964 63.545 20.3427 64.371 22.441C65.1006 24.2289 65.604 25.6961 65.9433 26.7173C66.1111 27.2261 66.2388 27.6234 66.3081 27.8953C66.3446 28.0208 66.3738 28.1218 66.3957 28.202C66.4103 28.2381 66.4212 28.2754 66.4285 28.3135Z" fill="#4F4F4F"/>
<path d="M72.8639 4.12992L72.9624 4.1822L73.2178 4.38086L74.1882 5.15456L77.7342 8.02983L77.9677 8.21803L77.6685 8.14135C75.522 7.56726 73.3414 7.11687 71.1384 6.79259C68.4484 6.39558 65.7321 6.1836 63.0104 6.15829C57.4074 6.10167 51.8252 6.8189 46.437 8.28773H46.4114H46.3895L43.5841 6.71592L42.8545 6.29073L42.6648 6.1792L42.6064 6.13738C42.6064 6.13738 42.6283 6.13738 42.6758 6.16526L42.8691 6.26285L43.6243 6.66364L46.4589 8.19015H46.4151C48.7373 7.53357 51.1013 7.02019 53.4924 6.65319C54.9079 6.43014 56.4328 6.26982 58.027 6.13738C59.6213 6.00495 61.3104 5.95267 63.025 5.98403C65.7507 6.00536 68.471 6.21853 71.1639 6.62182C73.3725 6.95618 75.5571 7.42177 77.705 8.01589L77.6393 8.12741C76.1801 6.90063 74.9726 5.90736 74.1335 5.21033L73.1886 4.40874L72.9442 4.19614C72.8858 4.15781 72.8603 4.13341 72.8639 4.12992Z" fill="#4F4F4F"/>
<g opacity="0.2">
<path opacity="0.2" d="M52.2956 49.932C52.2117 50.4304 51.6754 50.8033 50.9166 51.0542C49.9968 51.3276 49.038 51.4628 48.0747 51.455C47.1107 51.4794 46.1485 51.3618 45.2219 51.1065C44.4558 50.873 43.9086 50.5105 43.8137 50.0157C43.7189 49.5208 44.1129 48.9875 44.8753 48.5623C45.8527 48.0832 46.9334 47.8279 48.0319 47.8164C49.1304 47.8049 50.2166 48.0376 51.2048 48.4961C51.9746 48.9109 52.3795 49.4406 52.2956 49.932Z" fill="white"/>
</g>
<path d="M28.4007 51.7303C28.3655 51.7124 28.3314 51.6926 28.2985 51.6711L28.003 51.4829L27.5288 51.1762C27.3354 51.0647 27.102 50.9462 26.8466 50.8103C25.3739 50.0698 23.7881 49.5558 22.1478 49.2872C21.017 49.1018 19.873 48.9993 18.7259 48.9805C17.4094 48.971 16.0942 49.0631 14.7932 49.2559C11.7993 49.6769 8.9435 50.7384 6.439 52.3612C5.79805 52.7965 5.18864 53.2727 4.61494 53.7866C4.05376 54.2911 3.53305 54.8351 3.0572 55.4142C2.16568 56.5102 1.44782 57.7256 0.926695 59.0213C0.0912519 61.244 -0.0706052 63.6467 0.459736 65.9533C0.674646 66.8326 0.995383 67.6852 1.41554 68.494C1.74907 69.0984 2.13983 69.6724 2.58294 70.2087L3.08638 70.7768L3.49497 71.1636L3.74669 71.4006C3.77579 71.4276 3.80263 71.4568 3.82695 71.4878C3.82695 71.4878 3.79412 71.4669 3.7321 71.4146L3.46943 71.188L3.04625 70.8186L2.52457 70.254C2.06671 69.7238 1.66469 69.1518 1.32434 68.5463C0.888023 67.7328 0.553732 66.873 0.328404 65.9847C-0.225632 63.6531 -0.0763676 61.2193 0.758882 58.9656C1.01335 58.323 1.31822 57.6997 1.67091 57.101C2.03953 56.4739 2.45657 55.874 2.91857 55.3061C3.39312 54.7249 3.91261 54.1786 4.47267 53.6716C5.05679 53.1486 5.67849 52.6653 6.33321 52.2252C8.85849 50.5863 11.7419 49.5195 14.764 49.106C16.0762 48.916 17.4024 48.8285 18.7295 48.8446C19.8844 48.8716 21.0356 48.9811 22.1733 49.1722C23.8225 49.4567 25.4128 49.9933 26.8831 50.7615C27.1384 50.9044 27.3683 51.0263 27.558 51.1448L28.0249 51.469L28.3095 51.6711C28.3715 51.7025 28.4043 51.7269 28.4007 51.7303Z" fill="#4F4F4F"/>
<path d="M12.7687 57.5888C12.7989 57.7721 12.8124 57.9575 12.8088 58.143C12.8271 58.5333 12.849 59.0422 12.8781 59.6555C12.9329 60.9346 13.0423 62.6981 13.0934 64.6533C13.0934 65.1412 13.0934 65.6187 13.0934 66.0822C13.1013 66.5305 13.0659 66.9785 12.9876 67.4205C12.9362 67.8046 12.793 68.1722 12.5691 68.4949C12.3451 68.8177 12.0465 69.0868 11.6962 69.2816C11.4511 69.4007 11.1775 69.4562 10.9029 69.4428C10.6283 69.4293 10.3622 69.3473 10.1311 69.2049C10.0073 69.1267 9.90066 69.0261 9.81738 68.9087C9.78769 68.8685 9.76548 68.8237 9.75171 68.7762C9.86877 68.9211 10.0106 69.046 10.1712 69.1457C10.3929 69.2663 10.6429 69.3315 10.8981 69.3352C11.1532 69.3388 11.4051 69.2808 11.6305 69.1666C11.9556 68.9752 12.2309 68.7157 12.4356 68.4078C12.6404 68.0999 12.7692 67.7516 12.8125 67.3891C12.8827 66.9569 12.9132 66.5196 12.9037 66.0822C12.9037 65.6222 12.9037 65.1447 12.9037 64.6568C12.8526 62.7086 12.7651 60.9416 12.7432 59.6625C12.7432 59.0212 12.7432 58.502 12.7432 58.143C12.7331 57.9579 12.7417 57.7724 12.7687 57.5888Z" fill="#4F4F4F"/>
<path d="M22.8407 57.5888C22.8713 57.7721 22.886 57.9574 22.8845 58.143C22.8845 58.5333 22.9246 59.0422 22.9502 59.6555C23.0049 60.9346 23.1143 62.6981 23.1654 64.6533C23.1654 65.1412 23.1654 65.6187 23.1654 66.0822C23.1727 66.5303 23.1385 66.9781 23.0633 67.4205C23.0114 67.8044 22.868 68.1718 22.6441 68.4945C22.4202 68.8171 22.1218 69.0864 21.7718 69.2816C21.5261 69.4006 21.252 69.4562 20.9768 69.4427C20.7016 69.4293 20.4349 69.3473 20.2031 69.2049C20.0793 69.1279 19.9737 69.027 19.893 68.9087C19.8615 68.869 19.838 68.8241 19.8237 68.7762C19.9421 68.92 20.0837 69.0447 20.2433 69.1457C20.4652 69.2657 20.7151 69.3305 20.9701 69.3342C21.2251 69.3379 21.4769 69.2802 21.7025 69.1666C22.0269 68.9748 22.3015 68.7152 22.5056 68.4073C22.7097 68.0994 22.838 67.7513 22.8809 67.3891C22.9529 66.9571 22.9834 66.5196 22.9721 66.0822C22.9721 65.6222 22.9721 65.1447 22.9538 64.6568C22.9027 62.7086 22.8152 60.9416 22.7933 59.6625C22.7933 59.0212 22.7933 58.502 22.7933 58.143C22.7928 57.9573 22.8087 57.772 22.8407 57.5888Z" fill="#4F4F4F"/>
<path d="M35.365 65.9149C35.3492 65.9976 35.3235 66.0783 35.2884 66.1554C35.2264 66.3053 35.1571 66.5423 35.0185 66.8246C34.6538 67.6381 34.2065 68.4155 33.6832 69.1457C32.9086 70.2302 32.0011 71.2223 30.98 72.1011C30.3771 72.6171 29.741 73.0966 29.0757 73.537C28.3585 74.0094 27.6075 74.4333 26.8284 74.8056C25.3261 75.5402 23.7326 76.0906 22.0859 76.4436C20.7416 76.7155 19.3704 76.8476 17.9963 76.8375C16.8253 76.8375 15.8841 76.7678 15.2311 76.7225L14.5014 76.6667C14.413 76.665 14.325 76.6545 14.2388 76.6353C14.3261 76.627 14.4141 76.627 14.5014 76.6353L15.2529 76.6562C15.906 76.6806 16.8508 76.7225 18.0146 76.712C19.3764 76.7058 20.7338 76.5621 22.064 76.2833C23.6898 75.9247 25.2631 75.3757 26.7482 74.6488C27.5183 74.2782 28.2617 73.8591 28.9735 73.3941C29.6336 72.9577 30.2659 72.484 30.8669 71.9757C31.8779 71.1088 32.7824 70.1348 33.5629 69.0725C34.094 68.3562 34.5545 67.5943 34.9382 66.7967C35.0878 66.5179 35.168 66.2879 35.241 66.1415C35.2763 66.0631 35.3178 65.9874 35.365 65.9149Z" fill="#4F4F4F"/>
<path d="M12.5386 57.1985C12.4625 57.0774 12.3785 56.961 12.2869 56.85C12.1531 56.7122 11.9919 56.6012 11.8128 56.5234C11.6337 56.4457 11.4402 56.4027 11.2435 56.3969C10.9528 56.3946 10.6649 56.4518 10.3993 56.5649C10.1337 56.6779 9.89662 56.8441 9.70402 57.0522C9.47732 57.2985 9.31703 57.594 9.23706 57.913C9.15644 58.2619 9.12091 58.6188 9.13126 58.976C9.13126 60.4746 9.13126 61.8338 9.13126 62.8097C9.13126 63.2732 9.13126 63.6635 9.13126 63.9772C9.13857 64.1197 9.12755 64.2625 9.09843 64.4024C9.07065 64.2622 9.05721 64.1198 9.0583 63.9772C9.0583 63.6635 9.03276 63.2802 9.01452 62.8131C8.98898 61.8268 8.9598 60.4711 8.94521 58.9795C8.93897 58.6068 8.97938 58.2347 9.06559 57.8712C9.15285 57.5251 9.33116 57.206 9.58363 56.9441C9.79407 56.7216 10.0532 56.546 10.3425 56.4298C10.6319 56.3135 10.9445 56.2595 11.2581 56.2715C11.4699 56.2819 11.6769 56.3352 11.8656 56.4277C12.0543 56.5202 12.2202 56.6499 12.3526 56.8082C12.4237 56.892 12.4804 56.9861 12.5204 57.087C12.535 57.1567 12.5459 57.1985 12.5386 57.1985Z" fill="white"/>
<path d="M19.2218 58.0037C19.2729 58.0037 19.3167 59.8403 19.3167 62.1057C19.3167 64.3711 19.2729 66.2182 19.2218 66.2182C19.1707 66.2182 19.127 64.3815 19.127 62.1127C19.127 59.8438 19.1671 58.0037 19.2218 58.0037Z" fill="white"/>
<path d="M16.1609 50.0922C16.0857 50.1003 16.0099 50.1003 15.9347 50.0922C15.7888 50.0922 15.5699 50.0922 15.2926 50.0922C14.5079 50.1184 13.7263 50.2 12.9542 50.3362C10.3902 50.7685 7.985 51.8218 5.96862 53.3954C3.95224 54.969 2.39202 57.0104 1.43709 59.3245C1.13993 60.0187 0.89608 60.7328 0.707468 61.4609C0.634505 61.7188 0.601672 61.9244 0.565191 62.0603C0.5515 62.1302 0.531981 62.199 0.506821 62.2659C0.504328 62.1945 0.511688 62.123 0.52871 62.0534C0.550598 61.9139 0.576135 61.7048 0.638153 61.4469C0.795436 60.7063 1.01879 59.9799 1.30576 59.2757C2.24418 56.928 3.81184 54.8572 5.85171 53.2705C7.89158 51.6839 10.3321 50.6371 12.9287 50.2351C13.7085 50.1095 14.4982 50.0477 15.289 50.0504C15.5699 50.0504 15.7851 50.0504 15.9311 50.0713C16.0083 50.069 16.0855 50.076 16.1609 50.0922Z" fill="white"/>
<path d="M6.62105 32.3389C6.60713 32.4073 6.5851 32.4739 6.55538 32.5376C6.49336 32.6804 6.4204 32.8617 6.3292 33.0882C6.23799 33.3147 6.10666 33.618 5.96438 33.963C5.82211 34.308 5.67618 34.6914 5.53755 35.134C5.39893 35.5766 5.22746 36.0471 5.08154 36.5699C4.93561 37.0927 4.78604 37.6468 4.63647 38.2393C4.02688 40.808 3.7403 43.4369 3.78281 46.0705C3.80105 46.6769 3.81199 47.2554 3.85942 47.7921C3.90684 48.3289 3.94333 48.8377 3.9944 49.2873C4.04547 49.7369 4.11114 50.1551 4.16221 50.5175C4.21329 50.88 4.26436 51.1867 4.31543 51.4411C4.36651 51.6955 4.3884 51.8733 4.41758 52.0266C4.4324 52.0942 4.43973 52.1632 4.43947 52.2322C4.40944 52.169 4.38857 52.1022 4.37745 52.0336L4.24247 51.4551C4.18045 51.2041 4.11479 50.8939 4.05642 50.5315C3.99805 50.169 3.91414 49.7613 3.86307 49.3012C3.81199 48.8412 3.73903 48.3428 3.70255 47.8026C3.66607 47.2624 3.62959 46.6839 3.6077 46.06C3.54432 43.4116 3.83238 40.7662 4.46501 38.187C4.62188 37.5945 4.7605 37.0299 4.92832 36.5141C5.09613 35.9983 5.253 35.5139 5.40987 35.0782C5.56674 34.6426 5.72726 34.2523 5.86589 33.9107C6.00451 33.5692 6.1322 33.2799 6.2307 33.0464L6.48971 32.5062C6.52562 32.4452 6.56978 32.3889 6.62105 32.3389Z" fill="white"/>
<path d="M7.16474 14.216C7.16474 14.216 7.01516 14.4042 6.79992 14.7701C6.50637 15.2916 6.30426 15.8556 6.20163 16.4395C6.05101 17.3127 5.97658 18.1963 5.9791 19.0813C5.94991 20.0815 5.94262 21.1724 5.9791 22.3364C6.03747 24.6471 6.23447 26.7312 6.41687 28.2368C6.51172 28.9687 6.59198 29.5682 6.65035 30.0178C6.67589 30.2094 6.69778 30.3663 6.71237 30.5022C6.72204 30.5587 6.72204 30.6164 6.71237 30.673C6.68877 30.6207 6.67281 30.5656 6.66494 30.5092C6.63941 30.3767 6.60657 30.2199 6.56645 30.0282C6.48619 29.61 6.38039 29.0036 6.27095 28.2543C5.99383 26.2894 5.82942 24.3115 5.77845 22.3295C5.74927 21.1724 5.76021 20.0676 5.80034 19.0639C5.80745 18.1717 5.89656 17.2819 6.06665 16.4047C6.18714 15.8097 6.41686 15.2398 6.7452 14.7213C6.83441 14.5813 6.93699 14.4495 7.05164 14.3275C7.11731 14.2508 7.16109 14.209 7.16474 14.216Z" fill="white"/>
<path d="M42.6831 3.29348C42.6095 3.33367 42.5311 3.36526 42.4496 3.38758L41.7747 3.61411L39.2721 4.43661C36.5163 5.31621 33.8105 6.33295 31.1659 7.48265C28.5221 8.63715 26.0272 10.0803 23.7311 11.7833C22.8592 12.442 22.1843 13.0206 21.7356 13.4318C21.5021 13.6305 21.3343 13.7978 21.2139 13.9058C21.158 13.9657 21.0942 14.0184 21.0242 14.0626C21.0732 13.9966 21.1281 13.9348 21.1883 13.8779C21.3014 13.7664 21.4583 13.5887 21.6808 13.3796C22.3028 12.7794 22.9593 12.2128 23.6472 11.6823C25.9277 9.94231 28.4235 8.47684 31.0784 7.31885C33.727 6.16225 36.4461 5.15903 39.221 4.31463C40.2826 3.96611 41.1472 3.72215 41.7418 3.54789L42.4313 3.35272C42.5134 3.32645 42.5976 3.30663 42.6831 3.29348Z" fill="white"/>
<path d="M55.3749 11.9366C55.3259 11.9849 55.2708 12.027 55.2107 12.0621L54.7255 12.3897C54.2987 12.6685 53.6931 13.0867 52.9598 13.613C52.2266 14.1392 51.3693 14.8014 50.4463 15.5647C49.5233 16.3279 48.5529 17.2062 47.5752 18.1716C46.5975 19.1369 45.7256 20.1093 44.9559 21.0085C44.1861 21.9077 43.5368 22.7511 43.0114 23.4795C42.4861 24.2079 42.0702 24.7969 41.793 25.2221L41.4683 25.6995C41.4358 25.7587 41.3939 25.8128 41.3442 25.8598C41.3673 25.7974 41.3979 25.7378 41.4354 25.6821L41.7309 25.1872C41.9863 24.7585 42.384 24.1417 42.8983 23.4167C43.4127 22.6918 44.0621 21.8345 44.8172 20.9144C45.5724 19.9943 46.4625 19.0289 47.4402 18.0565C48.4179 17.0842 49.4066 16.2129 50.3332 15.4496C51.2598 14.6864 52.1281 14.0556 52.8869 13.5223C53.6457 12.9891 54.2513 12.6023 54.7109 12.3409L55.2144 12.0411C55.2642 12.0013 55.3179 11.9663 55.3749 11.9366Z" fill="white"/>
<path d="M111.6 36.183C111.778 36.4591 111.922 36.7538 112.03 37.0612C112.633 38.516 113.037 40.0387 113.234 41.5919C113.293 41.9116 113.313 42.2368 113.292 42.5608C113.206 42.2483 113.143 41.9304 113.103 41.6094C112.997 41.0204 112.833 40.2153 112.599 39.3301C112.366 38.4448 112.107 37.6642 111.906 37.0996C111.78 36.8018 111.678 36.4954 111.6 36.183Z" fill="white"/>
<path d="M102.877 76.1335C102.877 76.1335 102.818 76.1823 102.698 76.2625L102.147 76.6284L101.272 77.2174L100.71 77.5903L100.057 77.9981C97.4627 79.6331 94.7612 81.1069 91.9689 82.4103C91.0861 82.8216 90.1449 83.2293 89.1708 83.658L87.6605 84.2714L86.8798 84.5851L86.0772 84.8778L84.4283 85.4808L82.7064 86.0488C82.1263 86.2475 81.528 86.4217 80.9224 86.5995C80.3169 86.7772 79.7076 86.9724 79.0765 87.1258C76.4641 87.8306 73.8143 88.4018 71.1382 88.837C68.2578 89.3165 65.3477 89.6157 62.4265 89.7327C59.5052 89.8537 56.5786 89.7663 53.671 89.4713L52.6203 89.3702C52.2555 89.3388 51.9272 89.2831 51.5806 89.2378L49.5377 88.9589L47.5494 88.6104L46.5717 88.4327L45.6159 88.2236C41.1088 87.279 36.7099 85.9132 32.4827 84.1459C29.6292 82.9664 26.8836 81.5616 24.2744 79.9463C23.3369 79.3956 22.6656 78.9008 22.1914 78.5697L21.6587 78.2002C21.5383 78.1166 21.48 78.0678 21.48 78.0678C21.48 78.0678 21.5493 78.1061 21.6697 78.1863L22.2133 78.5348C22.6948 78.8415 23.3734 79.3399 24.3146 79.8766C26.9281 81.4689 29.6719 82.857 32.5192 84.0274C36.7422 85.7751 41.1334 87.1256 45.6305 88.0598L46.5863 88.2689L47.5604 88.4431L49.545 88.7917L51.5843 89.067C51.9272 89.1088 52.2701 89.1646 52.6203 89.1994L53.6673 89.297C56.5678 89.5893 59.4871 89.6755 62.4009 89.5549C65.3146 89.4383 68.2173 89.1415 71.0908 88.6662C73.7687 88.2344 76.4209 87.6678 79.0364 86.9689C79.6638 86.8156 80.2731 86.6204 80.8604 86.4461C81.4478 86.2719 82.0643 86.0976 82.6443 85.9025L84.3626 85.3379L86.0079 84.7419L86.8105 84.4491L87.5912 84.139L89.1015 83.5325C90.0792 83.1108 91.0168 82.7066 91.8996 82.2988C94.6922 81.006 97.3993 79.5511 100.006 77.9423L100.662 77.545L101.228 77.1756L102.114 76.604L102.662 76.2555L102.877 76.1335Z" fill="#4F4F4F"/>
<path d="M87.1572 79.8661L94.4899 97.7764H99.5025L100.593 96.2185L101.877 97.7764H103.65L104.307 69.3897L87.1572 79.8661Z" fill="#C96BCF"/>
<path d="M41.0962 82.3859L47.298 97.7764H52.9964L54.1565 95.9955L55.2801 97.7764H56.6956C56.6956 97.7764 57.3157 80.4133 56.6956 79.9184C56.0754 79.4235 41.0962 82.3859 41.0962 82.3859Z" fill="#C96BCF"/>
<path d="M113.493 47.9873C113.496 48.022 113.496 48.057 113.493 48.0918C113.493 48.1685 113.493 48.2661 113.467 48.388C113.442 48.6634 113.405 49.0502 113.354 49.5382C113.329 49.7891 113.299 50.0679 113.27 50.3676C113.241 50.6674 113.164 50.9984 113.106 51.347C112.975 52.044 112.869 52.856 112.632 53.7238C112.522 54.163 112.413 54.6195 112.293 55.0935C112.172 55.5675 112.001 56.0519 111.847 56.5608C111.556 57.5784 111.118 58.6275 110.698 59.7427C109.689 62.1297 108.469 64.4301 107.05 66.619C105.601 68.7864 103.961 70.8315 102.147 72.732C101.283 73.5823 100.476 74.4083 99.6409 75.0984C99.2287 75.4469 98.8492 75.7954 98.4516 76.1161L97.3024 76.9978C96.5728 77.5798 95.8687 78.019 95.2668 78.4337C94.9604 78.6358 94.6794 78.8345 94.4131 78.9983L93.6653 79.4339L92.6292 80.0264L92.3592 80.1763C92.2972 80.2111 92.2644 80.2251 92.2607 80.2216L92.3483 80.1623L92.611 79.995L93.6251 79.3747L94.3548 78.9286C94.6174 78.7578 94.8947 78.5592 95.1975 78.35C95.7958 77.9283 96.5035 77.4822 97.2112 76.8967L98.3495 76.0115C98.7435 75.6978 99.1192 75.3389 99.5278 74.9869C100.356 74.2898 101.151 73.4673 102.012 72.6204C103.813 70.7205 105.444 68.6804 106.89 66.5214C108.303 64.3421 109.524 62.0537 110.538 59.68C110.968 58.5717 111.406 57.5296 111.702 56.5155C111.855 56.0136 112.034 55.5326 112.158 55.0587C112.282 54.5847 112.391 54.1316 112.504 53.696C112.749 52.8316 112.869 52.03 113.004 51.333C113.066 50.9845 113.139 50.6569 113.183 50.3572C113.226 50.0574 113.256 49.7786 113.285 49.5312C113.351 49.0433 113.398 48.6599 113.434 48.388L113.456 48.0953C113.463 48.0579 113.476 48.0215 113.493 47.9873Z" fill="white"/>
<g opacity="0.2">
<path opacity="0.2" d="M105.562 32.879C103.895 28.9373 100.268 25.2117 96.0766 23.5911C95.278 23.2887 94.4156 23.172 93.5605 23.2508C92.7054 23.3295 91.8822 23.6014 91.1588 24.044C90.4354 24.4866 89.8325 25.0872 89.4 25.7962C88.9674 26.5052 88.7175 27.3023 88.6709 28.1218C88.6709 28.1462 88.6709 28.1706 88.6709 28.1985C88.5396 30.7217 89.5757 33.1683 90.8598 35.3849C92.1439 37.6014 93.6579 39.696 94.6465 42.0415C96.2759 45.9498 96.3279 50.2968 94.7925 54.2396C93.8148 56.7211 92.1913 59.3628 93.6615 61.8373C94.1566 62.6182 94.8771 63.246 95.7365 63.6453C96.5958 64.0447 97.5576 64.1987 98.5062 64.0887C102.231 63.7681 104.164 60.5548 105.93 57.6342C107.349 55.2852 108.517 51.6327 108.586 48.876C108.779 43.3989 107.748 37.9455 105.562 32.879Z" fill="white"/>
</g>
<path d="M49.0999 44.0107C48.965 44.0455 48.7351 43.5262 48.3703 42.7734C48.1761 42.3542 47.9097 41.969 47.5823 41.6338C47.2295 41.2581 46.7377 41.0281 46.2106 40.9925C45.6741 40.9996 45.1574 41.1872 44.7514 41.5223C44.3967 41.8138 44.1054 42.169 43.8941 42.5678C43.5074 43.2892 43.3615 43.8225 43.2228 43.7981C43.0842 43.7737 43.0003 43.2265 43.2703 42.3273C43.4366 41.7843 43.7441 41.2904 44.164 40.8914C44.4354 40.6316 44.7578 40.4254 45.1128 40.2849C45.4678 40.1443 45.8483 40.0721 46.2325 40.0724C46.6443 40.0839 47.0467 40.1929 47.4036 40.3896C47.719 40.5654 47.9993 40.7931 48.2317 41.0622C48.5986 41.4957 48.8603 42.0016 48.9978 42.5434C49.2495 43.4391 49.2167 43.9793 49.0999 44.0107Z" fill="#4F4F4F"/>
<path d="M21.3891 41.8812C21.3905 42.3771 21.2379 42.8623 20.9506 43.2753C20.6632 43.6883 20.2541 44.0105 19.7749 44.2013C19.2957 44.392 18.7681 44.4426 18.2588 44.3467C17.7495 44.2508 17.2815 44.0127 16.9139 43.6625C16.5463 43.3124 16.2958 42.8659 16.194 42.3796C16.0922 41.8933 16.1437 41.3891 16.342 40.9308C16.5403 40.4726 16.8765 40.0808 17.308 39.8051C17.7395 39.5295 18.247 39.3823 18.7661 39.3823C19.4605 39.3823 20.1265 39.6454 20.6182 40.1138C21.1099 40.5822 21.3871 41.2178 21.3891 41.8812Z" fill="#4F4F4F"/>
<path d="M104.701 20.9109C104.633 20.8554 104.572 20.7922 104.519 20.7227L104.03 20.1616C103.822 19.9142 103.563 19.6144 103.249 19.2799C102.936 18.9453 102.596 18.5445 102.192 18.1332C101.787 17.722 101.352 17.255 100.86 16.7845C100.367 16.314 99.8348 15.8121 99.2694 15.2928C98.1238 14.2717 96.8215 13.2017 95.3914 12.1318C93.9614 11.0618 92.5313 10.1487 91.2034 9.34365C90.5358 8.95331 89.9046 8.57343 89.2918 8.25279C88.6789 7.93216 88.1134 7.62546 87.5881 7.36408C87.0628 7.10269 86.5812 6.87615 86.1617 6.66704C85.7421 6.45793 85.37 6.3011 85.0672 6.16866L84.3741 5.85848C84.2909 5.82703 84.2114 5.78731 84.137 5.73999C84.2233 5.76214 84.3075 5.79129 84.3887 5.82712L85.0964 6.10593C85.4065 6.22443 85.7786 6.37777 86.1909 6.57643C86.6031 6.77508 87.1102 6.97722 87.6501 7.24209C88.19 7.50697 88.7628 7.7823 89.3684 8.11339C89.974 8.44448 90.6233 8.81042 91.2982 9.19379C92.6334 9.99189 94.0635 10.9189 95.5081 11.9819C96.9528 13.0449 98.2442 14.1358 99.3898 15.1674C99.9552 15.6936 100.484 16.185 100.973 16.6764C101.462 17.1679 101.896 17.6174 102.29 18.0426C102.684 18.4678 103.02 18.8651 103.333 19.2102C103.647 19.5552 103.888 19.8619 104.089 20.1128C104.289 20.3638 104.435 20.5485 104.552 20.6983C104.608 20.7651 104.658 20.8362 104.701 20.9109Z" fill="white"/>
<path d="M77.1214 9.66088C77.0239 9.64376 76.9285 9.61689 76.8368 9.58072L76.0343 9.31934C75.6913 9.19736 75.2645 9.05795 74.7647 8.91854C74.2649 8.77914 73.6995 8.59094 73.061 8.44107L72.0651 8.19014C71.7185 8.10301 71.3537 8.03679 70.9707 7.95315C70.2192 7.78238 69.402 7.65691 68.5483 7.51053C64.8261 6.93593 61.0409 6.83164 57.2902 7.20035C56.4293 7.30142 55.6084 7.38158 54.8496 7.51053C54.4666 7.57327 54.0981 7.61857 53.7552 7.68479L52.7447 7.88345C52.0953 7.99497 51.5226 8.14832 51.0155 8.26333C50.5084 8.37834 50.0743 8.49335 49.724 8.59442L48.9069 8.81399C48.8134 8.84481 48.7168 8.86584 48.6187 8.87672C48.7091 8.83935 48.8017 8.80678 48.8959 8.77914L49.7021 8.5282C50.067 8.41668 50.4828 8.28773 50.9899 8.17969C51.497 8.07165 52.0844 7.8939 52.7155 7.77192L53.726 7.56281C54.0908 7.49311 54.4556 7.44083 54.8205 7.37461C55.5793 7.23869 56.4037 7.15156 57.2683 7.05049C59.1504 6.86699 61.0425 6.79482 62.9339 6.83441C64.8269 6.89102 66.7144 7.06214 68.5848 7.34673C69.4421 7.49659 70.2593 7.62903 71.0108 7.80677C71.3756 7.8939 71.7404 7.96361 72.1052 8.05422L73.1012 8.31561C73.7396 8.47593 74.3014 8.66412 74.8012 8.82096C75.301 8.97779 75.7205 9.12068 76.0634 9.24963L76.8551 9.54587C76.9463 9.57888 77.0352 9.6173 77.1214 9.66088Z" fill="white"/>
</g>
<defs>
<clipPath id="clip0">
<rect width="123" height="97.7764" fill="white"/>
</clipPath>
</defs>
</svg>
