<svg width="138" height="129" viewBox="0 0 138 129" fill="none" xmlns="http://www.w3.org/2000/svg">
<path d="M19.1288 25.7904L29.7273 30.5688L45.1253 21.767L50.294 27.2938L33.8966 38.6548L22.3434 38.6613L15.146 29.7125L19.1288 25.7904Z" fill="#FA9A6C"/>
<path d="M22.3474 38.6711L15.1313 29.7125L19.1179 25.7904L29.7276 30.559L45.1293 21.7539L50.3167 27.2939L33.9081 38.6646L22.3474 38.6711Z" fill="#FA9A6C"/>
<g opacity="0.3">
<path opacity="0.3" d="M19.1288 25.7904L29.7273 30.5688L45.364 21.4925L50.294 27.2939L33.8966 38.6548L22.3434 38.6613L15.146 29.7125L19.1288 25.7904Z" fill="#4F4F4F"/>
</g>
<path d="M75.5524 25.9898C74.0543 29.2272 71.4936 32.0021 68.1948 33.9631C64.8959 35.9241 61.0072 36.9829 57.0212 37.0056C53.0352 37.0282 49.1312 36.0135 45.8036 34.0902C42.4761 32.1668 39.8747 29.4211 38.3288 26.201C36.783 22.9809 36.3624 19.4312 37.1202 16.0014C37.878 12.5716 39.7801 9.41604 42.5857 6.9344C45.3912 4.45275 48.974 2.75665 52.8803 2.0609C56.7865 1.36516 60.8405 1.70107 64.5287 3.02609C69.4651 4.79014 73.3997 8.20053 75.467 12.507C77.5343 16.8135 77.565 21.6634 75.5524 25.9898Z" fill="#F8834B"/>
<path d="M71.1217 24.4013C69.9794 26.8651 68.0288 28.9765 65.5168 30.4682C63.0047 31.9599 60.0442 32.7649 57.0099 32.7813C53.9756 32.7977 51.0039 32.0248 48.471 30.5604C45.9382 29.096 43.9579 27.0059 42.781 24.5547C41.6041 22.1035 41.2834 19.4014 41.8595 16.7904C42.4356 14.1794 43.8826 11.7768 46.0173 9.88689C48.1521 7.99694 50.8786 6.70454 53.8518 6.17327C56.825 5.642 59.9112 5.89575 62.7198 6.9024C66.4812 8.24685 69.4794 10.8456 71.055 14.1271C72.6306 17.4087 72.6546 21.1043 71.1217 24.4013Z" fill="#F8834B"/>
<path d="M71.1221 24.4013C71.14 24.3263 71.1662 24.2529 71.2004 24.1824C71.2563 24.032 71.3309 23.8326 71.4242 23.5744L71.5957 23.1299C71.6516 22.9632 71.6889 22.777 71.7449 22.5776C71.8813 22.1224 71.981 21.6593 72.0432 21.1918C72.2479 19.9136 72.2315 18.6156 71.9947 17.3416C71.4564 14.2811 69.7202 11.4801 67.0837 9.41862C64.4471 7.35716 61.0745 6.16369 57.5439 6.04281C56.8238 6.0152 56.1023 6.03158 55.3847 6.09183C55.0118 6.12451 54.6612 6.18661 54.2958 6.23237C53.9286 6.27828 53.5658 6.3482 53.2106 6.44155C52.4795 6.60628 51.7619 6.81375 51.0625 7.06254C50.3576 7.33125 49.6747 7.64249 49.0189 7.99403C47.6651 8.70562 46.4522 9.60525 45.4277 10.6578C44.3793 11.745 43.5244 12.9648 42.8918 14.2759C42.293 15.599 41.9271 16.9942 41.8066 18.4137C41.6964 19.7944 41.8412 21.1817 42.2354 22.522C42.4239 23.1747 42.6618 23.8157 42.9477 24.4406C43.2467 25.0447 43.5906 25.631 43.977 26.1957C44.3592 26.7486 44.7854 27.2772 45.2524 27.7776C45.7142 28.2607 46.2125 28.716 46.7441 29.1405C48.7552 30.7371 51.2149 31.8358 53.8706 32.3239C55.9823 32.7051 58.1621 32.6914 60.2673 32.2837C62.3726 31.8759 64.3559 31.0833 66.0876 29.9576C67.2757 29.1947 68.3245 28.2778 69.1978 27.2383C69.5307 26.8688 69.8312 26.4776 70.0965 26.0682C70.2159 25.8917 70.3352 25.7414 70.4322 25.5845L70.6783 25.1629C70.8126 24.921 70.9207 24.7314 71.0027 24.5909C71.0366 24.5239 71.0765 24.4594 71.1221 24.3981C71.0984 24.4676 71.0685 24.5354 71.0326 24.6007C70.958 24.7445 70.861 24.9276 70.7342 25.1858C70.6671 25.3165 70.5963 25.4603 70.5142 25.6172C70.4322 25.7741 70.3054 25.944 70.1898 26.1107C69.9321 26.5277 69.6379 26.9266 69.3097 27.3037C68.4442 28.3647 67.3977 29.3028 66.2069 30.0851C64.4602 31.2412 62.4533 32.0591 60.3189 32.4845C58.1845 32.9099 55.9713 32.9331 53.8259 32.5527C51.1186 32.0657 48.6092 30.953 46.5576 29.3301C45.438 28.4678 44.4803 27.4564 43.7197 26.333C43.3193 25.7573 42.963 25.1589 42.6531 24.5419C42.3556 23.9033 42.1065 23.2482 41.9073 22.5808C41.5087 21.2156 41.3639 19.803 41.4784 18.3973C41.6062 16.9462 41.9833 15.5204 42.5972 14.168C43.2506 12.829 44.1307 11.5839 45.2076 10.4747C46.2565 9.40171 47.4955 8.48355 48.8772 7.75544C49.5468 7.39946 50.2433 7.08388 50.9618 6.81088C51.6766 6.56224 52.409 6.3548 53.1546 6.18988C53.5211 6.09601 53.8951 6.0261 54.2734 5.98071C54.6463 5.93168 55.0192 5.86958 55.3922 5.8369C56.1249 5.77879 56.8612 5.76459 57.5961 5.79441C60.3568 5.899 63.0358 6.64702 65.3567 7.96135C67.1821 9.01009 68.7327 10.3865 69.906 11.9996C71.0792 13.6127 71.8484 15.4257 72.1625 17.3187C72.3903 18.6086 72.3903 19.9215 72.1625 21.2114C72.0915 21.6818 71.9818 22.1471 71.8344 22.6037C71.7747 22.7998 71.7299 22.9861 71.6703 23.1528C71.6106 23.3195 71.5398 23.4633 71.4838 23.5973L71.2265 24.1954C71.1983 24.2665 71.1634 24.3354 71.1221 24.4013Z" fill="#4F4F4F"/>
<g opacity="0.3">
<path opacity="0.3" d="M70.95 24.5092C70.8643 24.4798 71.0582 23.9144 71.2745 22.875C71.5855 21.4267 71.6396 19.945 71.4348 18.4823C71.2908 17.4788 71.0207 16.4923 70.6293 15.5407C70.178 14.4616 69.5701 13.4378 68.8206 12.4946C68.4192 11.9872 67.9754 11.5065 67.493 11.0565C66.9941 10.5836 66.4529 10.1465 65.8746 9.74915C65.2788 9.33607 64.648 8.96348 63.9876 8.63463C63.3045 8.30014 62.594 8.01063 61.8619 7.7685C61.1326 7.53386 60.3848 7.34597 59.6244 7.20634C58.8793 7.0749 58.1237 6.99404 57.3644 6.96448C55.9222 6.91137 54.4788 7.04239 53.0795 7.35342C51.8085 7.63715 50.584 8.06222 49.4361 8.61828C48.4343 9.11196 47.4965 9.69934 46.6391 10.3701C45.3904 11.3585 44.3225 12.5094 43.473 13.7823C42.8577 14.704 42.5743 15.227 42.4848 15.1976C42.3953 15.1681 42.5519 14.5896 43.0553 13.596C43.7773 12.1939 44.7888 10.9207 46.0387 9.84066C47.9198 8.21534 50.2471 7.04238 52.7961 6.435C54.2951 6.07336 55.8479 5.91248 57.4017 5.95781C58.222 5.98076 59.0389 6.06164 59.8444 6.19967C61.5024 6.48476 63.096 7.00588 64.5619 7.74236C65.2742 8.09934 65.9526 8.50593 66.5906 8.9582C67.2059 9.3936 67.7808 9.8712 68.3097 10.3865C68.822 10.8777 69.2896 11.4034 69.7082 11.9586C71.1755 13.8756 72.0529 16.0924 72.2553 18.394C72.398 19.9352 72.216 21.4863 71.7183 22.9698C71.3528 23.9928 71.0134 24.5092 70.95 24.5092Z" fill="#4F4F4F"/>
</g>
<g opacity="0.3">
<path opacity="0.3" d="M55.0709 27.3069L54.0938 29.4869L51.8749 28.7254L52.8221 26.6042C50.6778 25.7316 48.8393 24.4013 47.9741 23.1463L50.2564 21.1852C51.1824 22.4033 52.4532 23.3898 53.9446 24.0483L55.399 20.78C53.1615 19.4072 50.7412 17.7436 51.9868 14.959C52.9116 12.8966 55.4139 11.7135 59.0723 12.5698L60.0419 10.4094L62.2795 11.1742L61.3285 13.2954C62.883 13.9172 64.2458 14.855 65.3039 16.031L63.1223 18.0443C62.3167 17.1525 61.3164 16.4103 60.1799 15.861L58.6882 19.1719C60.9258 20.525 63.3125 22.1756 62.0818 24.9177C61.1905 26.967 58.7218 28.1371 55.0709 27.3069ZM56.7005 17.943L57.9349 15.1812C56.6558 15.008 55.936 15.4133 55.6489 16.0571C55.3617 16.701 55.8465 17.3351 56.7005 17.943ZM58.4197 23.947C58.7255 23.2639 58.2444 22.6756 57.4203 22.0546L56.2195 24.738C57.4277 24.9079 58.1475 24.568 58.4197 23.947Z" fill="#4F4F4F"/>
</g>
<path d="M5.56623 10.1283L7.22947 24.5746C7.51289 27.0324 8.49741 30.5884 12.9091 30.0197C16.6943 29.2745 17.2984 25.993 17.0299 23.7019C16.9068 22.6168 16.8024 21.7082 16.7987 21.5971C16.7987 21.5971 20.9531 20.8813 20.8375 17.2141C20.7815 15.4427 20.3265 11.805 19.8716 8.5137C19.6351 6.81015 18.6754 5.24711 17.1834 4.13573C15.6914 3.02435 13.7766 2.44614 11.8202 2.5162H11.4174C7.0803 2.90514 5.01803 6.34349 5.56623 10.1283Z" fill="#FFBE9D"/>
<path d="M16.7986 21.5971C14.8673 21.661 12.9556 21.2379 11.2905 20.3779C11.2905 20.3779 12.7412 22.9927 16.8844 22.5318L16.7986 21.5971Z" fill="#4F4F4F"/>
<path d="M12.9832 10.7068C12.9086 10.7885 12.3865 10.4976 11.6928 10.5499C10.9992 10.6022 10.5144 10.9519 10.4323 10.8767C10.3503 10.8016 10.4622 10.7002 10.6673 10.5499C10.9491 10.341 11.2988 10.2152 11.6667 10.1904C12.0302 10.1634 12.3939 10.2402 12.7035 10.4094C12.9347 10.5368 13.0242 10.6676 12.9832 10.7068Z" fill="#4F4F4F"/>
<path d="M13.1248 12.2168C13.1351 12.3472 13.0859 12.4759 12.988 12.5746C12.8901 12.6732 12.7515 12.7338 12.6027 12.743C12.5313 12.7507 12.4588 12.7457 12.3896 12.7284C12.3204 12.7111 12.2558 12.6817 12.1998 12.6421C12.1438 12.6024 12.0975 12.5533 12.0635 12.4977C12.0296 12.442 12.0088 12.381 12.0023 12.3181C11.9941 12.1888 12.0443 12.0618 12.1419 11.9646C12.2396 11.8673 12.377 11.8077 12.5244 11.7984C12.5952 11.7912 12.667 11.7962 12.7355 11.8133C12.8041 11.8305 12.8681 11.8593 12.9239 11.8982C12.9797 11.937 13.0262 11.9852 13.0607 12.0399C13.0952 12.0946 13.117 12.1547 13.1248 12.2168Z" fill="#4F4F4F"/>
<path d="M15.2614 14.7629C15.5968 14.6608 15.9448 14.5938 16.2982 14.5635C16.4585 14.5406 16.6151 14.5079 16.6375 14.4099C16.645 14.2599 16.5994 14.1115 16.507 13.985L15.9737 12.9097C15.2279 11.3736 14.6834 10.1087 14.7542 10.0825C14.8251 10.0564 15.5001 11.282 16.2459 12.8149L16.7531 13.9C16.8623 14.0708 16.9005 14.2695 16.8613 14.4622C16.8409 14.5138 16.807 14.5604 16.7623 14.5984C16.7176 14.6365 16.6634 14.6648 16.604 14.6812C16.513 14.7057 16.4192 14.7211 16.3243 14.7269C15.9733 14.7793 15.616 14.7914 15.2614 14.7629Z" fill="#4F4F4F"/>
<path d="M12.3908 8.44835C12.3424 8.58889 11.7755 8.54313 11.1117 8.64118C10.4479 8.73923 9.9221 8.91899 9.82514 8.79806C9.78412 8.73923 9.87362 8.60196 10.0825 8.47123C10.3618 8.29606 10.6841 8.18085 11.0235 8.13486C11.363 8.08888 11.71 8.11341 12.0366 8.20649C12.279 8.27513 12.4132 8.38298 12.3908 8.44835Z" fill="#4F4F4F"/>
<path d="M19.1292 8.91898C19.0696 9.03664 18.5139 8.96801 17.8538 9.01703C17.1938 9.06606 16.6605 9.19352 16.5747 9.08567C16.5374 9.03337 16.6344 8.92225 16.8507 8.81439C17.1454 8.67512 17.4711 8.59371 17.8054 8.5758C18.1412 8.55172 18.4792 8.58957 18.7973 8.68692C19.036 8.76863 19.1553 8.86342 19.1292 8.91898Z" fill="#4F4F4F"/>
<path d="M6.03236 12.8345C5.96151 12.8116 3.12728 12.1808 3.33239 14.6942C3.5375 17.2076 6.36054 16.4984 6.36054 16.4265C6.36054 16.3546 6.03236 12.8345 6.03236 12.8345Z" fill="#FFBE9D"/>
<path d="M5.40941 15.5342C5.40941 15.5342 5.36466 15.5669 5.28262 15.6061C5.16736 15.6579 5.03365 15.6685 4.90969 15.6355C4.60017 15.5571 4.31301 15.1551 4.2608 14.704C4.2358 14.4905 4.26641 14.2749 4.35031 14.0732C4.3703 13.9931 4.41235 13.9184 4.4728 13.8557C4.53325 13.7931 4.61026 13.7443 4.69713 13.7137C4.75306 13.6971 4.81384 13.6982 4.86898 13.7167C4.92413 13.7352 4.97018 13.77 4.9992 13.815C5.04395 13.8837 5.02903 13.9327 5.04395 13.936C5.05886 13.9392 5.10361 13.8902 5.07005 13.7889C5.04984 13.7279 5.0064 13.6749 4.94699 13.6385C4.86432 13.5915 4.76376 13.575 4.66729 13.5928C4.55116 13.6199 4.44507 13.6731 4.35943 13.747C4.27379 13.8209 4.21153 13.9131 4.17876 14.0144C4.07822 14.2386 4.04235 14.4811 4.07434 14.7204C4.13401 15.2237 4.44727 15.678 4.88732 15.7565C4.96583 15.7712 5.04713 15.7704 5.12522 15.754C5.20331 15.7376 5.27622 15.706 5.33856 15.6617C5.40941 15.593 5.4206 15.5375 5.40941 15.5342Z" fill="#4F4F4F"/>
<path d="M14.8214 16.554C14.8438 16.4886 14.2695 16.3971 13.8182 15.9787C13.629 15.7908 13.4685 15.582 13.3409 15.3577C13.2328 15.1845 13.1582 15.0799 13.1283 15.0897C13.0985 15.0995 13.1283 15.2237 13.1917 15.4165C13.2873 15.6739 13.4451 15.9102 13.6542 16.1094C13.8673 16.3092 14.1398 16.453 14.441 16.5245C14.6685 16.5866 14.8177 16.5768 14.8214 16.554Z" fill="#4F4F4F"/>
<path d="M19.3378 10.3048C19.2669 10.3865 18.7448 10.0989 18.0475 10.1512C17.3501 10.2035 16.8727 10.5532 16.7907 10.478C16.7087 10.4028 16.8168 10.3048 17.0256 10.1512C17.3076 9.94405 17.6579 9.8215 18.0251 9.80144C18.3887 9.77321 18.7528 9.85013 19.0618 10.0204C19.2893 10.1283 19.3639 10.2688 19.3378 10.3048Z" fill="#4F4F4F"/>
<path d="M18.9909 11.9096C18.994 12.0386 18.9397 12.1636 18.8395 12.2582C18.7393 12.3527 18.601 12.4094 18.4539 12.4162C18.3823 12.4239 18.3096 12.4189 18.2401 12.4016C18.1707 12.3843 18.1059 12.355 18.0496 12.3154C17.9933 12.2758 17.9466 12.2267 17.9123 12.171C17.878 12.1154 17.8567 12.0542 17.8498 11.9913C17.8426 11.8621 17.893 11.7356 17.9905 11.6386C18.088 11.5416 18.2248 11.4817 18.3719 11.4716C18.4458 11.4625 18.521 11.4667 18.5929 11.4842C18.6648 11.5016 18.7318 11.5317 18.7899 11.5728C18.8479 11.6139 18.8957 11.665 18.9303 11.7229C18.9649 11.7808 18.9855 11.8443 18.9909 11.9096Z" fill="#4F4F4F"/>
<path d="M22.1387 3.40523C21.8039 3.03166 21.3271 2.77597 20.7952 2.68478C20.2633 2.59359 19.7118 2.67296 19.2411 2.90843C19.2803 2.32124 19.1067 1.7382 18.745 1.24273C18.3833 0.747255 17.8521 0.364744 17.2273 0.149916C16.5922 -0.0402455 15.9048 -0.0497218 15.2633 0.12284C14.6217 0.295401 14.0587 0.64118 13.6547 1.11082C13.6001 0.960428 13.5088 0.822272 13.3871 0.705988C13.2653 0.589704 13.1161 0.49809 12.9498 0.437534C12.6196 0.31658 12.2634 0.259715 11.9057 0.270846C10.7755 0.279174 9.6823 0.625048 8.80666 1.25136C8.35751 1.57888 7.97865 1.97401 7.68789 2.41818C6.84651 2.41127 6.0151 2.5781 5.26096 2.90517C4.50683 3.23223 3.85117 3.71033 3.34706 4.30077C2.17981 5.72905 2.31779 8.75885 4.11528 11.2069L4.67094 12.7986C5.07415 12.7158 5.49791 12.7634 5.86429 12.9326C6.2857 13.1973 6.53182 13.7497 7.13969 13.4719C7.45295 13.328 7.66924 12.7005 7.74383 12.3998C8.214 10.3962 8.18729 8.32746 7.66551 6.3337C8.06613 5.86341 8.56623 5.46505 9.13856 5.16035L9.09381 5.20284C10.2126 4.73546 11.4731 4.25828 12.6329 4.6276C13.5316 4.91195 14.1245 5.63427 14.848 6.18989C15.5117 6.70291 16.287 7.09278 17.1273 7.33601C17.9675 7.57924 18.8553 7.67078 19.737 7.6051C19.9272 8.62157 20.0167 10.076 20.2107 11.0925L20.9789 9.35696C21.0423 9.22949 21.0945 9.10203 21.143 8.97456L21.1616 8.93534C21.3525 8.70065 21.5293 8.45737 21.6912 8.20649C21.9425 7.8797 22.0866 7.49866 22.1077 7.10499C22.1287 6.71131 22.0259 6.32013 21.8105 5.97418C22.2072 5.65139 22.4585 5.21455 22.5187 4.74309C22.5789 4.27164 22.4441 3.79691 22.1387 3.40523Z" fill="#4F4F4F"/>
<path d="M21.4251 8.3373L21.4185 8.33069L21.4251 8.3373Z" fill="#4F4F4F"/>
<path d="M20.4452 3.61113C20.4566 3.62746 20.4654 3.64505 20.4713 3.66343C20.4944 3.71501 20.5107 3.76875 20.5198 3.82358C20.5477 3.99665 20.5284 4.17305 20.4636 4.33834C20.3988 4.50364 20.2902 4.65316 20.1469 4.77467C20.0082 4.89055 19.8392 4.97474 19.6546 5.0198C19.4392 5.07287 19.2116 5.07576 18.9945 5.02819C18.7774 4.98061 18.5781 4.88422 18.4165 4.74853L18.4799 4.68643C18.6358 4.80638 18.7311 4.97565 18.7447 5.15707C18.768 5.39361 18.6835 5.6286 18.5098 5.81075C18.3427 5.9785 18.1173 6.09336 17.8683 6.13758C17.4573 6.20581 17.032 6.14811 16.6638 5.97417C16.4292 5.85356 16.2093 5.71229 16.0074 5.55255C15.9263 5.4992 15.8514 5.43899 15.7837 5.37279C15.862 5.42905 15.9367 5.48906 16.0074 5.55255C16.2237 5.69618 16.4547 5.822 16.6974 5.92841C17.0538 6.08752 17.4605 6.13812 17.8534 6.07222C18.0812 6.03118 18.2878 5.92688 18.4426 5.7748C18.6006 5.60775 18.677 5.39281 18.6552 5.17668C18.6425 5.01821 18.5595 4.87039 18.424 4.76487L18.4874 4.70277C18.6374 4.82873 18.8217 4.9189 19.0228 4.96468C19.2239 5.01045 19.435 5.0103 19.636 4.96424C19.7999 4.92757 19.9521 4.85881 20.0813 4.76314C20.2105 4.66747 20.3132 4.54737 20.3818 4.41188C20.4766 4.22881 20.5114 4.02627 20.4825 3.82685C20.4825 3.68631 20.4378 3.6144 20.4452 3.61113Z" fill="#FA9A6C"/>
<path d="M16.5373 1.23826L16.6007 1.2546C16.66 1.27701 16.7173 1.30323 16.7722 1.33305C16.9772 1.4416 17.1468 1.59471 17.2645 1.77755C17.351 1.91644 17.3979 2.07163 17.4011 2.22985C17.4044 2.38808 17.3639 2.54464 17.2831 2.68617C17.233 2.77519 17.1629 2.85448 17.0772 2.91935C16.9915 2.98422 16.8917 3.03335 16.7839 3.06383C16.6761 3.09431 16.5624 3.10551 16.4496 3.09678C16.3368 3.08805 16.2271 3.05957 16.127 3.01301C16.0618 2.98097 16.0026 2.94017 15.9518 2.89208L16.0264 2.84305C16.0793 2.92838 16.1113 3.02248 16.1203 3.1193C16.1293 3.21611 16.1151 3.31351 16.0786 3.40522C16.0146 3.57722 15.8822 3.72336 15.7056 3.81704C15.5623 3.89376 15.4016 3.94201 15.2347 3.95838C15.0678 3.97476 14.8989 3.95887 14.7398 3.91183C14.5284 3.8429 14.3373 3.73347 14.1804 3.59152C14.1176 3.54845 14.0634 3.49654 14.02 3.43791C14.02 3.43791 14.0834 3.48693 14.2028 3.56864C14.3688 3.68765 14.5602 3.77653 14.7659 3.83012C14.916 3.86958 15.0739 3.88095 15.2294 3.86349C15.3849 3.84604 15.5344 3.80015 15.6683 3.7288C15.8245 3.64593 15.9441 3.51923 16.0077 3.36927C16.0682 3.20499 16.0521 3.02639 15.963 2.87247L15.7728 2.58158L16.0375 2.82344C16.082 2.86509 16.1336 2.90038 16.1904 2.92803C16.2821 2.9702 16.3825 2.9957 16.4857 3.003C16.5889 3.01031 16.6927 2.99926 16.7908 2.97052C16.9756 2.91277 17.1288 2.79605 17.2197 2.64368C17.2971 2.51409 17.3376 2.36998 17.3376 2.22369C17.3376 2.0774 17.2971 1.93329 17.2197 1.8037C17.106 1.62568 16.9464 1.47346 16.7536 1.35919C16.6193 1.27748 16.5335 1.2448 16.5373 1.23826Z" fill="#FA9A6C"/>
<path d="M25.7896 115.599L25.4912 128.019L44.1374 128.405C44.0703 126.927 34.5197 123.767 34.5197 123.767L35.1015 115.825L25.7896 115.599Z" fill="#FA9A6C"/>
<g opacity="0.6">
<path opacity="0.6" d="M28.7688 122.969C28.5928 123.006 28.4389 123.099 28.3374 123.231C28.2359 123.362 28.1942 123.522 28.2206 123.679C28.2734 123.831 28.3878 123.961 28.5422 124.045C28.6967 124.128 28.8807 124.16 29.0597 124.133C29.2476 124.097 29.4122 123.998 29.5192 123.858C29.6262 123.718 29.6674 123.547 29.634 123.381C29.562 123.223 29.4245 123.094 29.2488 123.021C29.0732 122.947 28.8725 122.935 28.6868 122.986" fill="white"/>
</g>
<g opacity="0.6">
<path opacity="0.6" d="M25.4912 128.009L25.5807 126.761L43.4176 127.594C43.4176 127.594 44.2381 127.921 44.1299 128.395L25.4912 128.009Z" fill="white"/>
</g>
<path d="M34.8138 123.685C34.8138 123.76 34.3551 123.786 33.9001 124.012C33.4451 124.238 33.1953 124.558 33.1132 124.525C33.0312 124.492 33.1804 124.061 33.736 123.786C34.2917 123.512 34.8361 123.616 34.8138 123.685Z" fill="#4F4F4F"/>
<path d="M36.75 124.394C36.75 124.47 36.3771 124.587 36.0526 124.901C35.7282 125.215 35.6349 125.555 35.5454 125.555C35.4559 125.555 35.4075 125.12 35.8139 124.738C36.2204 124.355 36.75 124.322 36.75 124.394Z" fill="#4F4F4F"/>
<path d="M37.8017 126.355C37.7197 126.355 37.6041 125.989 37.8502 125.584C38.0963 125.179 38.5252 125.019 38.5625 125.084C38.5998 125.149 38.3313 125.362 38.1336 125.698C37.936 126.035 37.895 126.349 37.8017 126.355Z" fill="#4F4F4F"/>
<path d="M34.7055 121.861C34.6645 121.93 34.2506 121.819 33.7359 121.835C33.2213 121.852 32.8148 121.979 32.7701 121.914C32.7253 121.848 33.1169 121.587 33.7248 121.587C34.3326 121.587 34.754 121.803 34.7055 121.861Z" fill="#4F4F4F"/>
<path d="M34.3183 120.021C34.0106 120.085 33.6891 120.078 33.386 119.998C33.0518 119.943 32.7263 119.853 32.4164 119.73C32.2331 119.659 32.0561 119.576 31.8869 119.482C31.7835 119.434 31.6902 119.371 31.6109 119.296C31.5554 119.241 31.5223 119.172 31.5169 119.099C31.5115 119.026 31.5341 118.954 31.5811 118.894C31.6295 118.841 31.691 118.799 31.7608 118.771C31.8306 118.743 31.9069 118.729 31.9838 118.73C32.1025 118.732 32.2203 118.747 32.3344 118.776C32.5312 118.82 32.7233 118.879 32.9087 118.952C33.2175 119.076 33.503 119.24 33.7552 119.439C34.1766 119.766 34.3183 120.064 34.2847 120.077C34.2512 120.09 34.0386 119.861 33.6097 119.58C33.3568 119.415 33.0812 119.279 32.7893 119.175C32.6174 119.113 32.4404 119.063 32.2598 119.024C32.0621 118.979 31.8869 118.975 31.8421 119.047C31.7974 119.119 31.8197 119.083 31.8421 119.132C31.901 119.187 31.9689 119.233 32.0435 119.27C32.2076 119.361 32.3716 119.443 32.532 119.515C32.8183 119.639 33.1165 119.741 33.4233 119.819C33.7264 119.869 34.0255 119.936 34.3183 120.021Z" fill="#4F4F4F"/>
<path d="M34.1951 120.126C34.1616 120.126 33.99 119.864 33.9714 119.374C33.964 119.087 34.0158 118.802 34.1243 118.531C34.1904 118.369 34.2754 118.213 34.3779 118.067C34.4344 117.964 34.5198 117.875 34.6261 117.809C34.7324 117.742 34.8561 117.701 34.9857 117.688C35.0655 117.692 35.1425 117.715 35.2082 117.755C35.274 117.794 35.326 117.849 35.3587 117.913C35.4051 118.003 35.4353 118.099 35.4482 118.198C35.4827 118.43 35.4613 118.667 35.3856 118.892C35.3098 119.117 35.1812 119.326 35.0081 119.505C34.6352 119.897 34.2623 119.982 34.2623 119.956C34.2623 119.93 34.5532 119.776 34.844 119.4C35.0118 119.184 35.1203 118.937 35.161 118.678C35.1871 118.53 35.1871 118.379 35.161 118.23C35.1386 118.067 35.0678 117.933 34.9932 117.949C34.9186 117.965 34.7396 118.067 34.6576 118.194C34.5636 118.326 34.4825 118.465 34.4152 118.609C34.3041 118.855 34.235 119.114 34.2101 119.377C34.1579 119.832 34.2474 120.116 34.1951 120.126Z" fill="#4F4F4F"/>
<path d="M8.33287 110.497L0.717773 119.292L13.882 128.117C14.7173 127.025 9.73507 120.378 9.73507 120.378L14.8889 114.916L8.33287 110.497Z" fill="#FA9A6C"/>
<g opacity="0.6">
<path opacity="0.6" d="M6.08017 117.158C5.93189 117.104 5.76565 117.1 5.6144 117.148C5.46314 117.196 5.33789 117.291 5.26347 117.416C5.20667 117.55 5.20924 117.698 5.27068 117.831C5.33211 117.963 5.44796 118.071 5.59537 118.132C5.7529 118.191 5.92986 118.194 6.09046 118.143C6.25106 118.091 6.38333 117.988 6.46055 117.854C6.50164 117.708 6.47892 117.554 6.39683 117.421C6.31474 117.289 6.1792 117.188 6.01677 117.139" fill="white"/>
</g>
<g opacity="0.6">
<path opacity="0.6" d="M0.717773 119.292L1.52702 118.436L13.8335 127.208C13.8335 127.208 14.2325 127.813 13.8671 128.111L0.717773 119.292Z" fill="white"/>
</g>
<path d="M9.99961 120.446C9.95113 120.495 9.60804 120.306 9.14189 120.263C8.67573 120.221 8.31027 120.335 8.26925 120.263C8.22822 120.191 8.59369 119.959 9.1568 120.018C9.71992 120.077 10.0406 120.407 9.99961 120.446Z" fill="#4F4F4F"/>
<path d="M10.9652 121.842C10.9353 121.904 10.5923 121.806 10.1597 121.884C9.72708 121.963 9.47349 122.159 9.41382 122.113C9.35415 122.067 9.57418 121.74 10.0925 121.652C10.6109 121.564 11.0099 121.789 10.9652 121.842Z" fill="#4F4F4F"/>
<path d="M10.5515 123.734C10.4844 123.705 10.6261 123.381 11.0475 123.198C11.4689 123.015 11.868 123.103 11.8568 123.165C11.8456 123.228 11.5249 123.26 11.1818 123.414C10.8387 123.567 10.6187 123.77 10.5515 123.734Z" fill="#4F4F4F"/>
<path d="M11.0066 119.083C10.9395 119.116 10.7083 118.845 10.3279 118.622C9.94749 118.4 9.58203 118.296 9.58203 118.237C9.58203 118.178 10.0258 118.162 10.4733 118.43C10.9208 118.698 11.0774 119.064 11.0066 119.083Z" fill="#4F4F4F"/>
<path d="M11.8268 117.583C11.8082 117.606 11.5248 117.469 11.1705 117.139C10.9614 116.941 10.781 116.721 10.6335 116.485C10.5441 116.35 10.4656 116.211 10.3985 116.066C10.3559 115.983 10.327 115.895 10.3127 115.805C10.3031 115.74 10.3198 115.674 10.36 115.618C10.4002 115.563 10.4613 115.521 10.5328 115.501C10.5969 115.489 10.6634 115.488 10.7277 115.5C10.792 115.512 10.8527 115.536 10.9057 115.57C10.9901 115.625 11.0654 115.69 11.1295 115.763C11.2435 115.886 11.3458 116.017 11.4353 116.155C11.5835 116.384 11.6916 116.632 11.756 116.89C11.8567 117.328 11.7858 117.596 11.756 117.593C11.7261 117.59 11.7112 117.325 11.5695 116.923C11.4842 116.694 11.3678 116.474 11.2227 116.269C11.1339 116.147 11.0355 116.03 10.9281 115.919C10.8125 115.795 10.6969 115.717 10.6148 115.743C10.5328 115.769 10.5775 115.759 10.5775 115.815C10.5882 115.88 10.6096 115.944 10.6409 116.004C10.6995 116.141 10.768 116.274 10.846 116.403C10.976 116.625 11.1296 116.835 11.3047 117.031C11.4925 117.204 11.6669 117.389 11.8268 117.583Z" fill="#4F4F4F"/>
<path d="M11.6742 117.603C11.6444 117.603 11.6742 117.322 11.9651 116.949C12.1287 116.738 12.3362 116.556 12.5767 116.413C12.7193 116.325 12.8732 116.251 13.0354 116.194C13.1363 116.145 13.2499 116.119 13.3654 116.119C13.4809 116.119 13.5945 116.145 13.6954 116.194C13.7526 116.231 13.7967 116.281 13.8224 116.339C13.8482 116.397 13.8546 116.46 13.8409 116.521C13.8165 116.606 13.7802 116.688 13.7327 116.766C13.6465 116.902 13.5371 117.025 13.4083 117.132C13.1993 117.321 12.9387 117.461 12.6513 117.537C12.384 117.622 12.0893 117.612 11.8308 117.508C12.0822 117.476 12.3312 117.431 12.5767 117.374C12.8218 117.295 13.0435 117.169 13.2256 117.005C13.3317 116.908 13.4209 116.798 13.4903 116.678C13.5687 116.547 13.5985 116.42 13.5351 116.397C13.4745 116.378 13.4101 116.37 13.3459 116.374C13.2817 116.378 13.2192 116.393 13.1622 116.42C13.0152 116.47 12.8741 116.532 12.7408 116.606C12.5144 116.731 12.3107 116.885 12.1366 117.063C11.8234 117.374 11.719 117.619 11.6742 117.603Z" fill="#4F4F4F"/>
<path d="M10.5518 61.4583L12.8154 67.9199C13.3985 69.5785 14.4399 71.0852 15.8473 72.3061C17.3091 73.571 19.0283 75.0744 19.3117 75.3686L26.1884 94.9266L24.5849 121.005L36.4364 121.711C36.4364 121.711 41.0979 95.0802 40.3446 90.9621C39.5913 86.8439 34.8104 59.3535 34.8104 59.3535L33.5537 57.4415L10.5518 61.4583Z" fill="#4F4F4F"/>
<path d="M20.4272 76.068L19.2264 95.2828L3.46289 114.06L13.3416 119.966L34.6057 98.2113L34.8146 73.0382L20.4272 76.068Z" fill="#4F4F4F"/>
<path d="M19.3115 75.3685L19.3525 75.4568L19.4644 75.7281C19.5614 75.9797 19.6994 76.3294 19.8746 76.7772C20.2252 77.7022 20.7324 79.0291 21.3663 80.6764C22.6119 84.0036 24.3497 88.6317 26.3076 93.8741V93.9068C26.2405 95.0311 26.1733 96.1947 26.1025 97.404C25.7296 103.741 25.3566 109.477 25.1068 113.645C24.9688 115.71 24.8569 117.39 24.7823 118.547C24.7376 119.119 24.704 119.567 24.6816 119.884C24.6816 120.028 24.6593 120.142 24.6481 120.23C24.6521 120.27 24.6521 120.309 24.6481 120.348C24.6423 120.309 24.6423 120.269 24.6481 120.23C24.6481 120.142 24.6481 120.028 24.6481 119.881C24.6481 119.554 24.6816 119.116 24.7077 118.544C24.7674 117.367 24.8569 115.691 24.9651 113.618C25.2037 109.455 25.5319 103.715 25.8974 97.3779C25.9682 96.1816 26.0391 95.005 26.1062 93.8807V93.9166C24.1595 88.6807 22.4515 84.0494 21.2284 80.7254C20.6279 79.0683 20.1469 77.7381 19.8075 76.8034C19.6472 76.3523 19.5241 75.9993 19.4346 75.7444L19.3414 75.4698C19.3258 75.4375 19.3157 75.4034 19.3115 75.3685Z" fill="#FA9A6C"/>
<path d="M6.75922 23.1593C6.75922 23.1593 2.8659 28.4868 3.6192 32.9351C3.99213 35.1805 10.6302 57.9219 10.6302 57.9219L10.5519 65.7399L35.9442 61.1478L33.386 53.2154L25.8492 29.8269L16.9736 23.2705L6.75922 23.1593Z" fill="#FA9A6C"/>
<g opacity="0.3">
<path opacity="0.3" d="M9.57129 34.6412C9.57129 34.6412 21.8778 42.3284 26.1999 42.2369L29.8732 42.3284L29.3101 40.5798L9.57129 34.6412Z" fill="#4F4F4F"/>
</g>
<path d="M12.1481 35.7949C11.8541 36.011 11.5325 36.1963 11.1897 36.3473C10.3881 36.7467 9.54989 37.0867 8.6837 37.3638C7.81719 37.6463 6.92529 37.8649 6.0173 38.0175C5.64419 38.0934 5.26287 38.1339 4.87988 38.1384C5.24679 38.0386 5.62044 37.9589 5.99865 37.8998C6.88359 37.7167 7.75529 37.4875 8.60911 37.2134C9.46584 36.9351 10.3038 36.6143 11.1189 36.2525C11.4519 36.0832 11.7956 35.9305 12.1481 35.7949Z" fill="#4F4F4F"/>
<path d="M30.4808 45.0118C30.4808 45.0575 25.5881 46.1949 19.5206 47.5546C13.4531 48.9142 8.52683 49.983 8.51564 49.9373C8.50446 49.8915 13.3972 48.7508 19.4721 47.3879C25.5471 46.025 30.4659 44.966 30.4808 45.0118Z" fill="#4F4F4F"/>
<path d="M33.9298 55.5589C33.8537 55.5826 33.7749 55.599 33.6948 55.6079L33.0161 55.7223C32.4269 55.8204 31.5766 55.9674 30.5324 56.1766C28.444 56.5819 25.5763 57.2225 22.4139 57.9513C19.2515 58.6802 16.38 59.3339 14.3028 59.7718C13.2623 59.9941 12.4158 60.1608 11.8266 60.2686L11.1479 60.383C11.0701 60.4018 10.9899 60.4117 10.9092 60.4125C10.9836 60.3849 11.0611 60.364 11.1404 60.3504L11.8117 60.2033L14.2692 59.6574L22.3654 57.7716C25.5278 57.0427 28.403 56.4185 30.5063 56.0426C31.5542 55.8498 32.412 55.7158 33.0049 55.6406L33.6874 55.5589C33.7679 55.5508 33.8492 55.5508 33.9298 55.5589Z" fill="#4F4F4F"/>
<path d="M52.6999 26.1663C52.8012 25.517 53.0648 24.8954 53.4718 24.3458C54.158 23.3881 56.0189 22.2998 56.0487 21.548C56.0786 20.7963 57.037 21.1231 57.1489 22.0187C57.2197 22.5874 56.4366 24.336 56.4366 24.336C56.4366 24.336 58.0364 24.2706 58.8568 23.5091C59.6773 22.7475 62.8359 20.9303 63.3319 21.2572C63.9174 21.6297 63.0634 22.0285 62.739 22.3259C62.4966 22.5514 60.535 24.1627 60.535 24.1627C60.535 24.1627 65.0772 22.8129 65.7186 22.8554C66.4197 22.8979 65.9424 23.5548 65.6552 23.6398C65.4762 23.6954 66.2221 23.9666 65.8231 24.568C65.5508 24.9766 63.7944 25.8329 63.2797 25.9767L62.2169 26.2708L65.5732 25.7152C65.5732 25.7152 66.2892 26.0159 65.5732 26.4539C65.2637 26.65 55.8772 30.4838 55.1313 30.7224C53.8373 31.1375 51.9727 31.6702 51.9727 31.6702L50.3169 26.8853L52.6999 26.1663Z" fill="#FFBE9D"/>
<path d="M65.6731 23.6365C64.8605 24.1444 63.9938 24.5822 63.085 24.9439C61.5933 25.5976 60.3515 25.9898 60.3291 25.9244C60.57 25.7801 60.829 25.6606 61.1011 25.5681L62.9955 24.7576L64.8601 23.9438C65.1172 23.8151 65.3899 23.7121 65.6731 23.6365Z" fill="#4F4F4F"/>
<path d="M6.87441 33.2881C6.87441 33.2881 23.4658 42.0833 31.204 40.3347C38.9421 38.5861 54.5042 32.4252 54.5042 32.4252L50.9092 25.0648L30.2045 31.6016C30.2045 31.6016 15.3808 25.5191 12.1998 24.6693C7.51957 23.4143 1.16494 28.8202 6.87441 33.2881Z" fill="#FA9A6C"/>
<path d="M18.0473 26.7513C18.0473 26.7513 18.1256 26.7709 18.2711 26.8167C18.4165 26.8624 18.644 26.9311 18.9088 27.0324C19.4681 27.2285 20.2886 27.5324 21.3402 27.9377C23.4659 28.7581 26.4828 29.9674 30.2382 31.533H30.1785L50.8758 24.9962L50.969 24.9668L51.0063 25.0485L54.605 32.386L54.646 32.4742L54.5491 32.5102L51.5358 33.677C48.5077 34.8308 45.5355 35.9191 42.6453 36.9454C39.7552 37.9717 36.9433 38.8868 34.2173 39.6582C33.5348 39.8412 32.8635 40.0438 32.1886 40.1974L31.1854 40.4393C30.8499 40.5093 30.5099 40.5617 30.1673 40.5962C28.8493 40.7066 27.5202 40.656 26.2181 40.4458C23.8931 40.0697 21.6151 39.4972 19.4159 38.7365C16.2316 37.6488 13.13 36.3835 10.1301 34.9484C9.0673 34.4451 8.26552 34.0333 7.7024 33.7522L7.07962 33.4253C6.94164 33.3502 6.87451 33.3044 6.87451 33.3044C6.87451 33.3044 6.9491 33.3371 7.09081 33.409L7.72478 33.7195C8.28043 33.9908 9.10086 34.3895 10.1674 34.883C13.1772 36.2916 16.2834 37.5359 19.4681 38.609C21.6615 39.3586 23.9318 39.9222 26.2479 40.2922C27.5334 40.496 28.8449 40.5422 30.1449 40.4295C30.4803 40.3974 30.8129 40.3461 31.1406 40.2759L32.1363 40.034C32.8076 39.8771 33.4751 39.6745 34.1576 39.4915C36.8725 38.7169 39.6769 37.7788 42.567 36.7722C45.4572 35.7655 48.4256 34.6739 51.4501 33.5038L54.4595 32.3533L54.4036 32.4775C53.173 29.9478 51.9684 27.4867 50.8161 25.1171L50.9466 25.1661L30.2307 31.6539H30.2009H30.171C26.4418 30.0753 23.4025 28.8365 21.3067 28.0064C20.2625 27.5913 19.442 27.2775 18.8938 27.0716L18.2449 26.8363C18.1182 26.7971 18.0473 26.7513 18.0473 26.7513Z" fill="#4F4F4F"/>
<path d="M15.1053 25.944C14.9434 25.8992 14.7862 25.8423 14.6354 25.7741C14.3408 25.6597 13.8895 25.4897 13.3637 25.3132C12.7316 25.1028 12.0751 24.9537 11.4059 24.8687C10.5894 24.7655 9.75677 24.8259 8.97068 25.0452C8.16973 25.2607 7.46983 25.6976 6.97554 26.2905C6.35089 26.8944 5.87147 27.6025 5.56588 28.3724C5.3384 28.9346 5.28246 29.2843 5.25636 29.281C5.25141 29.1967 5.25893 29.1121 5.27873 29.0294C5.32321 28.7961 5.3855 28.5657 5.46519 28.3397C5.74487 27.5461 6.21681 26.8147 6.84874 26.1957C7.35969 25.5714 8.091 25.1119 8.92966 24.8883C9.74341 24.6606 10.6063 24.6013 11.4506 24.7151C12.133 24.8088 12.8003 24.9734 13.4383 25.2054C13.8661 25.3568 14.2843 25.5281 14.6913 25.7185C14.8389 25.7793 14.9778 25.855 15.1053 25.944Z" fill="#4F4F4F"/>
<path d="M22.1163 28.5881C22.0858 28.7178 22.0383 28.8439 21.9746 28.964C21.8776 29.2026 21.7247 29.5457 21.5308 29.9674C21.1579 30.8106 20.5761 31.9644 19.9049 33.2358C19.2336 34.5072 18.581 35.6119 18.085 36.4094C17.8389 36.8114 17.6375 37.1317 17.4883 37.3507C17.4224 37.4683 17.3397 37.5781 17.2422 37.6775C17.2862 37.5511 17.3463 37.4294 17.4212 37.3147C17.5666 37.0532 17.7494 36.7329 17.9657 36.3342C18.4244 35.5204 19.0583 34.396 19.7296 33.141C20.4009 31.8859 20.9863 30.7453 21.404 29.9151L21.9037 28.9346C21.9591 28.8123 22.0304 28.696 22.1163 28.5881Z" fill="#4F4F4F"/>
<path d="M31.5623 40.0373C31.5064 40.0373 31.1633 38.2233 30.7941 35.9681C30.4249 33.713 30.1788 31.8827 30.2198 31.8761C30.2608 31.8696 30.6151 33.6901 30.9656 35.9453C31.3162 38.2005 31.6145 40.0308 31.5623 40.0373Z" fill="#4F4F4F"/>
<path d="M44.5177 36.1741C44.437 36.0878 44.3705 35.9921 44.3201 35.8897C44.2008 35.7002 44.0367 35.4256 43.8353 35.0824C43.4363 34.3993 42.8993 33.4482 42.3138 32.3991C41.7283 31.3499 41.195 30.389 40.8221 29.6928C40.6393 29.3431 40.4939 29.0588 40.3969 28.8627C40.3367 28.7591 40.2916 28.6493 40.2627 28.5358C40.344 28.6223 40.4117 28.718 40.4641 28.8202C40.5797 29.0065 40.7438 29.2843 40.9451 29.6242C41.3442 30.3073 41.8849 31.2584 42.4704 32.3108C43.0559 33.3633 43.5892 34.3242 43.9434 35.0203C44.1262 35.3668 44.2716 35.6511 44.3686 35.8472C44.4373 35.9488 44.4876 36.059 44.5177 36.1741Z" fill="#4F4F4F"/>
<g clip-path="url(#clip0)">
<path d="M43.2998 105.486L52.4877 123.271H56.9233L57.5599 121.913L58.3462 123.271H61.2568L60.9198 112.888L60.7768 106.757L43.2998 105.486Z" fill="#F8834B"/>
<path opacity="0.3" d="M43.2998 105.486L52.4877 123.271H56.9233L57.5599 121.913L58.3462 123.271H61.2568L60.9198 112.888L60.7768 106.757L43.2998 105.486Z" fill="#4F4F4F"/>
<path d="M83.52 107.392L92.4798 123.271H96.9154L97.552 122.029L98.3418 123.271H101.252L100.912 113.768L100.769 108.153L83.52 107.392Z" fill="#F8834B"/>
<path opacity="0.3" d="M83.52 107.392L92.4798 123.271H96.9154L97.552 122.029L98.3418 123.271H101.252L100.912 113.768L100.769 108.153L83.52 107.392Z" fill="#4F4F4F"/>
<path d="M134.497 60.5933L134.579 60.6202L134.817 60.7126C135.118 60.8429 135.398 61.0064 135.651 61.199C136.059 61.5024 136.404 61.8646 136.672 62.27C137.025 62.8085 137.233 63.4107 137.278 64.0303C137.33 64.787 137.111 65.5389 136.652 66.1814C136.13 66.9215 135.358 67.5004 134.443 67.8372C133.941 68.0327 133.397 68.1337 132.848 68.1337C132.298 68.1337 131.755 68.0327 131.253 67.8372C130.714 67.6145 130.292 67.2211 130.072 66.7363C129.95 66.4887 129.901 66.2183 129.929 65.9498C129.958 65.6813 130.063 65.4234 130.235 65.1998C130.416 64.9875 130.647 64.8121 130.913 64.6859C131.178 64.5596 131.472 64.4856 131.774 64.4689C132.367 64.449 132.948 64.6175 133.411 64.9432C133.84 65.2465 134.183 65.6335 134.411 66.0733C134.639 66.513 134.747 66.9935 134.725 67.4762C134.692 68.3484 134.334 69.187 133.704 69.863C133.424 70.1696 133.088 70.4337 132.71 70.6447C132.36 70.8348 131.984 70.9843 131.59 71.0892C130.912 71.2612 130.2 71.3079 129.5 71.2265C128.973 71.1688 128.458 71.0453 127.971 70.8595C127.664 70.7434 127.371 70.6005 127.097 70.4329L126.889 70.2956C126.864 70.2809 126.841 70.2639 126.821 70.2449C127.194 70.461 127.588 70.6477 127.999 70.8028C128.482 70.9764 128.991 71.0899 129.51 71.14C130.196 71.2098 130.891 71.157 131.553 70.9848C131.933 70.8786 132.297 70.7303 132.635 70.5433C132.997 70.3371 133.318 70.0801 133.585 69.7825C134.183 69.1247 134.521 68.3142 134.548 67.4732C134.565 67.0138 134.46 66.5571 134.242 66.139C134.024 65.7208 133.699 65.3524 133.292 65.0626C132.862 64.76 132.322 64.6042 131.77 64.624C131.491 64.6368 131.219 64.7029 130.972 64.8179C130.725 64.9328 130.509 65.0937 130.341 65.2893C130.186 65.4921 130.092 65.7256 130.067 65.9685C130.042 66.2114 130.087 66.4559 130.198 66.6796C130.41 67.1307 130.81 67.4937 131.318 67.694C131.8 67.8817 132.322 67.9787 132.85 67.9787C133.377 67.9787 133.899 67.8817 134.381 67.694C135.269 67.3708 136.019 66.8141 136.53 66.1008C136.981 65.4788 137.199 64.7485 137.152 64.0124C137.104 63.4185 136.905 62.8416 136.57 62.3237C136.318 61.9232 135.991 61.5623 135.604 61.2556C135.267 60.9964 134.895 60.774 134.497 60.5933Z" fill="#F8834B"/>
<path d="M130.106 76.6863C131.44 103.075 106.199 116.242 77.6273 116.242C49.0561 116.242 25.9043 99.0954 25.9043 77.9454C25.9043 56.7954 49.0527 39.6492 77.6273 39.6492C106.202 39.6492 129.051 55.5572 130.106 76.6863Z" fill="#FA9A6C"/>
<path opacity="0.3" d="M74.0225 49.1069C74.0225 49.1069 77.4539 48.1522 80.664 51.3326C83.8741 54.513 88.3404 59.937 88.3404 59.937C87.9387 61.7002 86.7643 63.0756 84.4869 63.8931L74.0225 49.1069Z" fill="#4F4F4F"/>
<path d="M43.6059 105.382C53.3898 105.382 61.3212 100.055 61.3212 93.4834C61.3212 86.9122 53.3898 81.5852 43.6059 81.5852C33.822 81.5852 25.8906 86.9122 25.8906 93.4834C25.8906 100.055 33.822 105.382 43.6059 105.382Z" fill="#F8834B"/>
<path d="M60.1299 61.6763C60.1299 61.6763 70.499 47.5584 75.2648 49.089C80.0307 50.6195 84.4833 63.8871 84.4833 63.8871" fill="#F8834B"/>
<path d="M48.3891 58.4452L47.9023 54.6174C47.9023 54.6174 41.4003 52.2306 35.5792 51.07C29.758 49.9094 28.6108 51.07 28.6108 51.07L37.8191 62.3804L48.3891 58.4452Z" fill="#F8834B"/>
<path opacity="0.3" d="M62.2466 44.9002L65.6916 46.6902C65.6916 46.6902 82.372 42.8117 95.1922 46.6902L90.491 43.1846C90.491 43.1846 74.951 40.2459 62.2466 44.9002Z" fill="#4F4F4F"/>
<path opacity="0.3" d="M43.6059 105.382C53.3898 105.382 61.3212 100.055 61.3212 93.4834C61.3212 86.9122 53.3898 81.5852 43.6059 81.5852C33.822 81.5852 25.8906 86.9122 25.8906 93.4834C25.8906 100.055 33.822 105.382 43.6059 105.382Z" fill="#4F4F4F"/>
<path d="M39.1056 105.382C48.271 105.382 55.7009 100.055 55.7009 93.4834C55.7009 86.9122 48.271 81.5852 39.1056 81.5852C29.9402 81.5852 22.5103 86.9122 22.5103 93.4834C22.5103 100.055 29.9402 105.382 39.1056 105.382Z" fill="#F8834B"/>
<path opacity="0.3" d="M33.3691 87.9013H32.0926C31.4646 87.9013 30.9556 88.3474 30.9556 88.8978V98.069C30.9556 98.6194 31.4646 99.0655 32.0926 99.0655H33.3691C33.9971 99.0655 34.5061 98.6194 34.5061 98.069V88.8978C34.5061 88.3474 33.9971 87.9013 33.3691 87.9013Z" fill="#4F4F4F"/>
<path opacity="0.3" d="M42.9048 87.9013H41.6282C41.0003 87.9013 40.4912 88.3474 40.4912 88.8978V98.069C40.4912 98.6194 41.0003 99.0655 41.6282 99.0655H42.9048C43.5327 99.0655 44.0418 98.6194 44.0418 98.069V88.8978C44.0418 88.3474 43.5327 87.9013 42.9048 87.9013Z" fill="#4F4F4F"/>
<path opacity="0.3" d="M47.3814 58.8152C48.8759 58.0753 49.6759 56.9714 49.1142 55.1514C49.1142 55.1514 41.4003 52.2366 35.5792 51.07C29.758 49.9035 28.6108 51.07 28.6108 51.07L37.8191 62.3805L47.3814 58.8152Z" fill="#4F4F4F"/>
<path d="M47.9027 59.1255C47.9027 59.1255 47.4703 58.8659 46.7418 58.4392C43.307 56.4284 33.2715 50.6822 30.7422 50.6195C27.2496 50.53 27.2427 53.1704 27.2496 55.2111C27.2496 56.6611 28.6112 69.2335 28.6112 69.2335" fill="#F8834B"/>
<path d="M84.4863 63.8871C84.4737 63.8641 84.4635 63.8401 84.4557 63.8155C84.4318 63.7469 84.3978 63.6634 84.3569 63.556C84.265 63.3173 84.1357 62.9831 83.9757 62.5565C83.6352 61.6913 83.1382 60.4412 82.4574 58.9196C81.6707 57.1336 80.7613 55.391 79.7341 53.7015C79.1308 52.7057 78.4255 51.76 77.6269 50.8761C77.2092 50.4101 76.724 49.9939 76.1835 49.6379C75.6579 49.2472 74.9827 49.0457 74.2942 49.0741C73.6055 49.1507 72.9431 49.354 72.3504 49.6708C71.7632 49.9681 71.2043 50.3063 70.679 50.6822C69.6838 51.3992 68.7455 52.1747 67.8705 53.0033C66.3865 54.4072 64.9844 55.8759 63.6698 57.404C62.5396 58.7048 61.6647 59.7908 61.0656 60.5337C60.7728 60.9006 60.5447 61.193 60.3847 61.3989L60.2043 61.6227C60.1855 61.6493 60.1639 61.6742 60.1396 61.6972C60.1396 61.6972 60.1396 61.6674 60.1907 61.6137L60.3541 61.381C60.5005 61.1781 60.7218 60.8798 61.0111 60.4859C61.5932 59.7281 62.4545 58.6362 63.5745 57.3264C64.8773 55.7848 66.2728 54.3048 67.7548 52.8929C68.6329 52.0574 69.5747 51.2749 70.5734 50.5509C71.1085 50.1694 71.6777 49.8262 72.2755 49.5246C72.8829 49.1931 73.5643 48.9795 74.2738 48.898C74.6405 48.8673 75.0104 48.9134 75.3529 49.0323C75.6839 49.1529 75.9971 49.3082 76.2856 49.4947C76.8362 49.8601 77.3305 50.2863 77.7562 50.7627C78.5616 51.6537 79.2705 52.6086 79.8736 53.6149C80.8962 55.3119 81.7956 57.0637 82.5663 58.8599C83.2472 60.3905 83.7169 61.6465 84.0335 62.5207C84.1901 62.9563 84.3093 63.2964 84.374 63.5291C84.408 63.6365 84.4352 63.723 84.4557 63.7917C84.4693 63.8226 84.4795 63.8545 84.4863 63.8871Z" fill="#4F4F4F"/>
<path d="M90.4915 43.1847L90.5834 43.2294L90.8217 43.3995L91.7272 44.0618L95.0361 46.5232L95.254 46.6843L94.9748 46.6187C92.9719 46.1272 90.9371 45.7416 88.8814 45.4641C86.3713 45.1242 83.8366 44.9427 81.2969 44.9211C76.0685 44.8726 70.8596 45.4866 65.8317 46.744H65.8079H65.7875L63.1696 45.3984L62.4888 45.0344L62.3118 44.939L62.2573 44.9032C62.2573 44.9032 62.2778 44.9032 62.322 44.927L62.5024 45.0106L63.2071 45.3537L65.8521 46.6604H65.8113C67.9782 46.0984 70.1841 45.6589 72.4154 45.3447C73.7362 45.1538 75.1591 45.0165 76.6468 44.9032C78.1344 44.7898 79.7105 44.745 81.3105 44.7719C83.8539 44.7901 86.3924 44.9726 88.9052 45.3179C90.9661 45.6041 93.0046 46.0027 95.0089 46.5113L94.9476 46.6067C93.5859 45.5565 92.4591 44.7062 91.6762 44.1095L90.7945 43.4233L90.5664 43.2413C90.512 43.2085 90.4881 43.1876 90.4915 43.1847Z" fill="#4F4F4F"/>
<g opacity="0.2">
<path opacity="0.2" d="M71.2993 82.3937C71.221 82.8204 70.7206 83.1396 70.0125 83.3544C69.1541 83.5884 68.2595 83.7042 67.3606 83.6975C66.4611 83.7184 65.5632 83.6178 64.6986 83.3992C63.9837 83.1993 63.4731 82.889 63.3846 82.4653C63.2961 82.0417 63.6637 81.5852 64.3752 81.2212C65.2872 80.8111 66.2956 80.5925 67.3207 80.5826C68.3457 80.5728 69.3593 80.772 70.2814 81.1645C70.9997 81.5196 71.3776 81.9731 71.2993 82.3937Z" fill="white"/>
</g>
<path d="M49.0016 83.9332C48.9688 83.9178 48.9369 83.9009 48.9062 83.8825L48.6305 83.7214L48.188 83.4588C48.0075 83.3634 47.7897 83.2619 47.5514 83.1456C46.1771 82.5117 44.6974 82.0717 43.1668 81.8418C42.1116 81.6831 41.0441 81.5953 39.9737 81.5792C38.7452 81.5711 37.518 81.6499 36.304 81.8149C33.5103 82.1754 30.8455 83.0841 28.5084 84.4732C27.9103 84.8459 27.3417 85.2536 26.8063 85.6935C26.2827 86.1254 25.7968 86.5911 25.3528 87.0868C24.5209 88.0251 23.851 89.0655 23.3647 90.1747C22.5851 92.0774 22.4341 94.1343 22.929 96.1089C23.1295 96.8616 23.4288 97.5914 23.8209 98.2838C24.1321 98.8012 24.4967 99.2926 24.9102 99.7517L25.38 100.238L25.7613 100.569L25.9962 100.772C26.0233 100.795 26.0484 100.82 26.071 100.847C26.071 100.847 26.0404 100.829 25.9825 100.784L25.7374 100.59L25.3426 100.274L24.8558 99.7905C24.4285 99.3366 24.0534 98.847 23.7358 98.3286C23.3286 97.6322 23.0167 96.8962 22.8064 96.1357C22.2895 94.1398 22.4287 92.0563 23.2081 90.127C23.4456 89.5769 23.7301 89.0433 24.0592 88.5308C24.4031 87.994 24.7923 87.4804 25.2234 86.9943C25.6662 86.4968 26.151 86.029 26.6736 85.595C27.2186 85.1473 27.7988 84.7336 28.4097 84.3569C30.7661 82.9539 33.4568 82.0406 36.2768 81.6866C37.5012 81.524 38.7388 81.4491 39.9771 81.4629C41.0548 81.486 42.1289 81.5797 43.1906 81.7433C44.7295 81.9868 46.2135 82.4462 47.5854 83.1038C47.8237 83.2261 48.0382 83.3306 48.2152 83.432L48.6509 83.7095L48.9165 83.8825C48.9743 83.9094 49.005 83.9302 49.0016 83.9332Z" fill="#4F4F4F"/>
<path d="M34.4149 88.9484C34.4431 89.1053 34.4556 89.264 34.4523 89.4228C34.4693 89.7569 34.4898 90.1925 34.517 90.7176C34.568 91.8125 34.6702 93.3222 34.7178 94.9959C34.7178 95.4136 34.7178 95.8224 34.7178 96.2192C34.7252 96.6029 34.6922 96.9864 34.6191 97.3648C34.5712 97.6936 34.4376 98.0083 34.2286 98.2846C34.0196 98.5609 33.7409 98.7913 33.414 98.958C33.1853 99.0599 32.9301 99.1075 32.6738 99.096C32.4176 99.0845 32.1693 99.0143 31.9536 98.8924C31.8381 98.8254 31.7386 98.7393 31.6609 98.6388C31.6332 98.6044 31.6125 98.566 31.5996 98.5254C31.7088 98.6494 31.8412 98.7563 31.9911 98.8417C32.1979 98.945 32.4312 99.0008 32.6693 99.0039C32.9074 99.007 33.1425 98.9574 33.3528 98.8596C33.6561 98.6957 33.913 98.4736 34.104 98.21C34.2951 97.9464 34.4154 97.6483 34.4557 97.338C34.5212 96.9679 34.5497 96.5936 34.5408 96.2192C34.5408 95.8253 34.5408 95.4166 34.5408 94.9989C34.4932 93.3311 34.4115 91.8185 34.391 90.7236C34.391 90.1746 34.391 89.7301 34.391 89.4228C34.3816 89.2643 34.3896 89.1055 34.4149 88.9484Z" fill="#4F4F4F"/>
<path d="M43.8138 88.9484C43.8423 89.1053 43.856 89.2639 43.8546 89.4228C43.8546 89.7569 43.8921 90.1925 43.9159 90.7176C43.967 91.8126 44.0691 93.3222 44.1168 94.9959C44.1168 95.4136 44.1168 95.8224 44.1168 96.2192C44.1235 96.6028 44.0917 96.9862 44.0214 97.3648C43.973 97.6935 43.8392 98.008 43.6303 98.2842C43.4214 98.5604 43.1429 98.7909 42.8164 98.958C42.587 99.0599 42.3313 99.1075 42.0745 99.096C41.8177 99.0845 41.5688 99.0143 41.3526 98.8924C41.237 98.8264 41.1385 98.7401 41.0632 98.6388C41.0338 98.6048 41.0119 98.5664 40.9985 98.5254C41.109 98.6485 41.2411 98.7552 41.39 98.8417C41.5971 98.9444 41.8303 98.9999 42.0682 99.0031C42.3062 99.0062 42.5412 98.9569 42.7517 98.8596C43.0544 98.6954 43.3106 98.4731 43.5011 98.2096C43.6915 97.946 43.8113 97.648 43.8512 97.338C43.9184 96.9681 43.9469 96.5936 43.9363 96.2192C43.9363 95.8254 43.9363 95.4166 43.9193 94.9989C43.8717 93.3312 43.79 91.8185 43.7695 90.7236C43.7695 90.1746 43.7695 89.7301 43.7695 89.4228C43.7691 89.2638 43.7839 89.1052 43.8138 88.9484Z" fill="#4F4F4F"/>
<path d="M55.5002 96.076C55.4854 96.1468 55.4614 96.2159 55.4287 96.2819C55.3708 96.4102 55.3062 96.613 55.1768 96.8547C54.8365 97.5511 54.4192 98.2166 53.9309 98.8417C53.208 99.7701 52.3612 100.619 51.4084 101.372C50.8458 101.813 50.2523 102.224 49.6314 102.601C48.9621 103.005 48.2614 103.368 47.5344 103.687C46.1325 104.316 44.6456 104.787 43.109 105.089C41.8546 105.322 40.5751 105.435 39.2929 105.426C38.2002 105.426 37.3219 105.367 36.7126 105.328L36.0317 105.28C35.9492 105.279 35.867 105.27 35.7866 105.253C35.8681 105.246 35.9502 105.246 36.0317 105.253L36.733 105.271C37.3423 105.292 38.224 105.328 39.3099 105.319C40.5807 105.314 41.8473 105.191 43.0886 104.952C44.6057 104.645 46.0738 104.175 47.4595 103.553C48.1782 103.235 48.8719 102.877 49.5361 102.479C50.152 102.105 50.742 101.699 51.3028 101.264C52.2463 100.522 53.0903 99.6884 53.8185 98.7791C54.3142 98.1659 54.7438 97.5137 55.1019 96.8308C55.2415 96.5922 55.3164 96.3952 55.3844 96.2699C55.4174 96.2028 55.4561 96.138 55.5002 96.076Z" fill="#4F4F4F"/>
<path d="M34.2004 88.6143C34.1294 88.5106 34.0509 88.4109 33.9655 88.3159C33.8406 88.198 33.6902 88.103 33.5231 88.0364C33.356 87.9698 33.1754 87.933 32.9919 87.9281C32.7206 87.9261 32.452 87.9751 32.2041 88.0719C31.9563 88.1686 31.7351 88.3109 31.5553 88.489C31.3438 88.6999 31.1942 88.9528 31.1196 89.2259C31.0444 89.5246 31.0112 89.8302 31.0209 90.1359C31.0209 91.4188 31.0209 92.5823 31.0209 93.4177C31.0209 93.8145 31.0209 94.1487 31.0209 94.4172C31.0277 94.5392 31.0174 94.6614 30.9902 94.7812C30.9643 94.6612 30.9518 94.5393 30.9528 94.4172C30.9528 94.1487 30.929 93.8205 30.9119 93.4207C30.8881 92.5764 30.8609 91.4158 30.8473 90.1389C30.8414 89.8198 30.8792 89.5013 30.9596 89.1901C31.041 88.8938 31.2074 88.6207 31.443 88.3965C31.6394 88.206 31.8811 88.0557 32.1511 87.9562C32.4212 87.8567 32.7128 87.8104 33.0055 87.8207C33.2031 87.8296 33.3963 87.8752 33.5724 87.9544C33.7484 88.0336 33.9033 88.1446 34.0268 88.2801C34.0932 88.3519 34.146 88.4325 34.1834 88.5188C34.197 88.5785 34.2072 88.6143 34.2004 88.6143Z" fill="white"/>
<path d="M40.4364 89.3035C40.4839 89.3035 40.5247 90.8758 40.5247 92.8151C40.5247 94.7544 40.4839 96.3356 40.4364 96.3356C40.3889 96.3356 40.3481 94.7633 40.3481 92.8211C40.3481 90.8788 40.3855 89.3035 40.4364 89.3035Z" fill="white"/>
<path d="M37.5809 82.5309C37.5108 82.5378 37.44 82.5378 37.3698 82.5309C37.2337 82.5309 37.0294 82.5309 36.7707 82.5309C36.0385 82.5534 35.3091 82.6232 34.5886 82.7398C32.196 83.1098 29.9517 84.0115 28.0702 85.3586C26.1886 86.7057 24.7327 88.4533 23.8417 90.4342C23.5644 91.0286 23.3368 91.6398 23.1608 92.2631C23.0927 92.4839 23.0621 92.6599 23.0281 92.7763C23.0153 92.8361 22.9971 92.895 22.9736 92.9523C22.9713 92.8911 22.9781 92.8299 22.994 92.7703C23.0144 92.651 23.0383 92.4719 23.0961 92.2512C23.2429 91.6172 23.4513 90.9953 23.7191 90.3925C24.5948 88.3827 26.0576 86.61 27.9611 85.2517C29.8645 83.8934 32.1418 82.9974 34.5648 82.6533C35.2925 82.5457 36.0293 82.4928 36.7673 82.4951C37.0294 82.4951 37.2303 82.4951 37.3664 82.513C37.4385 82.511 37.5106 82.517 37.5809 82.5309Z" fill="white"/>
<path d="M28.6782 67.3331C28.6653 67.3916 28.6447 67.4487 28.617 67.5031C28.5591 67.6254 28.491 67.7806 28.4059 67.9745C28.3208 68.1684 28.1983 68.428 28.0655 68.7234C27.9327 69.0187 27.7966 69.3469 27.6672 69.7258C27.5379 70.1047 27.3779 70.5075 27.2417 70.955C27.1055 71.4026 26.966 71.8769 26.8264 72.3841C26.2576 74.583 25.9901 76.8336 26.0298 79.088C26.0468 79.6072 26.057 80.1024 26.1013 80.5619C26.1455 81.0213 26.1796 81.4569 26.2272 81.8418C26.2749 82.2267 26.3362 82.5847 26.3838 82.895C26.4315 83.2053 26.4792 83.4678 26.5268 83.6856C26.5745 83.9034 26.5949 84.0556 26.6221 84.1868C26.636 84.2447 26.6428 84.3037 26.6426 84.3629C26.6145 84.3087 26.5951 84.2515 26.5847 84.1928L26.4587 83.6975C26.4009 83.4827 26.3396 83.2172 26.2851 82.9069C26.2306 82.5966 26.1524 82.2476 26.1047 81.8537C26.057 81.4599 25.989 81.0333 25.9549 80.5708C25.9209 80.1084 25.8868 79.6131 25.8664 79.0791C25.8073 76.8119 26.0761 74.5473 26.6664 72.3394C26.8128 71.8322 26.9421 71.3488 27.0987 70.9073C27.2553 70.4657 27.4017 70.051 27.5481 69.6781C27.6944 69.3052 27.8442 68.971 27.9736 68.6786C28.1029 68.3862 28.2221 68.1386 28.314 67.9387L28.5557 67.4763C28.5892 67.424 28.6304 67.3759 28.6782 67.3331Z" fill="white"/>
<path d="M29.1859 51.8189C29.1859 51.8189 29.0464 51.98 28.8455 52.2933C28.5716 52.7397 28.383 53.2225 28.2872 53.7224C28.1467 54.4699 28.0772 55.2263 28.0796 55.9839C28.0523 56.8401 28.0455 57.7739 28.0796 58.7704C28.134 60.7485 28.3179 62.5326 28.4881 63.8215C28.5766 64.448 28.6515 64.9612 28.7059 65.3461C28.7298 65.5102 28.7502 65.6444 28.7638 65.7608C28.7728 65.8092 28.7728 65.8585 28.7638 65.907C28.7418 65.8622 28.7269 65.815 28.7196 65.7667C28.6957 65.6534 28.6651 65.5191 28.6276 65.355C28.5527 64.997 28.454 64.4779 28.3519 63.8364C28.0933 62.1544 27.9399 60.4612 27.8923 58.7645C27.8651 57.774 27.8753 56.8282 27.9128 55.9689C27.9194 55.2052 28.0026 54.4435 28.1613 53.6925C28.2737 53.1832 28.4881 52.6954 28.7944 52.2515C28.8777 52.1316 28.9734 52.0188 29.0804 51.9144C29.1417 51.8487 29.1825 51.8129 29.1859 51.8189Z" fill="white"/>
<path d="M62.3283 42.4686C62.2596 42.503 62.1864 42.5301 62.1104 42.5492L61.4806 42.7431L59.1453 43.4472C56.5738 44.2002 54.049 45.0706 51.5813 46.0548C49.1143 47.0431 46.7862 48.2786 44.6436 49.7364C43.83 50.3003 43.2002 50.7956 42.7815 51.1476C42.5636 51.3177 42.407 51.4609 42.2947 51.5534C42.2425 51.6046 42.183 51.6497 42.1177 51.6876C42.1634 51.6311 42.2147 51.5782 42.2709 51.5295C42.3764 51.434 42.5228 51.2819 42.7304 51.1029C43.3108 50.5891 43.9234 50.104 44.5653 49.6499C46.6933 48.1604 49.0222 46.9059 51.4996 45.9146C53.9711 44.9245 56.5084 44.0657 59.0977 43.3428C60.0883 43.0445 60.8951 42.8356 61.45 42.6864L62.0934 42.5194C62.1699 42.4969 62.2485 42.4799 62.3283 42.4686Z" fill="white"/>
<path d="M74.1725 49.8676C74.1268 49.9089 74.0754 49.945 74.0193 49.975L73.5666 50.2555C73.1683 50.4941 72.6032 50.8522 71.919 51.3027C71.2347 51.7532 70.4347 52.32 69.5735 52.9734C68.7122 53.6268 67.8067 54.3786 66.8944 55.2051C65.9821 56.0315 65.1685 56.8639 64.4502 57.6336C63.7319 58.4034 63.126 59.1254 62.6358 59.7489C62.1456 60.3725 61.7575 60.8767 61.4988 61.2407L61.1958 61.6494C61.1655 61.7001 61.1265 61.7464 61.0801 61.7867C61.1016 61.7332 61.1302 61.6821 61.1652 61.6345L61.4409 61.2108C61.6792 60.8439 62.0503 60.3158 62.5303 59.6952C63.0102 59.0747 63.6162 58.3407 64.3208 57.5531C65.0255 56.7654 65.8561 55.939 66.7684 55.1066C67.6808 54.2742 68.6033 53.5284 69.468 52.875C70.3326 52.2216 71.1428 51.6816 71.8509 51.2251C72.5589 50.7686 73.124 50.4375 73.553 50.2137L74.0227 49.9571C74.0692 49.923 74.1194 49.8931 74.1725 49.8676Z" fill="white"/>
<path d="M126.637 70.6238C126.803 70.8602 126.938 71.1125 127.038 71.3756C127.601 72.621 127.978 73.9245 128.162 75.2542C128.217 75.5278 128.235 75.8062 128.216 76.0836C128.136 75.8161 128.076 75.5439 128.039 75.2691C127.941 74.7649 127.787 74.0757 127.569 73.3179C127.352 72.5601 127.11 71.8918 126.923 71.4085C126.805 71.1536 126.709 70.8913 126.637 70.6238Z" fill="white"/>
<path d="M118.497 104.824C118.497 104.824 118.443 104.865 118.331 104.934L117.817 105.247L117 105.752L116.475 106.071L115.866 106.42C113.445 107.819 110.924 109.081 108.319 110.197C107.495 110.549 106.617 110.898 105.708 111.265L104.299 111.79L103.57 112.059L102.821 112.309L101.282 112.825L99.6757 113.312C99.1344 113.482 98.5761 113.631 98.0111 113.783C97.446 113.935 96.8775 114.102 96.2885 114.234C93.8508 114.837 91.3782 115.326 88.8811 115.699C86.1933 116.109 83.4778 116.365 80.7519 116.465C78.026 116.569 75.2951 116.494 72.5819 116.242L71.6015 116.155C71.2611 116.128 70.9547 116.08 70.6313 116.042L68.7249 115.803L66.8697 115.505L65.9574 115.352L65.0655 115.173C60.8597 114.365 56.755 113.196 52.8104 111.683C50.1478 110.673 47.5858 109.47 45.1511 108.088C44.2762 107.616 43.6498 107.193 43.2073 106.909L42.7103 106.593C42.5979 106.521 42.5435 106.48 42.5435 106.48C42.5435 106.48 42.6081 106.512 42.7205 106.581L43.2277 106.879C43.677 107.142 44.3102 107.568 45.1885 108.028C47.6272 109.391 50.1875 110.579 52.8445 111.581C56.7851 113.077 60.8827 114.233 65.0791 115.033L65.971 115.212L66.8799 115.361L68.7318 115.66L70.6347 115.895C70.9547 115.931 71.2747 115.979 71.6015 116.009L72.5785 116.092C75.285 116.343 78.009 116.416 80.7281 116.313C83.4469 116.213 86.1555 115.959 88.8368 115.552C91.3357 115.183 93.8106 114.698 96.2511 114.099C96.8366 113.968 97.4051 113.801 97.9532 113.652C98.5012 113.503 99.0766 113.353 99.6178 113.186L101.221 112.703L102.756 112.193L103.505 111.942L104.234 111.677L105.643 111.158C106.556 110.797 107.43 110.451 108.254 110.101C110.86 108.995 113.386 107.749 115.818 106.372L116.431 106.032L116.959 105.716L117.786 105.226L118.297 104.928L118.497 104.824Z" fill="#4F4F4F"/>
<path d="M103.829 108.019L110.671 123.351H115.349L116.367 122.018L117.565 123.351H119.219L119.832 99.0506L103.829 108.019Z" fill="#F8834B"/>
<path d="M60.8481 110.176L66.6352 123.351H71.9526L73.0351 121.827L74.0836 123.351H75.4044C75.4044 123.351 75.9831 108.487 75.4044 108.064C74.8257 107.64 60.8481 110.176 60.8481 110.176Z" fill="#F8834B"/>
<path d="M128.404 80.7289C128.407 80.7587 128.407 80.7887 128.404 80.8184C128.404 80.8841 128.404 80.9676 128.38 81.072C128.356 81.3077 128.322 81.6389 128.274 82.0566C128.25 82.2714 128.223 82.5101 128.196 82.7667C128.169 83.0232 128.097 83.3067 128.043 83.605C127.92 84.2017 127.821 84.8969 127.6 85.6398C127.498 86.0157 127.396 86.4065 127.284 86.8123C127.171 87.218 127.011 87.6327 126.868 88.0683C126.596 88.9395 126.187 89.8375 125.796 90.7923C124.854 92.8356 123.715 94.8049 122.392 96.6787C121.04 98.5341 119.509 100.285 117.817 101.912C117.01 102.64 116.258 103.347 115.478 103.938C115.093 104.236 114.739 104.534 114.368 104.809L113.296 105.564C112.615 106.062 111.958 106.438 111.396 106.793C111.11 106.966 110.848 107.136 110.6 107.276L109.902 107.649L108.935 108.156L108.683 108.284C108.625 108.314 108.595 108.326 108.591 108.323L108.673 108.273L108.918 108.129L109.864 107.598L110.545 107.216C110.79 107.07 111.049 106.9 111.332 106.721C111.89 106.36 112.55 105.978 113.211 105.477L114.273 104.719C114.641 104.451 114.991 104.143 115.372 103.842C116.145 103.245 116.887 102.541 117.691 101.816C119.371 100.19 120.893 98.4434 122.242 96.5952C123.561 94.7296 124.7 92.7706 125.646 90.7386C126.048 89.7898 126.456 88.8977 126.732 88.0295C126.875 87.5999 127.042 87.1882 127.158 86.7824C127.273 86.3767 127.376 85.9888 127.481 85.6159C127.709 84.876 127.821 84.1898 127.947 83.5931C128.005 83.2947 128.073 83.0143 128.114 82.7577C128.155 82.5011 128.182 82.2624 128.21 82.0506C128.271 81.6329 128.315 81.3047 128.349 81.072L128.37 80.8214C128.376 80.7894 128.387 80.7583 128.404 80.7289Z" fill="white"/>
<g opacity="0.2">
<path opacity="0.2" d="M121.003 67.7955C119.448 64.4211 116.064 61.2318 112.152 59.8445C111.407 59.5856 110.602 59.4858 109.805 59.5532C109.007 59.6206 108.239 59.8533 107.563 60.2322C106.888 60.6111 106.326 61.1252 105.922 61.7322C105.519 62.3391 105.285 63.0215 105.242 63.723C105.242 63.7439 105.242 63.7648 105.242 63.7886C105.119 65.9487 106.086 68.0431 107.284 69.9406C108.483 71.8381 109.895 73.6312 110.818 75.6391C112.338 78.9848 112.387 82.7061 110.954 86.0813C110.042 88.2056 108.527 90.4671 109.899 92.5853C110.361 93.2538 111.033 93.7912 111.835 94.1331C112.637 94.475 113.534 94.6068 114.42 94.5127C117.895 94.2382 119.699 91.4874 121.347 88.9872C122.671 86.9764 123.761 83.8497 123.825 81.4897C124.005 76.8011 123.043 72.1327 121.003 67.7955Z" fill="white"/>
</g>
<path d="M68.3167 77.3248C68.1907 77.3546 67.9763 76.9101 67.6358 76.2656C67.4546 75.9068 67.206 75.577 66.9005 75.29C66.5713 74.9684 66.1123 74.7715 65.6206 74.7411C65.1199 74.7471 64.6378 74.9077 64.2589 75.1946C63.9279 75.4441 63.6561 75.7482 63.4589 76.0896C63.0981 76.7072 62.9619 77.1637 62.8326 77.1428C62.7032 77.1219 62.6249 76.6535 62.8768 75.8837C63.032 75.4189 63.3189 74.996 63.7108 74.6545C63.9641 74.4321 64.2649 74.2556 64.5961 74.1353C64.9274 74.015 65.2824 73.9532 65.641 73.9534C66.0253 73.9632 66.4008 74.0565 66.7337 74.2249C67.028 74.3754 67.2896 74.5704 67.5065 74.8007C67.8489 75.1718 68.0931 75.6049 68.2214 76.0687C68.4563 76.8355 68.4256 77.2979 68.3167 77.3248Z" fill="#4F4F4F"/>
<path d="M42.4587 75.5018C42.46 75.9264 42.3176 76.3417 42.0495 76.6952C41.7814 77.0488 41.3996 77.3247 40.9525 77.4879C40.5053 77.6512 40.013 77.6945 39.5378 77.6124C39.0625 77.5303 38.6258 77.3265 38.2828 77.0268C37.9398 76.727 37.706 76.3448 37.611 75.9285C37.516 75.5122 37.5641 75.0806 37.7491 74.6883C37.9342 74.296 38.2479 73.9606 38.6505 73.7246C39.0532 73.4886 39.5267 73.3627 40.0111 73.3627C40.659 73.3627 41.2806 73.5878 41.7394 73.9889C42.1982 74.3899 42.4569 74.9339 42.4587 75.5018Z" fill="#4F4F4F"/>
<path d="M120.2 57.5501C120.136 57.5026 120.078 57.4485 120.029 57.389L119.573 56.9087C119.379 56.6968 119.137 56.4403 118.845 56.1539C118.552 55.8674 118.235 55.5243 117.857 55.1723C117.48 54.8202 117.075 54.4204 116.615 54.0177C116.155 53.6149 115.658 53.1853 115.131 52.7407C114.062 51.8666 112.847 50.9506 111.512 50.0347C110.178 49.1188 108.843 48.3371 107.604 47.6479C106.981 47.3138 106.392 46.9886 105.82 46.7141C105.248 46.4396 104.721 46.177 104.231 45.9533C103.74 45.7295 103.291 45.5356 102.9 45.3566C102.508 45.1776 102.161 45.0433 101.878 44.9299L101.232 44.6644C101.154 44.6375 101.08 44.6035 101.01 44.563C101.091 44.5819 101.169 44.6069 101.245 44.6376L101.906 44.8762C102.195 44.9777 102.542 45.109 102.927 45.279C103.311 45.4491 103.785 45.6221 104.288 45.8489C104.792 46.0756 105.327 46.3113 105.892 46.5947C106.457 46.8782 107.063 47.1914 107.693 47.5196C108.939 48.2028 110.273 48.9965 111.621 49.9064C112.969 50.8164 114.174 51.7502 115.243 52.6333C115.771 53.0838 116.264 53.5045 116.721 53.9252C117.177 54.3459 117.582 54.7307 117.949 55.0947C118.317 55.4587 118.63 55.7988 118.923 56.0942C119.216 56.3896 119.44 56.6521 119.628 56.8669C119.815 57.0817 119.951 57.2398 120.06 57.3681C120.112 57.4253 120.159 57.4862 120.2 57.5501Z" fill="white"/>
<path d="M94.4645 47.9195C94.3735 47.9048 94.2845 47.8818 94.199 47.8508L93.45 47.6271C93.13 47.5227 92.7318 47.4033 92.2654 47.284C91.799 47.1646 91.2714 47.0035 90.6756 46.8752L89.7463 46.6604C89.4229 46.5858 89.0825 46.5291 88.725 46.4575C88.0238 46.3114 87.2613 46.2039 86.4647 46.0786C82.9914 45.5867 79.4593 45.4975 75.9594 45.8131C75.156 45.8996 74.3901 45.9682 73.682 46.0786C73.3246 46.1323 72.9807 46.1711 72.6608 46.2278L71.7178 46.3979C71.1119 46.4933 70.5774 46.6246 70.1042 46.7231C69.631 46.8215 69.2259 46.92 68.8991 47.0065L68.1366 47.1945C68.0494 47.2208 67.9593 47.2389 67.8677 47.2482C67.9521 47.2162 68.0385 47.1883 68.1264 47.1646L68.8787 46.9498C69.2191 46.8543 69.6072 46.744 70.0804 46.6515C70.5536 46.559 71.1016 46.4068 71.6906 46.3024L72.6335 46.1234C72.9739 46.0637 73.3144 46.019 73.6548 45.9623C74.3628 45.8459 75.1322 45.7713 75.939 45.6848C77.6952 45.5277 79.4608 45.4659 81.2257 45.4998C82.9921 45.5483 84.7534 45.6948 86.4987 45.9384C87.2987 46.0667 88.0612 46.1801 88.7625 46.3322C89.1029 46.4068 89.4433 46.4665 89.7837 46.5441L90.7131 46.7678C91.3088 46.9051 91.8331 47.0662 92.2994 47.2004C92.7658 47.3347 93.1573 47.457 93.4773 47.5674L94.216 47.821C94.3011 47.8493 94.3841 47.8821 94.4645 47.9195Z" fill="white"/>
</g>
<defs>
<clipPath id="clip0">
<rect width="114.775" height="83.702" fill="white" transform="translate(22.5 39.6492)"/>
</clipPath>
</defs>
</svg>
