<svg width="177" height="116" viewBox="0 0 177 116" fill="none" xmlns="http://www.w3.org/2000/svg">
<path d="M176.559 47.2985C177.093 50.4763 176.542 53.7219 174.976 56.6245C173.411 59.527 170.9 61.9561 167.763 63.6042C164.626 65.2523 161.003 66.0453 157.353 65.883C153.703 65.7206 150.19 64.61 147.258 62.6919C144.326 60.7738 142.108 58.1344 140.884 55.1077C139.66 52.081 139.485 48.8031 140.381 45.689C141.277 42.5748 143.205 39.7644 145.919 37.6135C148.634 35.4625 152.013 34.0678 155.63 33.6057C160.471 32.9844 165.394 34.0776 169.319 36.6452C173.243 39.2127 175.847 43.0445 176.559 47.2985Z" fill="#F2F2F2"/>
<path d="M172.211 47.8556C172.618 50.2777 172.199 52.7516 171.005 54.964C169.812 57.1764 167.899 59.028 165.508 60.2843C163.117 61.5406 160.356 62.1452 157.573 62.0215C154.791 61.8978 152.113 61.0514 149.879 59.5895C147.644 58.1275 145.953 56.1157 145.02 53.8088C144.087 51.5018 143.954 49.0034 144.637 46.6298C145.32 44.2562 146.789 42.1141 148.858 40.4747C150.927 38.8353 153.503 37.7722 156.26 37.4201C159.95 36.9451 163.703 37.7776 166.694 39.7346C169.686 41.6916 171.67 44.6128 172.211 47.8556Z" fill="#E9E9E9"/>
<path d="M172.142 47.4724C172.057 47.4724 171.912 46.9579 171.533 46.0531C171.003 44.7761 170.251 43.5791 169.304 42.5048C168.652 41.7716 167.91 41.104 167.092 40.5142C166.152 39.8436 165.118 39.282 164.015 38.843C163.422 38.6047 162.809 38.4054 162.182 38.2469C161.529 38.0855 160.862 37.9669 160.188 37.8921C159.491 37.8081 158.788 37.7725 158.085 37.7856C157.359 37.8001 156.636 37.8618 155.921 37.9701C155.209 38.0862 154.508 38.2463 153.822 38.4491C153.155 38.6516 152.507 38.8983 151.884 39.1872C150.7 39.7373 149.612 40.434 148.654 41.2558C147.792 41.9967 147.042 42.8314 146.421 43.7396C145.885 44.5411 145.451 45.3919 145.125 46.2766C144.658 47.5721 144.421 48.9235 144.423 50.2827C144.423 51.2478 144.492 51.7907 144.423 51.8049C144.354 51.8191 144.153 51.2939 144.019 50.3004C143.855 48.8866 143.991 47.4582 144.423 46.0886C145.054 44.0294 146.279 42.1483 147.98 40.6278C148.468 40.1844 148.994 39.7751 149.554 39.4036C150.136 39.0063 150.753 38.6504 151.399 38.3391C152.067 38.021 152.762 37.7505 153.478 37.5301C154.219 37.3053 154.977 37.1297 155.747 37.005C156.518 36.8888 157.298 36.8247 158.081 36.8134C159.575 36.7964 161.064 36.9831 162.493 37.3669C163.164 37.5466 163.817 37.772 164.447 38.0411C165.614 38.5311 166.7 39.1564 167.677 39.9004C168.522 40.551 169.277 41.287 169.926 42.0932C170.866 43.2495 171.55 44.5506 171.944 45.9289C172.199 46.9118 172.207 47.4653 172.142 47.4724Z" fill="#E0A4E3"/>
<path d="M161.072 56.737L161.476 58.866L159.312 59.1711L158.937 57.0989C156.777 57.287 154.617 56.9889 153.285 56.3396L154.052 53.8558C155.432 54.4434 156.962 54.7051 158.492 54.6151L157.879 51.443C155.388 51.2691 152.578 50.9426 152.086 48.2247C151.718 46.2092 153.067 44.247 156.421 43.4274L156.018 41.2984L158.178 40.9933L158.553 43.0655C160.114 42.9227 161.692 43.1088 163.155 43.6083L162.497 46.0921C161.387 45.7169 160.202 45.5396 159.013 45.5705L159.599 48.7995C162.09 48.9556 164.847 49.2891 165.344 51.9645C165.723 53.9551 164.391 55.896 161.072 56.737ZM157.382 48.6434L156.89 45.9467C155.784 46.3334 155.432 46.9508 155.545 47.5753C155.658 48.1998 156.373 48.5121 157.374 48.6434H157.382ZM161.932 52.699C161.811 52.032 161.125 51.7623 160.136 51.6062L160.616 54.2284C161.65 53.8664 162.037 53.3058 161.924 52.699H161.932Z" fill="#E0A4E3"/>
<path d="M112.626 17.4894C110.823 18.4936 108.721 19.0051 106.588 18.9592C104.454 18.9132 102.383 18.3119 100.638 17.2312C98.8933 16.1506 97.5524 14.6392 96.7852 12.8885C96.0181 11.1377 95.8591 9.2263 96.3285 7.39612C96.7979 5.56594 97.8746 3.8993 99.4222 2.60716C100.97 1.31502 102.919 0.455475 105.022 0.137325C107.126 -0.180825 109.29 0.0567222 111.24 0.819899C113.19 1.58308 114.838 2.83757 115.977 4.42459C117.504 6.54766 118.008 9.1168 117.38 11.5669C116.751 14.017 115.041 16.1474 112.626 17.4894Z" fill="#F2F2F2"/>
<path d="M111.237 15.5804C109.863 16.3452 108.262 16.7344 106.636 16.699C105.01 16.6636 103.433 16.205 102.104 15.3814C100.774 14.5577 99.7529 13.406 99.1687 12.072C98.5845 10.7379 98.4637 9.28156 98.8216 7.88716C99.1795 6.49277 100 5.22303 101.179 4.23865C102.359 3.25426 103.844 2.59948 105.446 2.35718C107.049 2.11487 108.698 2.29593 110.184 2.87744C111.669 3.45895 112.925 4.41477 113.793 5.62393C114.369 6.42516 114.76 7.31826 114.943 8.25224C115.126 9.18623 115.099 10.1428 114.861 11.0673C114.624 11.9919 114.182 12.8663 113.56 13.6407C112.938 14.415 112.149 15.0741 111.237 15.5804Z" fill="#E9E9E9"/>
<path d="M111.456 15.4598C111.427 15.4207 111.714 15.2256 112.174 14.8317C112.822 14.2823 113.367 13.6464 113.789 12.9476C114.08 12.4678 114.309 11.9608 114.471 11.436C114.659 10.8372 114.755 10.2191 114.758 9.59801C114.764 9.26332 114.739 8.92875 114.685 8.5974C114.634 8.25155 114.552 7.90983 114.439 7.57549C114.324 7.2279 114.178 6.88862 114.003 6.56068C113.822 6.22541 113.614 5.90173 113.381 5.592C113.136 5.28488 112.866 4.99322 112.574 4.71912C112.292 4.45506 111.988 4.20956 111.666 3.98463C111.353 3.76886 111.022 3.57433 110.676 3.40271C110.346 3.23632 110.002 3.09163 109.647 2.96982C108.99 2.74066 108.302 2.58797 107.6 2.51564C106.986 2.45541 106.366 2.45541 105.751 2.51564C104.854 2.60227 103.978 2.81179 103.155 3.13659C102.86 3.28245 102.549 3.40135 102.227 3.49142C102.206 3.46303 102.473 3.23949 103.034 2.94498C103.862 2.52438 104.773 2.24508 105.719 2.12178C106.368 2.03609 107.026 2.01585 107.681 2.06146C108.433 2.11922 109.173 2.26603 109.881 2.4979C110.271 2.61873 110.649 2.76706 111.012 2.94143C111.386 3.12176 111.744 3.32822 112.081 3.55883C112.435 3.79619 112.766 4.05845 113.07 4.343C113.382 4.63625 113.668 4.94936 113.926 5.27975C114.179 5.61972 114.403 5.9755 114.597 6.34424C114.779 6.70009 114.93 7.06784 115.049 7.4442C115.165 7.80545 115.248 8.17454 115.295 8.54772C115.346 8.90066 115.366 9.25654 115.356 9.61221C115.334 10.2766 115.21 10.9355 114.988 11.5709C114.791 12.121 114.52 12.6487 114.181 13.1427C113.7 13.8573 113.071 14.4867 112.328 14.9985C112.076 15.2035 111.779 15.3605 111.456 15.4598Z" fill="#E0A4E3"/>
<path d="M103.204 12.4579L101.993 13.1463L101.323 12.2025L102.489 11.5354C101.898 10.6806 101.593 9.69685 101.609 8.69675L103.301 8.46612C103.272 9.25319 103.476 10.0334 103.894 10.7299L105.683 9.70447C105.198 8.4945 104.73 7.10003 106.26 6.2236C107.399 5.57427 108.909 5.74104 110.205 7.11777L111.416 6.4365L112.11 7.38034L110.943 8.04742C111.4 8.74513 111.662 9.5284 111.706 10.3325L110.039 10.6164C110.006 10.0011 109.833 9.39783 109.53 8.84223L107.71 9.88543C108.202 11.0883 108.658 12.465 107.148 13.3308C105.998 13.9837 104.5 13.8311 103.204 12.4579ZM107.241 8.80675L108.763 7.93742C108.267 7.51163 107.806 7.49034 107.455 7.69259C107.104 7.89484 107.084 8.30644 107.241 8.80675ZM105.861 11.9044C106.236 11.6915 106.236 11.3012 106.095 10.8044L104.617 11.6489C105.085 12.057 105.517 12.0996 105.861 11.9044Z" fill="#E0A4E3"/>
<path d="M20.8133 102.411C21.601 104.154 21.7824 106.064 21.3343 107.899C20.8863 109.733 19.8292 111.41 18.2966 112.716C16.7641 114.022 14.8251 114.899 12.7251 115.236C10.6251 115.573 8.45855 115.355 6.49971 114.609C4.54086 113.863 2.8778 112.623 1.72105 111.047C0.564291 109.47 -0.0341413 107.627 0.00150461 105.751C0.0371505 103.875 0.705272 102.05 1.92129 100.508C3.13731 98.9662 4.84655 97.776 6.83263 97.0882C9.48967 96.1649 12.4551 96.207 15.0769 97.2051C17.6986 98.2032 19.762 100.076 20.8133 102.411Z" fill="#F2F2F2"/>
<path d="M18.4233 103.248C19.0227 104.577 19.16 106.032 18.818 107.43C18.4759 108.827 17.6698 110.104 16.5017 111.099C15.3336 112.093 13.856 112.761 12.2559 113.017C10.6558 113.274 9.00518 113.107 7.51292 112.539C6.02067 111.97 4.75386 111.025 3.87285 109.823C2.99184 108.622 2.53622 107.218 2.56367 105.788C2.59112 104.359 3.10039 102.969 4.02704 101.794C4.95368 100.619 6.25604 99.7127 7.76927 99.1887C8.77198 98.8395 9.8432 98.6675 10.9216 98.6826C12 98.6976 13.0645 98.8995 14.0541 99.2765C15.0436 99.6535 15.9389 100.198 16.6886 100.88C17.4384 101.561 18.0279 102.366 18.4233 103.248Z" fill="#E9E9E9"/>
<path d="M18.3302 103.028C18.2818 103.046 18.1163 102.762 17.765 102.29C17.269 101.626 16.6589 101.033 15.9564 100.533C15.4759 100.193 14.9531 99.9014 14.398 99.6642C13.7583 99.3892 13.0793 99.1911 12.3795 99.0751C12.0055 99.008 11.6262 98.9665 11.245 98.951C10.8569 98.9385 10.4682 98.9516 10.0823 98.99C9.67344 99.0235 9.26837 99.0864 8.87117 99.1781C8.45761 99.2686 8.05268 99.3872 7.66002 99.5329C7.27155 99.6817 6.89638 99.8561 6.53769 100.054C6.18918 100.248 5.85846 100.465 5.54859 100.704C5.24812 100.931 4.96868 101.179 4.7129 101.445C4.46203 101.694 4.23262 101.958 4.02658 102.237C3.32675 103.227 2.91112 104.352 2.81543 105.515C2.74137 106.301 2.80537 107.092 3.00518 107.861C3.11445 108.146 3.18624 108.441 3.21915 108.741C3.00437 108.503 2.84892 108.229 2.76295 107.935C2.45491 107.151 2.31794 106.323 2.35924 105.494C2.38074 104.918 2.47967 104.346 2.65395 103.791C2.85593 103.152 3.15466 102.54 3.54212 101.971C3.75333 101.662 3.99086 101.368 4.25266 101.091C4.52337 100.799 4.8204 100.527 5.14084 100.278C5.47137 100.017 5.82507 99.7798 6.19857 99.5684C6.97235 99.1419 7.81872 98.8268 8.70565 98.6352C9.13682 98.542 9.57545 98.478 10.0177 98.4436C10.4437 98.4152 10.8715 98.4152 11.2975 98.4436C11.7049 98.4682 12.1097 98.5192 12.5086 98.5961C13.8962 98.8558 15.183 99.4281 16.243 100.257C16.9511 100.799 17.5384 101.452 17.975 102.183C18.1591 102.44 18.2801 102.728 18.3302 103.028Z" fill="#E0A4E3"/>
<path d="M13.4375 109.596L13.9825 110.76L12.7996 111.185L12.2707 110.054C11.2058 110.404 10.0502 110.484 8.93602 110.284L8.99658 108.78C9.86909 108.953 10.7779 108.922 11.6328 108.691L10.8254 106.956C9.38415 107.148 7.73698 107.293 7.04259 105.806C6.52987 104.706 6.99819 103.429 8.77857 102.57L8.23759 101.413L9.42048 100.988L9.94935 102.123C10.8145 101.859 11.7388 101.778 12.6462 101.889V103.379C11.9567 103.298 11.2558 103.337 10.5832 103.493L11.4108 105.267C12.848 105.065 14.471 104.912 15.1573 106.392C15.666 107.467 15.2017 108.727 13.4375 109.596ZM10.1108 105.427L9.42048 103.958C8.85124 104.312 8.74224 104.699 8.90372 105.043C9.06521 105.388 9.52141 105.469 10.1108 105.427ZM13.3163 107.201C13.1427 106.846 12.7108 106.764 12.1294 106.793L12.7996 108.212C13.3365 107.896 13.4697 107.531 13.3123 107.197L13.3163 107.201Z" fill="#E0A4E3"/>
<path d="M51.6937 5.03492C51.6937 5.03492 47.2851 7.08938 42.38 4.03075C39.3481 2.12177 32.9007 -0.787831 30.9306 1.0147L28.5083 7.93387C28.5083 7.93387 33.3892 8.68611 37.3578 11.4147C41.2577 14.0973 48.9929 13.8985 48.9929 13.8985L51.6937 5.03492Z" fill="#F2F2F2"/>
<g opacity="0.4">
<path opacity="0.4" d="M38.2658 10.5738C37.7742 10.3302 37.3481 9.99644 37.0165 9.59515C36.6849 9.19385 36.4555 8.73447 36.344 8.24827C36.2325 7.76207 36.2416 7.26046 36.3705 6.7776C36.4994 6.29474 36.7451 5.84195 37.091 5.45007C38.4071 4.06979 41.4633 4.41752 43.0337 5.57426C43.4103 5.84954 43.7211 6.18762 43.9482 6.56901C44.1754 6.9504 44.3143 7.36754 44.3571 7.79637C44.3999 8.2252 44.3457 8.65724 44.1975 9.06755C44.0494 9.47786 43.8103 9.85833 43.494 10.187C42.1738 11.5495 40.0422 11.4715 38.2658 10.5738Z" fill="white"/>
</g>
<path d="M39.5129 9.64413L39.2223 10.1586L38.7015 9.92799L38.9841 9.43123C38.5313 9.21741 38.1542 8.89825 37.894 8.50868L38.4996 8.07579C38.6885 8.39045 38.9666 8.6569 39.307 8.84931L39.7431 8.08288C39.2344 7.70322 38.6853 7.24904 39.0567 6.59615C39.3353 6.11004 39.9732 5.88649 40.8452 6.14907L41.1359 5.64166L41.6567 5.8723L41.37 6.36906C41.7311 6.55352 42.0392 6.80847 42.2703 7.1142L41.689 7.56483C41.5151 7.33171 41.29 7.13146 41.0269 6.97582L40.5828 7.75289C41.0915 8.12901 41.6325 8.5761 41.2651 9.22188C41.0107 9.68316 40.3809 9.92799 39.5129 9.64413ZM40.1468 7.39097L40.5182 6.74163C40.2114 6.67421 40.0257 6.75937 39.9368 6.91195C39.848 7.06453 39.957 7.22775 40.1468 7.39097ZM40.4132 8.89189C40.5061 8.72867 40.4132 8.57609 40.2194 8.40933L39.8561 9.04092C40.1468 9.10479 40.3284 9.03737 40.4132 8.89189Z" fill="#E9E9E9"/>
<g opacity="0.5">
<path opacity="0.5" d="M29.5137 7.49032L31.726 1.20275H31.8027C35.311 0.549861 39.7882 3.21108 42.7515 4.96039C43.2602 5.26199 43.7447 5.5494 44.1645 5.78714C46.9905 7.37322 50.3091 6.1881 50.4948 5.97165L50.737 6.05681L48.4762 12.8731H48.3955C46.2877 13.1363 44.1407 13.0103 42.0915 12.5032C40.0422 11.9961 38.1358 11.1191 36.4939 9.92799C34.2775 8.24965 29.7075 7.50806 29.659 7.50096L29.5137 7.49032ZM31.9319 1.4121L29.8649 7.30936C30.6723 7.45129 34.6045 8.19643 36.6756 9.76477C38.2772 10.9288 40.1356 11.7889 42.1338 12.2909C44.1321 12.7928 46.2269 12.9258 48.2865 12.6815L50.3939 6.31938C50.1731 6.40967 49.945 6.48557 49.7116 6.54647C48.9647 6.74872 46.3527 7.29871 44.0353 5.99649C43.6316 5.75875 43.127 5.46779 42.6143 5.16619C39.6994 3.43817 35.3231 0.833725 31.9319 1.4121Z" fill="white"/>
</g>
<path d="M116.744 31.8209C116.744 31.8209 116.385 36.1995 110.826 38.2078C107.386 39.4604 101.137 42.7035 101.831 45.1305L107.217 50.5949C107.217 50.5949 110.543 47.3624 115.291 45.8615C119.95 44.3854 123.886 38.5307 123.886 38.5307L116.744 31.8209Z" fill="#F2F2F2"/>
<g opacity="0.4">
<path opacity="0.4" d="M114.94 44.7615C114.446 44.9954 113.9 45.1334 113.34 45.1664C112.78 45.1993 112.219 45.1265 111.693 44.9526C111.168 44.7788 110.691 44.5081 110.295 44.1587C109.899 43.8093 109.593 43.3893 109.397 42.9271C108.767 41.2132 110.729 39.1233 112.679 38.5698C113.615 38.3039 114.634 38.3759 115.509 38.7698C116.385 39.1637 117.048 39.8474 117.35 40.6704C117.96 42.3735 116.748 43.9206 114.94 44.7615Z" fill="white"/>
</g>
<path d="M114.71 43.3387L115.049 43.8319L114.552 44.098L114.241 43.6367C113.791 43.8614 113.277 43.9696 112.76 43.949L112.663 43.2677C113.071 43.2912 113.479 43.2202 113.846 43.0619L113.341 42.331C112.707 42.5084 111.977 42.6858 111.545 42.0506C111.222 41.5858 111.331 40.9862 112.065 40.4823L111.726 39.9962L112.227 39.7301L112.558 40.2091C112.931 40.0336 113.346 39.9398 113.769 39.9359L113.89 40.6065C113.573 40.6141 113.26 40.6756 112.97 40.7875L113.434 41.5078C114.064 41.3268 114.786 41.1529 115.21 41.781C115.541 42.2422 115.453 42.8384 114.71 43.3387ZM112.877 41.671L112.445 41.05C112.219 41.2416 112.203 41.4261 112.3 41.5681C112.396 41.71 112.627 41.7277 112.877 41.671ZM114.463 42.2671C114.354 42.1145 114.153 42.1074 113.894 42.1571L114.298 42.7638C114.528 42.5722 114.556 42.409 114.463 42.2671Z" fill="#E9E9E9"/>
<g opacity="0.5">
<path opacity="0.5" d="M107.314 49.6369L102.437 44.648L102.461 44.5841C103.709 41.6284 108.658 39.7158 111.932 38.4456C112.494 38.2291 113.026 38.0233 113.479 37.8353C116.507 36.5792 117.136 33.4744 117.023 33.2225L117.237 33.0912L122.603 38.4136L122.57 38.481C121.699 40.1891 120.432 41.719 118.851 42.9731C117.269 44.2273 115.408 45.1784 113.386 45.7657C110.588 46.5215 107.447 49.5304 107.415 49.5624L107.314 49.6369ZM102.736 44.6018L107.322 49.2891C107.891 48.7569 110.697 46.2305 113.309 45.5244C115.283 44.9505 117.101 44.0238 118.647 42.8024C120.194 41.5811 121.436 40.0917 122.296 38.4278L117.286 33.4602C117.255 33.6736 117.206 33.8847 117.14 34.0918C116.938 34.7518 116.079 36.9908 113.592 38.0233C113.135 38.2114 112.603 38.4172 112.037 38.6372C108.828 39.9004 103.991 41.7739 102.736 44.6018Z" fill="white"/>
</g>
<path d="M172.703 14.2143C172.703 14.2143 168.403 14.7359 165.436 10.9499C163.607 8.60449 159.336 4.52395 157.115 5.47844L152.808 10.4957C155.23 11.8101 157.296 13.5732 158.863 15.662C161.132 18.8768 167.511 20.7574 167.511 20.7574L172.703 14.2143Z" fill="#F2F2F2"/>
<g opacity="0.4">
<path opacity="0.4" d="M159.862 15.2078C159.543 14.8798 159.309 14.4954 159.174 14.0806C159.04 13.6658 159.009 13.2305 159.083 12.8042C159.158 12.3779 159.336 11.9707 159.605 11.6103C159.875 11.25 160.229 10.9448 160.645 10.7157C162.187 9.93509 164.565 11.0244 165.453 12.3799C165.879 13.0318 165.993 13.8054 165.77 14.5311C165.548 15.2568 165.007 15.8753 164.266 16.251C162.716 17.0246 161 16.4072 159.862 15.2078Z" fill="white"/>
</g>
<path d="M161.194 14.7785L160.79 15.1333L160.443 14.8104L160.847 14.4769C160.545 14.1773 160.347 13.8078 160.277 13.4124L160.919 13.2173C160.967 13.5262 161.106 13.8187 161.323 14.0653L161.937 13.5544C161.65 13.1108 161.355 12.5963 161.884 12.1599C162.288 11.837 162.877 11.8051 163.499 12.2663L163.903 11.9115L164.25 12.2379L163.846 12.5679C164.079 12.813 164.243 13.102 164.327 13.4124L163.697 13.6289C163.636 13.392 163.521 13.1685 163.358 12.9724L162.732 13.4905C163.019 13.9305 163.309 14.4379 162.788 14.8708C162.405 15.2007 161.807 15.2291 161.194 14.7785ZM162.478 13.1215L162.998 12.6886C162.925 12.6326 162.831 12.6019 162.734 12.6019C162.637 12.6019 162.543 12.6326 162.47 12.6886C162.34 12.7666 162.373 12.9192 162.478 13.1215ZM162.183 14.4166C162.312 14.3101 162.284 14.1576 162.183 13.973L161.674 14.3917C161.88 14.5053 162.066 14.4946 162.183 14.3988V14.4166Z" fill="#E9E9E9"/>
<g opacity="0.5">
<path opacity="0.5" d="M153.765 10.3928L157.705 5.84036H157.77C160.854 6.23777 163.604 9.58735 165.441 11.805C165.751 12.1882 166.046 12.5466 166.313 12.8695C168.057 14.8956 171.165 14.8033 171.399 14.6756L171.569 14.8104L167.407 19.778H167.338C165.527 19.4371 163.817 18.7681 162.317 17.8138C160.817 16.8595 159.56 15.6409 158.626 14.2356C157.391 12.2805 153.91 10.478 153.874 10.4602L153.765 10.3928ZM157.802 6.05681L154.096 10.3325C154.714 10.6625 157.665 12.3018 158.82 14.1256C159.73 15.496 160.953 16.686 162.412 17.6209C163.871 18.5557 165.535 19.2153 167.298 19.558L171.181 14.9169C170.97 14.9307 170.759 14.9307 170.548 14.9169C169.869 14.8849 167.552 14.6507 166.107 12.976C165.84 12.6708 165.546 12.3089 165.231 11.9115C163.454 9.76121 160.766 6.4826 157.806 6.05681H157.802Z" fill="white"/>
</g>
<g clip-path="url(#clip0)">
<path d="M49.8721 86.2115L59.4572 104.818H64.0846L64.7488 103.398L65.5691 104.818H68.6055L68.254 93.9555L68.1048 87.5412L49.8721 86.2115Z" fill="#C96BCF"/>
<path opacity="0.3" d="M49.8721 86.2115L59.4572 104.818H64.0846L64.7488 103.398L65.5691 104.818H68.6055L68.254 93.9555L68.1048 87.5412L49.8721 86.2115Z" fill="#4F4F4F"/>
<path d="M91.832 88.2061L101.179 104.818H105.807L106.471 103.519L107.295 104.818H110.331L109.976 94.8763L109.827 89.002L91.832 88.2061Z" fill="#C96BCF"/>
<path opacity="0.3" d="M91.832 88.2061L101.179 104.818H105.807L106.471 103.519L107.295 104.818H110.331L109.976 94.8763L109.827 89.002L91.832 88.2061Z" fill="#4F4F4F"/>
<path d="M145.014 39.245L145.099 39.2731L145.348 39.3699C145.661 39.5062 145.953 39.6772 146.218 39.8786C146.643 40.196 147.003 40.575 147.283 40.9992C147.651 41.5625 147.867 42.1925 147.915 42.8408C147.969 43.6324 147.741 44.4191 147.262 45.0912C146.717 45.8655 145.912 46.4712 144.957 46.8236C144.433 47.0281 143.866 47.1338 143.293 47.1338C142.72 47.1338 142.153 47.0281 141.629 46.8236C141.067 46.5906 140.627 46.179 140.397 45.6718C140.27 45.4128 140.219 45.1298 140.248 44.8489C140.278 44.568 140.388 44.2982 140.567 44.0643C140.756 43.8421 140.997 43.6587 141.274 43.5266C141.551 43.3946 141.858 43.3171 142.173 43.2996C142.791 43.2788 143.398 43.455 143.881 43.7959C144.328 44.1132 144.686 44.518 144.924 44.9781C145.162 45.4382 145.274 45.9408 145.252 46.4459C145.217 47.3583 144.843 48.2356 144.186 48.9429C143.894 49.2637 143.544 49.54 143.149 49.7607C142.784 49.9596 142.392 50.116 141.981 50.2258C141.273 50.4057 140.531 50.4546 139.8 50.3694C139.251 50.3091 138.714 50.1798 138.206 49.9855C137.885 49.864 137.579 49.7145 137.293 49.5391L137.076 49.3955C137.051 49.3802 137.027 49.3624 137.005 49.3425C137.395 49.5685 137.806 49.7638 138.234 49.9262C138.738 50.1078 139.269 50.2265 139.811 50.2789C140.526 50.3519 141.251 50.2967 141.942 50.1166C142.339 50.0055 142.719 49.8502 143.071 49.6546C143.449 49.4389 143.784 49.17 144.062 48.8587C144.686 48.1705 145.039 47.3225 145.067 46.4428C145.084 45.9621 144.975 45.4843 144.748 45.0468C144.521 44.6094 144.181 44.224 143.757 43.9207C143.308 43.6041 142.744 43.4411 142.169 43.4619C141.878 43.4753 141.593 43.5445 141.336 43.6647C141.078 43.785 140.853 43.9533 140.677 44.158C140.516 44.3701 140.418 44.6144 140.392 44.8685C140.366 45.1226 140.413 45.3784 140.528 45.6125C140.749 46.0844 141.167 46.4641 141.697 46.6737C142.2 46.8701 142.744 46.9715 143.295 46.9715C143.845 46.9715 144.39 46.8701 144.893 46.6737C145.818 46.3356 146.601 45.7532 147.134 45.007C147.605 44.3562 147.832 43.5921 147.784 42.822C147.734 42.2007 147.526 41.5972 147.176 41.0554C146.913 40.6364 146.572 40.2588 146.168 39.9379C145.817 39.6667 145.429 39.434 145.014 39.245Z" fill="#C96BCF"/>
<path d="M140.432 56.0815C141.824 83.6895 115.491 97.4639 85.6841 97.4639C55.8775 97.4639 31.7246 79.5257 31.7246 57.3987C31.7246 35.2716 55.8739 17.3334 85.6841 17.3334C115.494 17.3334 139.331 33.9763 140.432 56.0815Z" fill="#E0A4E3"/>
<path opacity="0.3" d="M81.9229 27.228C81.9229 27.228 85.5026 26.2292 88.8516 29.5565C92.2005 32.8838 96.8599 38.5584 96.8599 38.5584C96.4408 40.4031 95.2156 41.842 92.8398 42.6972L81.9229 27.228Z" fill="#4F4F4F"/>
<path d="M50.1913 86.1023C60.3982 86.1023 68.6726 80.5292 68.6726 73.6545C68.6726 66.7798 60.3982 61.2067 50.1913 61.2067C39.9843 61.2067 31.71 66.7798 31.71 73.6545C31.71 80.5292 39.9843 86.1023 50.1913 86.1023Z" fill="#C96BCF"/>
<path d="M67.4307 40.378C67.4307 40.378 78.2481 25.608 83.22 27.2092C88.192 28.8104 92.8372 42.6909 92.8372 42.6909" fill="#C96BCF"/>
<path d="M55.1813 36.9977L54.6735 32.993C54.6735 32.993 47.8903 30.496 41.8175 29.2818C35.7447 28.0676 34.5479 29.2818 34.5479 29.2818L44.1543 41.1147L55.1813 36.9977Z" fill="#C96BCF"/>
<path opacity="0.3" d="M69.6392 22.8269L73.2331 24.6997C73.2331 24.6997 90.6348 20.642 104.009 24.6997L99.1049 21.0321C99.1049 21.0321 82.8929 17.9576 69.6392 22.8269Z" fill="#4F4F4F"/>
<path opacity="0.3" d="M50.1913 86.1023C60.3982 86.1023 68.6726 80.5292 68.6726 73.6545C68.6726 66.7798 60.3982 61.2067 50.1913 61.2067C39.9843 61.2067 31.71 66.7798 31.71 73.6545C31.71 80.5292 39.9843 86.1023 50.1913 86.1023Z" fill="#4F4F4F"/>
<path d="M45.4975 86.1023C55.0592 86.1023 62.8104 80.5292 62.8104 73.6545C62.8104 66.7798 55.0592 61.2067 45.4975 61.2067C35.9358 61.2067 28.1846 66.7798 28.1846 73.6545C28.1846 80.5292 35.9358 86.1023 45.4975 86.1023Z" fill="#C96BCF"/>
<path opacity="0.3" d="M39.5125 67.8145H38.1808C37.5257 67.8145 36.9946 68.2812 36.9946 68.857V78.4519C36.9946 79.0277 37.5257 79.4944 38.1808 79.4944H39.5125C40.1676 79.4944 40.6987 79.0277 40.6987 78.4519V68.857C40.6987 68.2812 40.1676 67.8145 39.5125 67.8145Z" fill="#4F4F4F"/>
<path opacity="0.3" d="M49.4603 67.8145H48.1285C47.4734 67.8145 46.9424 68.2812 46.9424 68.857V78.4519C46.9424 79.0277 47.4734 79.4944 48.1285 79.4944H49.4603C50.1154 79.4944 50.6465 79.0277 50.6465 78.4519V68.857C50.6465 68.2812 50.1154 67.8145 49.4603 67.8145Z" fill="#4F4F4F"/>
<path opacity="0.3" d="M54.1301 37.3847C55.6891 36.6107 56.5237 35.4558 55.9377 33.5518C55.9377 33.5518 47.8903 30.5022 41.8175 29.2818C35.7447 28.0614 34.5479 29.2818 34.5479 29.2818L44.1543 41.1147L54.1301 37.3847Z" fill="#4F4F4F"/>
<path d="M54.6737 37.7094C54.6737 37.7094 54.2226 37.4378 53.4626 36.9915C49.8793 34.8877 39.4099 28.876 36.7712 28.8105C33.1275 28.7168 33.1204 31.4792 33.1275 33.6142C33.1275 35.1312 34.5481 48.2844 34.5481 48.2844" fill="#C96BCF"/>
<path d="M92.8403 42.691C92.8272 42.6669 92.8165 42.6418 92.8083 42.6161C92.7835 42.5443 92.748 42.4569 92.7054 42.3445C92.6095 42.0948 92.4745 41.7452 92.3076 41.2989C91.9525 40.3937 91.434 39.0859 90.7237 37.494C89.903 35.6255 88.9542 33.8024 87.8826 32.0348C87.2532 30.993 86.5174 30.0037 85.6843 29.0789C85.2486 28.5914 84.7424 28.156 84.1785 27.7836C83.6301 27.3748 82.9258 27.164 82.2075 27.1936C81.4891 27.2738 80.798 27.4866 80.1797 27.8179C79.5671 28.129 78.984 28.4828 78.436 28.876C77.3978 29.6261 76.4189 30.4375 75.5061 31.3044C73.9579 32.7731 72.4952 34.3097 71.1237 35.9084C69.9446 37.2693 69.0319 38.4054 68.4069 39.1826C68.1015 39.5666 67.8635 39.8724 67.6966 40.0878L67.5084 40.3219C67.4888 40.3498 67.4662 40.3759 67.4409 40.4C67.4409 40.4 67.4409 40.3687 67.4942 40.3126L67.6647 40.0691C67.8174 39.8568 68.0482 39.5447 68.3501 39.1327C68.9574 38.3399 69.8559 37.1975 71.0243 35.8272C72.3835 34.2143 73.8392 32.6661 75.3853 31.1889C76.3015 30.3148 77.2839 29.4962 78.3259 28.7387C78.8841 28.3396 79.4779 27.9805 80.1015 27.665C80.7352 27.3182 81.446 27.0947 82.1862 27.0095C82.5688 26.9774 82.9546 27.0255 83.312 27.1499C83.6574 27.2761 83.9841 27.4386 84.2851 27.6338C84.8594 28.0159 85.3751 28.4618 85.8193 28.9603C86.6594 29.8925 87.399 30.8915 88.0282 31.9443C89.095 33.7196 90.0332 35.5524 90.8373 37.4316C91.5476 39.0328 92.0377 40.3469 92.368 41.2614C92.5313 41.7171 92.6556 42.073 92.7231 42.3164C92.7586 42.4288 92.787 42.5193 92.8083 42.5911C92.8225 42.6235 92.8332 42.6569 92.8403 42.691Z" fill="#4F4F4F"/>
<path d="M99.1045 21.0322L99.2003 21.079L99.4489 21.2569L100.394 21.9498L103.846 24.5249L104.073 24.6935L103.782 24.6248C101.692 24.1107 99.5693 23.7073 97.4247 23.4169C94.8061 23.0613 92.1618 22.8714 89.5122 22.8488C84.0578 22.7981 78.6237 23.4404 73.3784 24.7559H73.3535H73.3322L70.6012 23.3482L69.8909 22.9674L69.7062 22.8675L69.6494 22.83C69.6494 22.83 69.6707 22.83 69.7169 22.855L69.9051 22.9424L70.6402 23.3014L73.3997 24.6685H73.357C75.6177 24.0805 77.919 23.6207 80.2467 23.292C81.6246 23.0922 83.1091 22.9487 84.661 22.83C86.213 22.7114 87.8573 22.6646 89.5264 22.6927C92.1798 22.7118 94.828 22.9027 97.4495 23.2639C99.5995 23.5634 101.726 23.9804 103.817 24.5124L103.753 24.6123C102.333 23.5136 101.157 22.624 100.34 21.9998L99.4205 21.2819L99.1826 21.0915C99.1258 21.0571 99.1009 21.0353 99.1045 21.0322Z" fill="#4F4F4F"/>
<g opacity="0.2">
<path opacity="0.2" d="M79.082 62.0525C79.0003 62.4989 78.4783 62.8329 77.7396 63.0576C76.8441 63.3024 75.9108 63.4235 74.9731 63.4166C74.0346 63.4384 73.0979 63.3331 72.1959 63.1044C71.4501 62.8953 70.9174 62.5707 70.8251 62.1274C70.7327 61.6842 71.1163 61.2067 71.8585 60.8259C72.81 60.3968 73.862 60.1681 74.9314 60.1578C76.0007 60.1475 77.0582 60.3559 78.0201 60.7666C78.7695 61.138 79.1637 61.6124 79.082 62.0525Z" fill="white"/>
</g>
<path d="M55.8208 63.6631C55.7866 63.647 55.7534 63.6293 55.7214 63.6101L55.4337 63.4415L54.972 63.1668C54.7838 63.067 54.5565 62.9608 54.3079 62.8391C52.8743 62.1759 51.3306 61.7156 49.7338 61.4751C48.633 61.309 47.5193 61.2172 46.4026 61.2004C45.121 61.1918 43.8407 61.2743 42.5742 61.447C39.6597 61.8241 36.8797 62.7747 34.4416 64.2281C33.8176 64.618 33.2244 65.0445 32.6659 65.5047C32.1196 65.9565 31.6127 66.4438 31.1495 66.9624C30.2816 67.944 29.5828 69.0325 29.0755 70.1929C28.2622 72.1835 28.1046 74.3354 28.6209 76.4012C28.8301 77.1887 29.1423 77.9523 29.5513 78.6767C29.876 79.218 30.2564 79.732 30.6878 80.2124L31.1779 80.7211L31.5756 81.0676L31.8207 81.2798C31.849 81.304 31.8751 81.3301 31.8988 81.3579C31.8988 81.3579 31.8668 81.3392 31.8065 81.2923L31.5508 81.0894L31.1388 80.7586L30.631 80.2529C30.1852 79.7781 29.7939 79.2658 29.4626 78.7235C29.0378 77.995 28.7124 77.2249 28.493 76.4293C27.9537 74.3412 28.099 72.1615 28.9121 70.143C29.1598 69.5675 29.4566 69.0093 29.7999 68.4731C30.1588 67.9115 30.5648 67.3742 31.0145 66.8656C31.4765 66.3451 31.9822 65.8558 32.5274 65.4017C33.096 64.9333 33.7012 64.5005 34.3386 64.1064C36.7969 62.6385 39.6039 61.6831 42.5458 61.3128C43.8232 61.1426 45.1143 61.0643 46.4061 61.0787C47.5304 61.1029 48.651 61.2009 49.7586 61.3721C51.364 61.6268 52.9122 62.1074 54.3434 62.7954C54.592 62.9234 54.8158 63.0326 55.0005 63.1387L55.455 63.429L55.732 63.6101C55.7924 63.6382 55.8244 63.66 55.8208 63.6631Z" fill="#4F4F4F"/>
<path d="M40.6035 68.91C40.6329 69.0741 40.646 69.2402 40.6426 69.4063C40.6603 69.7559 40.6816 70.2116 40.71 70.7609C40.7633 71.9065 40.8698 73.4859 40.9196 75.2369C40.9196 75.6739 40.9196 76.1015 40.9196 76.5167C40.9272 76.9181 40.8928 77.3194 40.8166 77.7152C40.7666 78.0592 40.6272 78.3885 40.4092 78.6775C40.1912 78.9665 39.9004 79.2076 39.5594 79.382C39.3208 79.4887 39.0545 79.5385 38.7872 79.5264C38.5199 79.5144 38.2608 79.4409 38.0358 79.3134C37.9153 79.2433 37.8115 79.1532 37.7304 79.048C37.7015 79.012 37.6799 78.9719 37.6665 78.9294C37.7805 79.0592 37.9185 79.171 38.0749 79.2603C38.2907 79.3684 38.5341 79.4268 38.7824 79.43C39.0308 79.4333 39.2761 79.3814 39.4955 79.279C39.8119 79.1076 40.0799 78.8752 40.2792 78.5995C40.4786 78.3237 40.604 78.0118 40.6461 77.6872C40.7144 77.3 40.7442 76.9084 40.7349 76.5167C40.7349 76.1046 40.7349 75.677 40.7349 75.24C40.6852 73.4952 40.5999 71.9127 40.5786 70.7672C40.5786 70.1929 40.5786 69.7278 40.5786 69.4063C40.5688 69.2405 40.5772 69.0744 40.6035 68.91Z" fill="#4F4F4F"/>
<path d="M50.4087 68.91C50.4384 69.0741 50.4527 69.2401 50.4513 69.4063C50.4513 69.7559 50.4903 70.2116 50.5152 70.7609C50.5685 71.9065 50.675 73.4859 50.7247 75.2369C50.7247 75.6739 50.7247 76.1015 50.7247 76.5167C50.7318 76.918 50.6985 77.3191 50.6253 77.7152C50.5748 78.0591 50.4352 78.3882 50.2172 78.6771C49.9993 78.9661 49.7088 79.2072 49.3681 79.382C49.1289 79.4886 48.8621 79.5384 48.5942 79.5263C48.3263 79.5143 48.0666 79.4409 47.841 79.3134C47.7205 79.2444 47.6177 79.154 47.5392 79.048C47.5085 79.0125 47.4856 78.9723 47.4717 78.9294C47.5869 79.0582 47.7248 79.1699 47.8801 79.2603C48.0961 79.3678 48.3394 79.4259 48.5876 79.4292C48.8359 79.4324 49.081 79.3808 49.3006 79.279C49.6164 79.1073 49.8837 78.8748 50.0824 78.599C50.2811 78.3233 50.406 78.0115 50.4477 77.6872C50.5178 77.3002 50.5475 76.9084 50.5365 76.5167C50.5365 76.1046 50.5365 75.677 50.5188 75.24C50.469 73.4952 50.3838 71.9127 50.3625 70.7672C50.3625 70.1929 50.3625 69.7278 50.3625 69.4063C50.362 69.24 50.3775 69.074 50.4087 68.91Z" fill="#4F4F4F"/>
<path d="M62.6006 76.3669C62.5852 76.4409 62.5602 76.5132 62.5261 76.5822C62.4657 76.7165 62.3982 76.9287 62.2633 77.1815C61.9082 77.9101 61.4729 78.6063 60.9635 79.2603C60.2093 80.2316 59.3259 81.1202 58.3319 81.9072C57.745 82.3693 57.1258 82.7988 56.4781 83.1932C55.7799 83.6163 55.0489 83.9959 54.2904 84.3293C52.8279 84.9873 51.2767 85.4802 49.6737 85.7964C48.365 86.0399 47.0302 86.1581 45.6926 86.1491C44.5526 86.1491 43.6363 86.0867 43.0006 86.0461L42.2904 85.9961C42.2043 85.9946 42.1186 85.9852 42.0347 85.968C42.1197 85.9606 42.2053 85.9606 42.2904 85.968L43.0219 85.9868C43.6576 86.0086 44.5774 86.0461 45.7103 86.0367C47.0361 86.0311 48.3574 85.9024 49.6524 85.6528C51.2351 85.3316 52.7666 84.8399 54.2123 84.1889C54.962 83.857 55.6857 83.4816 56.3786 83.0652C57.0212 82.6743 57.6367 82.2501 58.2218 81.7948C59.206 81.0185 60.0865 80.1462 60.8463 79.1948C61.3634 78.5533 61.8116 77.8709 62.1851 77.1566C62.3307 76.9069 62.4089 76.7008 62.4799 76.5698C62.5143 76.4995 62.5546 76.4317 62.6006 76.3669Z" fill="#4F4F4F"/>
<path d="M40.3801 68.5605C40.306 68.4519 40.2242 68.3477 40.135 68.2483C40.0047 68.1249 39.8479 68.0255 39.6735 67.9558C39.4991 67.8862 39.3108 67.8477 39.1193 67.8426C38.8363 67.8404 38.556 67.8917 38.2975 67.993C38.039 68.0942 37.8081 68.243 37.6206 68.4294C37.4 68.65 37.2439 68.9146 37.1661 69.2003C37.0876 69.5128 37.053 69.8325 37.0631 70.1523C37.0631 71.4945 37.0631 72.7118 37.0631 73.5858C37.0631 74.0009 37.0631 74.3505 37.0631 74.6314C37.0702 74.759 37.0595 74.8869 37.0311 75.0122C37.0041 74.8867 36.991 74.7592 36.992 74.6314C36.992 74.3505 36.9672 74.0072 36.9494 73.5889C36.9246 72.7056 36.8962 71.4914 36.882 70.1555C36.8759 69.8217 36.9152 69.4884 36.9992 69.1629C37.0841 68.8529 37.2577 68.5671 37.5034 68.3326C37.7083 68.1333 37.9605 67.9761 38.2422 67.872C38.5239 67.7679 38.8282 67.7195 39.1335 67.7302C39.3397 67.7395 39.5413 67.7872 39.7249 67.8701C39.9086 67.9529 40.0701 68.0691 40.1989 68.2109C40.2682 68.2859 40.3234 68.3702 40.3623 68.4606C40.3765 68.523 40.3872 68.5605 40.3801 68.5605Z" fill="white"/>
<path d="M46.8853 69.2815C46.935 69.2815 46.9776 70.9264 46.9776 72.9553C46.9776 74.9842 46.935 76.6385 46.8853 76.6385C46.8356 76.6385 46.793 74.9935 46.793 72.9615C46.793 70.9296 46.832 69.2815 46.8853 69.2815Z" fill="white"/>
<path d="M43.9054 62.196C43.8322 62.2033 43.7584 62.2033 43.6852 62.196C43.5432 62.196 43.3301 62.196 43.0602 62.196C42.2963 62.2195 41.5354 62.2925 40.7837 62.4145C38.2877 62.8017 35.9463 63.745 33.9834 65.1544C32.0205 66.5637 30.5017 68.392 29.5721 70.4644C29.2828 71.0862 29.0454 71.7257 28.8618 72.3778C28.7908 72.6088 28.7588 72.7929 28.7233 72.9147C28.71 72.9773 28.691 73.0389 28.6665 73.0988C28.664 73.0348 28.6712 72.9708 28.6878 72.9084C28.7091 72.7836 28.734 72.5963 28.7943 72.3653C28.9474 71.702 29.1649 71.0514 29.4442 70.4207C30.3578 68.3182 31.8838 66.4635 33.8696 65.0425C35.8554 63.6215 38.2311 62.684 40.7589 62.324C41.518 62.2115 42.2867 62.1562 43.0566 62.1586C43.3301 62.1586 43.5396 62.1586 43.6817 62.1773C43.7568 62.1752 43.832 62.1815 43.9054 62.196Z" fill="white"/>
<path d="M34.6185 46.2961C34.605 46.3574 34.5835 46.4171 34.5546 46.4741C34.4942 46.602 34.4232 46.7643 34.3344 46.9672C34.2456 47.1701 34.1178 47.4417 33.9793 47.7507C33.8408 48.0597 33.6987 48.403 33.5638 48.7994C33.4288 49.1958 33.2619 49.6172 33.1199 50.0854C32.9778 50.5536 32.8322 51.0499 32.6866 51.5805C32.0932 53.881 31.8142 56.2355 31.8556 58.5941C31.8733 59.1372 31.884 59.6554 31.9302 60.1361C31.9763 60.6168 32.0118 61.0725 32.0616 61.4751C32.1113 61.8778 32.1752 62.2523 32.2249 62.5769C32.2746 62.9016 32.3244 63.1762 32.3741 63.4041C32.4238 63.6319 32.4451 63.7911 32.4735 63.9285C32.4879 63.989 32.4951 64.0508 32.4948 64.1126C32.4656 64.056 32.4453 63.9962 32.4344 63.9347L32.303 63.4166C32.2427 63.1918 32.1787 62.914 32.1219 62.5894C32.0651 62.2648 31.9834 61.8996 31.9337 61.4876C31.884 61.0756 31.813 60.6292 31.7774 60.1454C31.7419 59.6616 31.7064 59.1435 31.6851 58.5848C31.6234 56.2129 31.9038 53.8437 32.5197 51.5337C32.6724 51.0031 32.8073 50.4974 32.9707 50.0355C33.1341 49.5735 33.2868 49.1397 33.4395 48.7495C33.5922 48.3593 33.7485 48.0097 33.8834 47.7039C34.0184 47.398 34.1427 47.1389 34.2385 46.9298L34.4907 46.446C34.5256 46.3913 34.5686 46.3409 34.6185 46.2961Z" fill="white"/>
<path d="M35.1483 30.0653C35.1483 30.0653 35.0027 30.2338 34.7931 30.5615C34.5074 31.0286 34.3106 31.5337 34.2107 32.0567C34.0641 32.8387 33.9916 33.6301 33.9941 34.4226C33.9657 35.3184 33.9586 36.2954 33.9941 37.3379C34.0509 39.4074 34.2427 41.2739 34.4203 42.6223C34.5126 43.2778 34.5907 43.8147 34.6475 44.2173C34.6724 44.389 34.6937 44.5294 34.7079 44.6512C34.7173 44.7018 34.7173 44.7535 34.7079 44.8041C34.6849 44.7573 34.6694 44.708 34.6617 44.6574C34.6369 44.5388 34.6049 44.3984 34.5659 44.2267C34.4877 43.8521 34.3847 43.309 34.2782 42.6379C34.0084 40.8782 33.8484 39.1068 33.7988 37.3317C33.7704 36.2954 33.781 35.3059 33.8201 34.407C33.827 33.608 33.9137 32.8111 34.0793 32.0254C34.1966 31.4926 34.4202 30.9822 34.7399 30.5178C34.8267 30.3924 34.9266 30.2744 35.0382 30.1651C35.1021 30.0965 35.1447 30.059 35.1483 30.0653Z" fill="white"/>
<path d="M69.7246 20.2831C69.653 20.319 69.5767 20.3473 69.4973 20.3673L68.8403 20.5702L66.4041 21.3068C63.7214 22.0946 61.0874 23.0052 58.5129 24.0349C55.9393 25.0688 53.5105 26.3614 51.2753 27.8866C50.4265 28.4765 49.7695 28.9947 49.3327 29.363C49.1054 29.5409 48.942 29.6907 48.8248 29.7875C48.7704 29.8411 48.7083 29.8883 48.6401 29.9279C48.6878 29.8688 48.7413 29.8135 48.7999 29.7625C48.91 29.6626 49.0627 29.5034 49.2794 29.3161C49.8849 28.7786 50.5239 28.2712 51.1936 27.7961C53.4136 26.2378 55.8432 24.9253 58.4277 23.8882C61.0061 22.8523 63.6531 21.9538 66.3544 21.1976C67.3878 20.8855 68.2295 20.667 68.8084 20.5109L69.4796 20.3361C69.5595 20.3126 69.6414 20.2948 69.7246 20.2831Z" fill="white"/>
<path d="M82.0799 28.0238C82.0323 28.067 81.9786 28.1048 81.9201 28.1362L81.4478 28.4296C81.0323 28.6793 80.4428 29.0539 79.7289 29.5252C79.0151 29.9965 78.1805 30.5895 77.2821 31.2731C76.3836 31.9567 75.4389 32.7433 74.4871 33.6079C73.5354 34.4725 72.6866 35.3433 71.9372 36.1486C71.1879 36.9539 70.5558 37.7093 70.0444 38.3616C69.533 39.014 69.1281 39.5415 68.8582 39.9223L68.5421 40.3499C68.5105 40.4029 68.4698 40.4514 68.4214 40.4935C68.4438 40.4376 68.4736 40.3841 68.5102 40.3343L68.7978 39.8911C69.0464 39.5072 69.4335 38.9547 69.9343 38.3054C70.435 37.6562 71.0672 36.8884 71.8023 36.0643C72.5374 35.2403 73.404 34.3757 74.3557 33.5049C75.3075 32.634 76.2699 31.8537 77.172 31.1701C78.074 30.4865 78.9192 29.9216 79.6579 29.444C80.3966 28.9665 80.9861 28.62 81.4336 28.3859L81.9237 28.1175C81.9722 28.0818 82.0245 28.0505 82.0799 28.0238Z" fill="white"/>
<path d="M136.813 49.7389C136.987 49.9862 137.127 50.2501 137.233 50.5254C137.819 51.8284 138.213 53.1921 138.404 54.5832C138.462 54.8694 138.481 55.1607 138.461 55.4509C138.377 55.171 138.316 54.8862 138.277 54.5988C138.174 54.0713 138.014 53.3502 137.787 52.5574C137.559 51.7646 137.307 51.0654 137.112 50.5598C136.989 50.2931 136.889 50.0187 136.813 49.7389Z" fill="white"/>
<path d="M128.322 85.5186C128.322 85.5186 128.265 85.5623 128.148 85.6341L127.611 85.9619L126.759 86.4894L126.212 86.8233L125.576 87.1885C123.051 88.6528 120.421 89.9727 117.703 91.1401C116.844 91.5084 115.927 91.8736 114.979 92.2576L113.509 92.8069L112.749 93.0878L111.968 93.35L110.362 93.89L108.686 94.3988C108.121 94.5767 107.539 94.7328 106.95 94.8919C106.36 95.0511 105.767 95.2259 105.153 95.3633C102.609 95.9945 100.03 96.5061 97.4247 96.8958C94.6207 97.3253 91.7878 97.5933 88.9441 97.698C86.1003 97.8064 83.2513 97.7281 80.4208 97.4639L79.398 97.3734C79.0428 97.3453 78.7232 97.2954 78.3858 97.2548L76.3971 97.0051L74.4616 96.6929L73.5098 96.5338L72.5794 96.3465C68.1918 95.5005 63.9095 94.2773 59.7944 92.6945C57.0166 91.6381 54.3439 90.38 51.8038 88.9333C50.8911 88.4402 50.2377 87.997 49.776 87.7004L49.2575 87.3696C49.1403 87.2947 49.0835 87.251 49.0835 87.251C49.0835 87.251 49.151 87.2853 49.2682 87.3571L49.7973 87.6692C50.2661 87.9439 50.9267 88.3902 51.8429 88.8709C54.3871 90.297 57.0581 91.5402 59.8299 92.5884C63.941 94.1536 68.2157 95.3631 72.5936 96.1998L73.524 96.3871L74.4722 96.5431L76.4042 96.8553L78.3894 97.1018C78.7232 97.1393 79.0571 97.1892 79.398 97.2205L80.4172 97.3078C83.2408 97.5696 86.0826 97.6468 88.9192 97.5388C91.7556 97.4344 94.5813 97.1686 97.3786 96.7429C99.9855 96.3562 102.567 95.8488 105.113 95.2228C105.724 95.0855 106.317 94.9107 106.889 94.7546C107.461 94.5985 108.061 94.4425 108.626 94.2677L110.298 93.762L111.9 93.2283L112.681 92.9661L113.441 92.6883L114.912 92.1452C115.863 91.7675 116.776 91.4054 117.636 91.0402C120.354 89.8824 122.989 88.5794 125.527 87.1386L126.166 86.7828L126.716 86.4519L127.579 85.94L128.112 85.6279L128.322 85.5186Z" fill="#4F4F4F"/>
<path d="M113.019 88.8615L120.157 104.902H125.037L126.099 103.507L127.349 104.902H129.075L129.714 79.4788L113.019 88.8615Z" fill="#C96BCF"/>
<path d="M68.1792 91.1182L74.2165 104.902H79.7638L80.8931 103.307L81.9869 104.902H83.3649C83.3649 104.902 83.9686 89.3516 83.3649 88.9083C82.7611 88.4651 68.1792 91.1182 68.1792 91.1182Z" fill="#C96BCF"/>
<path d="M138.656 60.3108C138.659 60.342 138.659 60.3733 138.656 60.4045C138.656 60.4731 138.656 60.5605 138.631 60.6698C138.606 60.9164 138.571 61.2628 138.521 61.6998C138.496 61.9245 138.468 62.1742 138.439 62.4427C138.411 62.7111 138.336 63.0076 138.279 63.3198C138.151 63.944 138.048 64.6713 137.818 65.4485C137.711 65.8418 137.605 66.2507 137.487 66.6752C137.37 67.0997 137.203 67.5336 137.054 67.9893C136.77 68.9007 136.344 69.8402 135.935 70.839C134.953 72.9768 133.765 75.037 132.384 76.9974C130.973 78.9385 129.377 80.7702 127.611 82.4722C126.769 83.2338 125.985 83.9735 125.171 84.5916C124.77 84.9037 124.401 85.2158 124.013 85.503L122.895 86.2927C122.185 86.8139 121.499 87.2072 120.913 87.5787C120.615 87.7597 120.341 87.9376 120.082 88.0843L119.354 88.4745L118.346 89.0051L118.083 89.1393C118.022 89.1705 117.99 89.183 117.987 89.1799L118.072 89.1268L118.328 88.977L119.315 88.4214L120.025 88.0219C120.281 87.8689 120.551 87.691 120.846 87.5038C121.428 87.1261 122.117 86.7265 122.806 86.2022L123.914 85.4094C124.298 85.1284 124.663 84.8069 125.061 84.4917C125.867 83.8674 126.642 83.1308 127.48 82.3723C129.232 80.6707 130.821 78.8436 132.228 76.91C133.604 74.9582 134.792 72.9087 135.779 70.7828C136.198 69.7903 136.624 68.857 136.912 67.9487C137.061 67.4992 137.235 67.0685 137.356 66.644C137.477 66.2195 137.583 65.8137 137.693 65.4235C137.931 64.6495 138.048 63.9315 138.18 63.3073C138.24 62.9952 138.311 62.7018 138.354 62.4333C138.397 62.1649 138.425 61.9152 138.453 61.6936C138.517 61.2566 138.563 60.9132 138.599 60.6698L138.62 60.4076C138.627 60.374 138.639 60.3415 138.656 60.3108Z" fill="white"/>
<g opacity="0.2">
<path opacity="0.2" d="M130.936 46.7799C129.313 43.2497 125.783 39.913 121.702 38.4616C120.925 38.1907 120.085 38.0863 119.253 38.1568C118.42 38.2274 117.619 38.4709 116.915 38.8672C116.211 39.2636 115.624 39.8015 115.203 40.4365C114.781 41.0715 114.538 41.7854 114.493 42.5193C114.493 42.5411 114.493 42.563 114.493 42.588C114.365 44.8478 115.374 47.039 116.624 49.0241C117.874 51.0093 119.348 52.8852 120.31 54.9858C121.896 58.4861 121.947 62.3793 120.452 65.9104C119.5 68.1328 117.92 70.4988 119.351 72.7149C119.833 73.4143 120.534 73.9765 121.371 74.3342C122.208 74.6919 123.144 74.8298 124.067 74.7313C127.693 74.4441 129.576 71.5663 131.294 68.9506C132.676 66.8468 133.812 63.5757 133.88 61.1067C134.068 56.2015 133.064 51.3174 130.936 46.7799Z" fill="white"/>
</g>
<path d="M75.9712 56.7494C75.8398 56.7806 75.616 56.3155 75.2609 55.6413C75.0718 55.2659 74.8125 54.9209 74.4938 54.6207C74.1503 54.2842 73.6715 54.0782 73.1585 54.0463C72.6362 54.0526 72.1332 54.2206 71.7379 54.5208C71.3926 54.7818 71.1091 55.1 70.9034 55.4572C70.5269 56.1033 70.3849 56.5808 70.2499 56.559C70.115 56.5371 70.0333 56.0471 70.2961 55.2418C70.458 54.7555 70.7573 54.3131 71.1662 53.9558C71.4303 53.7231 71.7442 53.5385 72.0897 53.4126C72.4353 53.2867 72.8057 53.222 73.1798 53.2223C73.5807 53.2326 73.9724 53.3302 74.3198 53.5063C74.6268 53.6638 74.8997 53.8678 75.1259 54.1088C75.4831 54.497 75.7379 54.9501 75.8717 55.4353C76.1168 56.2375 76.0848 56.7213 75.9712 56.7494Z" fill="#4F4F4F"/>
<path d="M48.9946 54.8422C48.996 55.2864 48.8474 55.7209 48.5677 56.0907C48.288 56.4606 47.8897 56.7492 47.4232 56.9201C46.9568 57.0909 46.4431 57.1362 45.9473 57.0503C45.4516 56.9644 44.9959 56.7512 44.6381 56.4376C44.2803 56.124 44.0364 55.7241 43.9373 55.2886C43.8382 54.8531 43.8883 54.4015 44.0814 53.9911C44.2744 53.5806 44.6017 53.2298 45.0218 52.9829C45.4418 52.736 45.9358 52.6042 46.4411 52.6042C47.1171 52.6042 47.7655 52.8398 48.2442 53.2593C48.7228 53.6789 48.9927 54.2481 48.9946 54.8422Z" fill="#4F4F4F"/>
<path d="M130.097 36.0612C130.03 36.0115 129.971 35.955 129.92 35.8927L129.444 35.3902C129.241 35.1685 128.989 34.9001 128.684 34.6005C128.378 34.3008 128.048 33.9419 127.654 33.5736C127.26 33.2052 126.837 32.787 126.358 32.3656C125.878 31.9442 125.36 31.4948 124.809 31.0297C123.694 30.1151 122.426 29.1569 121.034 28.1986C119.642 27.2404 118.25 26.4226 116.957 25.7016C116.307 25.352 115.693 25.0118 115.096 24.7246C114.5 24.4375 113.949 24.1628 113.438 23.9287C112.926 23.6946 112.458 23.4917 112.049 23.3044C111.641 23.1171 111.278 22.9767 110.984 22.8581L110.309 22.5803C110.228 22.5521 110.151 22.5165 110.078 22.4741C110.162 22.494 110.244 22.5201 110.323 22.5522L111.012 22.8019C111.314 22.908 111.676 23.0453 112.078 23.2233C112.479 23.4012 112.972 23.5822 113.498 23.8194C114.024 24.0567 114.581 24.3032 115.171 24.5998C115.76 24.8963 116.392 25.224 117.049 25.5674C118.349 26.2822 119.741 27.1124 121.148 28.0644C122.554 29.0164 123.811 29.9934 124.926 30.9173C125.477 31.3886 125.992 31.8287 126.468 32.2688C126.944 32.709 127.366 33.1116 127.75 33.4924C128.133 33.8732 128.46 34.229 128.765 34.538C129.071 34.8471 129.305 35.1217 129.501 35.3465C129.696 35.5712 129.838 35.7366 129.952 35.8708C130.006 35.9306 130.055 35.9943 130.097 36.0612Z" fill="white"/>
<path d="M103.25 25.9857C103.155 25.9704 103.062 25.9463 102.973 25.9139L102.191 25.6798C101.858 25.5706 101.442 25.4457 100.956 25.3209C100.469 25.196 99.9186 25.0275 99.2971 24.8932L98.3276 24.6685C97.9902 24.5905 97.635 24.5312 97.2622 24.4563C96.5306 24.3033 95.7351 24.1909 94.904 24.0598C91.2805 23.5452 87.5958 23.4518 83.9445 23.7821C83.1064 23.8726 82.3074 23.9444 81.5687 24.0598C81.1958 24.116 80.8371 24.1566 80.5033 24.2159L79.5195 24.3938C78.8874 24.4937 78.3298 24.6311 77.8362 24.7341C77.3425 24.8371 76.9199 24.9401 76.579 25.0306L75.7835 25.2272C75.6926 25.2548 75.5985 25.2737 75.5029 25.2834C75.591 25.2499 75.6811 25.2208 75.7728 25.196L76.5577 24.9713C76.9128 24.8714 77.3177 24.7559 77.8113 24.6591C78.305 24.5624 78.8767 24.4032 79.4911 24.2939L80.4748 24.1067C80.83 24.0442 81.1851 23.9974 81.5403 23.9381C82.2789 23.8164 83.0815 23.7384 83.9232 23.6478C85.7554 23.4835 87.5973 23.4189 89.4385 23.4543C91.2814 23.505 93.1187 23.6583 94.9396 23.9131C95.7741 24.0474 96.5696 24.166 97.3012 24.3252C97.6564 24.4032 98.0115 24.4656 98.3666 24.5468L99.3362 24.7809C99.9576 24.9245 100.505 25.093 100.991 25.2335C101.478 25.3739 101.886 25.5019 102.22 25.6174L102.991 25.8827C103.079 25.9123 103.166 25.9467 103.25 25.9857Z" fill="white"/>
</g>
<defs>
<clipPath id="clip0">
<rect width="119.738" height="87.5686" fill="white" transform="translate(28.1733 17.3334)"/>
</clipPath>
</defs>
</svg>
