<svg width="164" height="156" viewBox="0 0 164 156" fill="none" xmlns="http://www.w3.org/2000/svg">
<g clip-path="url(#clip0)">
<path d="M19.9214 68.4457L28.7214 86.935H32.9697L33.5795 85.5237L34.3326 86.935H37.1203L36.7975 76.141L36.6606 69.767L19.9214 68.4457Z" fill="#C96BCF"/>
<path opacity="0.3" d="M19.9214 68.4457L28.7214 86.935H32.9697L33.5795 85.5237L34.3326 86.935H37.1203L36.7975 76.141L36.6606 69.767L19.9214 68.4457Z" fill="#4F4F4F"/>
<path d="M58.4438 70.4276L67.0254 86.935H71.2738L71.8835 85.6447L72.6399 86.935H75.4276L75.1015 77.056L74.9646 71.2186L58.4438 70.4276Z" fill="#C96BCF"/>
<path opacity="0.3" d="M58.4438 70.4276L67.0254 86.935H71.2738L71.8835 85.6447L72.6399 86.935H75.4276L75.1015 77.056L74.9646 71.2186L58.4438 70.4276Z" fill="#4F4F4F"/>
<path d="M107.269 21.774L107.348 21.8019L107.576 21.8981C107.864 22.0336 108.132 22.2035 108.375 22.4037C108.765 22.7191 109.096 23.0957 109.353 23.5172C109.691 24.077 109.889 24.703 109.933 25.3472C109.983 26.1339 109.773 26.9156 109.333 27.5835C108.834 28.353 108.094 28.9548 107.217 29.305C106.736 29.5082 106.216 29.6132 105.69 29.6132C105.163 29.6132 104.643 29.5082 104.162 29.305C103.646 29.0735 103.242 28.6645 103.031 28.1605C102.914 27.9031 102.867 27.6219 102.894 27.3427C102.922 27.0636 103.022 26.7955 103.187 26.5631C103.36 26.3423 103.582 26.16 103.836 26.0288C104.091 25.8975 104.372 25.8206 104.661 25.8032C105.229 25.7825 105.786 25.9576 106.229 26.2963C106.64 26.6116 106.968 27.0139 107.187 27.4711C107.405 27.9283 107.508 28.4278 107.488 28.9297C107.456 29.8364 107.113 30.7082 106.51 31.4111C106.241 31.7298 105.92 32.0044 105.558 32.2237C105.223 32.4214 104.862 32.5767 104.485 32.6859C103.835 32.8646 103.153 32.9132 102.483 32.8286C101.978 32.7686 101.485 32.6402 101.019 32.447C100.725 32.3263 100.444 32.1777 100.181 32.0035L99.9822 31.8608C99.9585 31.8455 99.9367 31.8279 99.917 31.8081C100.274 32.0327 100.652 32.2268 101.045 32.3881C101.508 32.5686 101.995 32.6866 102.493 32.7386C103.15 32.8112 103.815 32.7563 104.449 32.5773C104.814 32.4669 105.162 32.3127 105.486 32.1183C105.833 31.9039 106.14 31.6367 106.396 31.3273C106.969 30.6435 107.292 29.8009 107.318 28.9266C107.334 28.4489 107.234 27.9742 107.025 27.5394C106.817 27.1047 106.505 26.7217 106.115 26.4204C105.703 26.1058 105.185 25.9438 104.658 25.9644C104.39 25.9777 104.129 26.0465 103.892 26.166C103.656 26.2855 103.45 26.4528 103.288 26.6561C103.14 26.867 103.05 27.1097 103.026 27.3622C103.002 27.6147 103.045 27.8689 103.151 28.1015C103.354 28.5705 103.738 28.9478 104.224 29.1561C104.686 29.3512 105.186 29.452 105.691 29.452C106.197 29.452 106.697 29.3512 107.158 29.1561C108.008 28.8201 108.727 28.2413 109.216 27.4998C109.648 26.8531 109.857 26.0938 109.812 25.3286C109.766 24.7112 109.576 24.1114 109.255 23.573C109.013 23.1567 108.7 22.7814 108.329 22.4626C108.006 22.1931 107.651 21.9619 107.269 21.774Z" fill="#C96BCF"/>
<path d="M103.063 38.5048C104.342 65.9395 80.1652 79.6273 52.8002 79.6273C25.4351 79.6273 3.26074 61.8018 3.26074 39.8137C3.26074 17.8256 25.4319 1.52588e-05 52.8002 1.52588e-05C80.1685 1.52588e-05 102.053 16.5384 103.063 38.5048Z" fill="#E0A4E3"/>
<path opacity="0.3" d="M49.3472 9.83246C49.3472 9.83246 52.6337 8.83991 55.7083 12.1463C58.7829 15.4528 63.0607 21.0917 63.0607 21.0917C62.6759 22.9248 61.5511 24.3547 59.3698 25.2046L49.3472 9.83246Z" fill="#4F4F4F"/>
<path d="M20.2145 68.3371C29.5854 68.3371 37.1819 62.799 37.1819 55.9674C37.1819 49.1359 29.5854 43.5978 20.2145 43.5978C10.8436 43.5978 3.24707 49.1359 3.24707 55.9674C3.24707 62.799 10.8436 68.3371 20.2145 68.3371Z" fill="#C96BCF"/>
<path d="M36.041 22.8999C36.041 22.8999 45.9724 8.2226 50.537 9.81378C55.1017 11.405 59.3663 25.1983 59.3663 25.1983" fill="#C96BCF"/>
<path d="M24.7963 19.5408L24.3301 15.5613C24.3301 15.5613 18.1026 13.0799 12.5272 11.8733C6.9518 10.6668 5.85303 11.8733 5.85303 11.8733L14.6726 23.632L24.7963 19.5408Z" fill="#C96BCF"/>
<path opacity="0.3" d="M38.0693 5.45899L41.3689 7.32002C41.3689 7.32002 57.3452 3.28779 69.6241 7.32002L65.1214 3.6755C65.1214 3.6755 50.2374 0.620311 38.0693 5.45899Z" fill="#4F4F4F"/>
<path opacity="0.3" d="M20.2145 68.3371C29.5854 68.3371 37.1819 62.799 37.1819 55.9674C37.1819 49.1359 29.5854 43.5978 20.2145 43.5978C10.8436 43.5978 3.24707 49.1359 3.24707 55.9674C3.24707 62.799 10.8436 68.3371 20.2145 68.3371Z" fill="#4F4F4F"/>
<path d="M15.9055 68.3371C24.6839 68.3371 31.8002 62.799 31.8002 55.9674C31.8002 49.1359 24.6839 43.5978 15.9055 43.5978C7.12706 43.5978 0.0107422 49.1359 0.0107422 55.9674C0.0107422 62.799 7.12706 68.3371 15.9055 68.3371Z" fill="#C96BCF"/>
<path opacity="0.3" d="M10.4108 50.1641H9.18811C8.58668 50.1641 8.09912 50.6279 8.09912 51.2001V60.7348C8.09912 61.3069 8.58668 61.7707 9.18811 61.7707H10.4108C11.0122 61.7707 11.4998 61.3069 11.4998 60.7348V51.2001C11.4998 50.6279 11.0122 50.1641 10.4108 50.1641Z" fill="#4F4F4F"/>
<path opacity="0.3" d="M19.5436 50.1641H18.3209C17.7195 50.1641 17.2319 50.6279 17.2319 51.2001V60.7348C17.2319 61.3069 17.7195 61.7707 18.3209 61.7707H19.5436C20.145 61.7707 20.6326 61.3069 20.6326 60.7348V51.2001C20.6326 50.6279 20.145 50.1641 19.5436 50.1641Z" fill="#4F4F4F"/>
<path opacity="0.3" d="M23.8312 19.9254C25.2625 19.1562 26.0288 18.0086 25.4908 16.1165C25.4908 16.1165 18.1026 13.0862 12.5272 11.8734C6.9518 10.6606 5.85303 11.8734 5.85303 11.8734L14.6726 23.632L23.8312 19.9254Z" fill="#4F4F4F"/>
<path d="M24.3301 20.248C24.3301 20.248 23.916 19.9782 23.2182 19.5346C19.9284 17.4441 10.3166 11.4701 7.89408 11.405C4.54885 11.312 4.54233 14.057 4.54885 16.1786C4.54885 17.686 5.85303 30.7566 5.85303 30.7566" fill="#C96BCF"/>
<path d="M59.3696 25.1984C59.3576 25.1744 59.3477 25.1495 59.3402 25.1239C59.3174 25.0526 59.2848 24.9657 59.2457 24.8541C59.1577 24.6059 59.0338 24.2585 58.8805 23.815C58.5545 22.9155 58.0785 21.6159 57.4264 20.034C56.6729 18.1772 55.8018 16.3656 54.818 14.6091C54.2402 13.5739 53.5646 12.5907 52.7998 11.6718C52.3997 11.1873 51.935 10.7546 51.4173 10.3846C50.9139 9.97834 50.2672 9.76885 49.6078 9.79833C48.9482 9.878 48.3137 10.0894 47.7461 10.4187C47.1837 10.7278 46.6483 11.0794 46.1452 11.4702C45.192 12.2155 44.2933 13.0218 43.4553 13.8833C42.0339 15.3428 40.691 16.8697 39.4319 18.4583C38.3494 19.8107 37.5115 20.9397 36.9376 21.712C36.6572 22.0935 36.4388 22.3975 36.2855 22.6115L36.1127 22.8442C36.0947 22.8718 36.074 22.8978 36.0508 22.9217C36.0508 22.9217 36.0508 22.8907 36.0997 22.8349L36.2562 22.5929C36.3964 22.382 36.6083 22.0718 36.8855 21.6624C37.443 20.8746 38.2679 19.7393 39.3406 18.3777C40.5885 16.7749 41.925 15.2364 43.3444 13.7685C44.1855 12.8999 45.0875 12.0864 46.0441 11.3337C46.5566 10.9371 47.1018 10.5803 47.6743 10.2667C48.2561 9.92207 48.9087 9.69996 49.5882 9.61533C49.9395 9.58341 50.2937 9.63125 50.6218 9.75491C50.9389 9.88031 51.2388 10.0417 51.5151 10.2357C52.0424 10.6155 52.5159 11.0586 52.9237 11.5539C53.695 12.4802 54.374 13.4729 54.9517 14.5191C55.9311 16.2833 56.7925 18.1046 57.5307 19.972C58.1828 21.5632 58.6327 22.869 58.9359 23.7778C59.0859 24.2306 59.2 24.5842 59.262 24.8262C59.2946 24.9378 59.3207 25.0278 59.3402 25.0991C59.3533 25.1312 59.3631 25.1645 59.3696 25.1984Z" fill="#4F4F4F"/>
<path d="M65.1209 3.67555L65.2089 3.72208L65.4371 3.89888L66.3044 4.58746L69.4736 7.14638L69.6823 7.31387L69.4149 7.24563C67.4965 6.7347 65.5476 6.33386 63.5787 6.04527C61.1746 5.69193 58.7469 5.50328 56.3144 5.48075C51.3068 5.43036 46.3178 6.06868 41.5021 7.3759H41.4793H41.4597L38.9524 5.97703L38.3003 5.59862L38.1308 5.49936L38.0786 5.46214C38.0786 5.46214 38.0982 5.46214 38.1406 5.48696L38.3134 5.5738L38.9883 5.9305L41.5217 7.28906H41.4825C43.558 6.70472 45.6708 6.24782 47.8078 5.9212C49.0729 5.72269 50.4358 5.58001 51.8606 5.46214C53.2854 5.34428 54.795 5.29775 56.3274 5.32567C58.7635 5.34465 61.1947 5.53437 63.6015 5.89328C65.5754 6.19086 67.5278 6.60522 69.4475 7.13397L69.3888 7.23322C68.0846 6.14142 67.0054 5.25743 66.2555 4.63709L65.411 3.92369L65.1926 3.73448C65.1404 3.70037 65.1176 3.67865 65.1209 3.67555Z" fill="#4F4F4F"/>
<g opacity="0.2">
<path opacity="0.2" d="M46.7385 44.4383C46.6635 44.8819 46.1842 45.2138 45.5061 45.4371C44.684 45.6804 43.8271 45.8007 42.9662 45.7938C42.1046 45.8155 41.2446 45.7108 40.4165 45.4836C39.7318 45.2758 39.2427 44.9532 39.1579 44.5128C39.0732 44.0723 39.4253 43.5978 40.1067 43.2194C40.9803 42.793 41.9461 42.5657 42.9279 42.5555C43.9097 42.5452 44.8805 42.7523 45.7636 43.1604C46.4516 43.5295 46.8135 44.001 46.7385 44.4383Z" fill="white"/>
</g>
<path d="M25.3827 46.0388C25.3513 46.0228 25.3209 46.0052 25.2915 45.9861L25.0274 45.8186L24.6035 45.5456C24.4307 45.4464 24.222 45.3409 23.9938 45.22C22.6776 44.5609 21.2603 44.1035 19.7943 43.8645C18.7837 43.6995 17.7613 43.6083 16.736 43.5916C15.5594 43.5831 14.384 43.665 13.2212 43.8366C10.5454 44.2113 7.99314 45.156 5.75478 46.6002C5.18194 46.9877 4.63728 47.4115 4.12455 47.8688C3.623 48.3178 3.15761 48.802 2.73233 49.3173C1.93554 50.2928 1.29397 51.3745 0.828222 52.5276C0.0815552 54.5057 -0.0631025 56.6441 0.410883 58.6969C0.602956 59.4795 0.889611 60.2383 1.26512 60.9581C1.56321 61.496 1.91245 62.0068 2.30847 62.4841L2.75841 62.9897L3.12359 63.334L3.34856 63.5449C3.37457 63.5689 3.39855 63.5949 3.42029 63.6225C3.42029 63.6225 3.39094 63.6039 3.33552 63.5573L3.10076 63.3557L2.72255 63.0269L2.2563 62.5245C1.8471 62.0526 1.48779 61.5435 1.18361 61.0046C0.793659 60.2807 0.49489 59.5154 0.293506 58.7249C-0.201656 56.6498 -0.0682526 54.4838 0.678241 52.478C0.905666 51.9061 1.17815 51.3514 1.49336 50.8186C1.8228 50.2605 2.19553 49.7265 2.60843 49.2212C3.03256 48.7039 3.49684 48.2177 3.99739 47.7665C4.51944 47.3011 5.07508 46.8709 5.66022 46.4793C7.91716 45.0207 10.4942 44.0712 13.1951 43.7032C14.3679 43.5341 15.5532 43.4563 16.7393 43.4706C17.7714 43.4946 18.8003 43.5921 19.8171 43.7622C21.291 44.0153 22.7123 44.4929 24.0264 45.1765C24.2546 45.3037 24.46 45.4123 24.6296 45.5177L25.0469 45.8062L25.3012 45.9861C25.3567 46.014 25.386 46.0357 25.3827 46.0388Z" fill="#4F4F4F"/>
<path d="M11.4117 51.2527C11.4387 51.4158 11.4507 51.5808 11.4476 51.7459C11.4639 52.0933 11.4835 52.5462 11.5095 53.0921C11.5585 54.2304 11.6563 55.7999 11.7019 57.5399C11.7019 57.9742 11.7019 58.3991 11.7019 58.8116C11.709 59.2106 11.6773 59.6093 11.6074 60.0027C11.5615 60.3445 11.4335 60.6717 11.2333 60.9589C11.0332 61.2461 10.7662 61.4857 10.4532 61.659C10.2341 61.765 9.98965 61.8145 9.74422 61.8025C9.49878 61.7905 9.26094 61.7175 9.05442 61.5908C8.94372 61.5212 8.84846 61.4316 8.77402 61.3271C8.74749 61.2913 8.72764 61.2515 8.71533 61.2093C8.81995 61.3382 8.94672 61.4493 9.09028 61.538C9.28841 61.6454 9.51186 61.7035 9.73986 61.7067C9.96787 61.71 10.193 61.6583 10.3945 61.5567C10.685 61.3863 10.931 61.1554 11.114 60.8814C11.297 60.6073 11.4122 60.2973 11.4509 59.9748C11.5136 59.5901 11.5409 59.2009 11.5324 58.8116C11.5324 58.4022 11.5324 57.9773 11.5324 57.543C11.4867 55.8092 11.4085 54.2366 11.3889 53.0983C11.3889 52.5275 11.3889 52.0654 11.3889 51.7459C11.3799 51.5812 11.3876 51.4161 11.4117 51.2527Z" fill="#4F4F4F"/>
<path d="M20.4137 51.2527C20.441 51.4158 20.4541 51.5808 20.4528 51.7459C20.4528 52.0933 20.4887 52.5462 20.5115 53.0921C20.5604 54.2304 20.6582 55.7999 20.7039 57.5399C20.7039 57.9742 20.7039 58.3991 20.7039 58.8116C20.7104 59.2104 20.6798 59.609 20.6126 60.0027C20.5662 60.3444 20.438 60.6714 20.2379 60.9585C20.0378 61.2457 19.7711 61.4853 19.4584 61.659C19.2387 61.7649 18.9938 61.8144 18.7478 61.8024C18.5019 61.7904 18.2635 61.7175 18.0564 61.5908C17.9457 61.5222 17.8513 61.4324 17.7792 61.3271C17.7511 61.2918 17.7301 61.2519 17.7173 61.2093C17.823 61.3372 17.9496 61.4482 18.0922 61.538C18.2906 61.6449 18.5139 61.7026 18.7418 61.7058C18.9697 61.7091 19.1948 61.6578 19.3964 61.5567C19.6863 61.386 19.9318 61.1549 20.1142 60.8809C20.2966 60.6069 20.4113 60.2971 20.4496 59.9748C20.5139 59.5902 20.5412 59.2009 20.5311 58.8116C20.5311 58.4022 20.5311 57.9773 20.5148 57.543C20.4691 55.8092 20.3909 54.2366 20.3713 53.0983C20.3713 52.5275 20.3713 52.0654 20.3713 51.7459C20.3709 51.5807 20.3851 51.4157 20.4137 51.2527Z" fill="#4F4F4F"/>
<path d="M31.6074 58.6628C31.5932 58.7364 31.5703 58.8082 31.5389 58.8768C31.4835 59.0102 31.4216 59.2211 31.2977 59.4723C30.9717 60.1963 30.572 60.8882 30.1043 61.5381C29.412 62.5032 28.6009 63.3862 27.6883 64.1683C27.1495 64.6275 26.581 65.0543 25.9864 65.4462C25.3454 65.8666 24.6742 66.2439 23.9779 66.5753C22.6352 67.2291 21.2111 67.7189 19.7393 68.0331C18.5379 68.275 17.3124 68.3925 16.0843 68.3836C15.0377 68.3836 14.1965 68.3215 13.6129 68.2812L12.9608 68.2316C12.8818 68.23 12.8031 68.2207 12.7261 68.2037C12.8041 68.1962 12.8828 68.1962 12.9608 68.2037L13.6325 68.2223C14.2161 68.244 15.0606 68.2812 16.1007 68.2719C17.3178 68.2663 18.5309 68.1385 19.7198 67.8904C21.1728 67.5712 22.5789 67.0826 23.9062 66.4357C24.5945 66.1059 25.2589 65.7329 25.8951 65.3191C26.485 64.9306 27.0501 64.5091 27.5873 64.0567C28.4908 63.2852 29.2992 62.4183 29.9967 61.4729C30.4715 60.8354 30.883 60.1574 31.2259 59.4475C31.3596 59.1994 31.4313 58.9947 31.4965 58.8644C31.5281 58.7946 31.5652 58.7272 31.6074 58.6628Z" fill="#4F4F4F"/>
<path d="M11.2063 50.9054C11.1383 50.7976 11.0631 50.694 10.9813 50.5952C10.8617 50.4726 10.7177 50.3738 10.5576 50.3046C10.3975 50.2353 10.2246 50.1971 10.0488 50.192C9.78895 50.1899 9.53165 50.2409 9.29429 50.3415C9.05692 50.4421 8.84501 50.5899 8.67288 50.7751C8.47027 50.9944 8.32701 51.2574 8.25554 51.5412C8.18349 51.8517 8.15174 52.1694 8.16098 52.4873C8.16098 53.821 8.16098 55.0307 8.16098 55.8992C8.16098 56.3117 8.16098 56.6591 8.16098 56.9382C8.16752 57.065 8.15767 57.1921 8.13164 57.3166C8.10681 57.1919 8.0948 57.0652 8.09577 56.9382C8.09577 56.6591 8.07295 56.3179 8.05665 55.9023C8.03383 55.0245 8.00774 53.8179 7.9947 52.4904C7.98912 52.1587 8.02524 51.8276 8.1023 51.504C8.18028 51.196 8.33964 50.912 8.56528 50.679C8.75336 50.4809 8.98491 50.3247 9.24353 50.2212C9.50215 50.1178 9.78151 50.0697 10.0618 50.0803C10.2511 50.0896 10.4362 50.137 10.6048 50.2193C10.7734 50.3017 10.9217 50.4171 11.04 50.558C11.1036 50.6326 11.1542 50.7163 11.19 50.8061C11.203 50.8682 11.2128 50.9054 11.2063 50.9054Z" fill="white"/>
<path d="M17.1795 51.6219C17.2251 51.6219 17.2643 53.2565 17.2643 55.2726C17.2643 57.2888 17.2251 58.9327 17.1795 58.9327C17.1339 58.9327 17.0947 57.2981 17.0947 55.2788C17.0947 53.2596 17.1306 51.6219 17.1795 51.6219Z" fill="white"/>
<path d="M14.4437 44.581C14.3765 44.5881 14.3087 44.5881 14.2415 44.581C14.1111 44.581 13.9155 44.581 13.6677 44.581C12.9664 44.6043 12.2678 44.6768 11.5777 44.7981C9.28616 45.1828 7.13658 46.1202 5.33447 47.5207C3.53236 48.9212 2.13793 50.738 1.28448 52.7974C1.0189 53.4153 0.800955 54.0508 0.632385 54.6988C0.567176 54.9283 0.537832 55.1113 0.505227 55.2323C0.492991 55.2945 0.475547 55.3557 0.45306 55.4153C0.450832 55.3516 0.457409 55.288 0.472623 55.2261C0.492185 55.102 0.515009 54.9159 0.570436 54.6864C0.711006 54.0272 0.910622 53.3807 1.1671 52.754C2.0058 50.6646 3.40687 48.8216 5.22998 47.4095C7.05309 45.9975 9.23423 45.0659 11.5549 44.7081C12.2519 44.5963 12.9576 44.5413 13.6644 44.5437C13.9155 44.5437 14.1079 44.5437 14.2383 44.5623C14.3073 44.5602 14.3763 44.5665 14.4437 44.581Z" fill="white"/>
<path d="M5.9176 28.7809C5.90517 28.8417 5.88548 28.9011 5.85891 28.9577C5.80349 29.0848 5.73828 29.2461 5.65677 29.4478C5.57526 29.6494 5.45788 29.9192 5.33072 30.2263C5.20356 30.5334 5.07314 30.8745 4.94925 31.2685C4.82535 31.6624 4.67211 32.0811 4.54169 32.5464C4.41127 33.0116 4.27759 33.5048 4.14391 34.0321C3.5991 36.3181 3.34297 38.6579 3.38097 41.0017C3.39727 41.5414 3.40705 42.0562 3.44943 42.5339C3.49182 43.0116 3.52443 43.4644 3.57007 43.8645C3.61572 44.2647 3.67441 44.6369 3.72005 44.9594C3.7657 45.282 3.81135 45.555 3.85699 45.7814C3.90264 46.0078 3.9222 46.166 3.94829 46.3025C3.96153 46.3627 3.96808 46.424 3.96785 46.4855C3.94101 46.4292 3.92236 46.3698 3.91242 46.3087L3.79178 45.7938C3.73636 45.5705 3.67767 45.2944 3.6255 44.9719C3.57333 44.6493 3.49834 44.2864 3.4527 43.877C3.40705 43.4675 3.34184 43.024 3.30923 42.5432C3.27663 42.0624 3.24403 41.5476 3.22446 40.9924C3.16782 38.6353 3.42527 36.281 3.99067 33.9856C4.13087 33.4583 4.25477 32.9558 4.40475 32.4967C4.55473 32.0377 4.69493 31.6065 4.83513 31.2188C4.97533 30.8311 5.11879 30.4837 5.24269 30.1798C5.36659 29.8758 5.4807 29.6183 5.56873 29.4105L5.80023 28.9298C5.83232 28.8755 5.87178 28.8254 5.9176 28.7809Z" fill="white"/>
<path d="M6.40361 12.6519C6.40361 12.6519 6.26994 12.8194 6.07757 13.1451C5.81521 13.6092 5.63458 14.1111 5.54285 14.6308C5.40824 15.4079 5.34171 16.1943 5.34396 16.9819C5.31788 17.8721 5.31136 18.8429 5.34396 19.8789C5.39613 21.9354 5.5722 23.7902 5.73522 25.1301C5.81999 25.7815 5.89172 26.315 5.94389 26.7151C5.96671 26.8857 5.98628 27.0253 5.99932 27.1462C6.00796 27.1966 6.00796 27.2479 5.99932 27.2982C5.97823 27.2517 5.96396 27.2027 5.95693 27.1524C5.93411 27.0346 5.90476 26.895 5.8689 26.7244C5.79717 26.3522 5.70262 25.8125 5.6048 25.1456C5.35713 23.3969 5.21019 21.6367 5.16464 19.8727C5.13856 18.8429 5.14834 17.8597 5.1842 16.9664C5.19056 16.1724 5.2702 15.3805 5.42222 14.5998C5.5299 14.0703 5.73521 13.5631 6.02866 13.1017C6.10839 12.977 6.20007 12.8597 6.30254 12.7512C6.36123 12.6829 6.40035 12.6457 6.40361 12.6519Z" fill="white"/>
<path d="M38.1479 2.93113C38.0821 2.9669 38.012 2.99502 37.9392 3.01488L37.336 3.21649L35.0993 3.9485C32.6364 4.73132 30.2182 5.63619 27.8546 6.6594C25.4917 7.68687 23.2619 8.97127 21.2098 10.4869C20.4305 11.0731 19.8274 11.588 19.4263 11.954C19.2176 12.1308 19.0677 12.2797 18.9601 12.3759C18.9101 12.4291 18.8531 12.476 18.7905 12.5154C18.8343 12.4567 18.8834 12.4017 18.9372 12.3511C19.0383 12.2518 19.1785 12.0936 19.3774 11.9075C19.9333 11.3734 20.52 10.8691 21.1348 10.397C23.173 8.84844 25.4036 7.5442 27.7764 6.51362C30.1435 5.48428 32.5737 4.59144 35.0537 3.83994C36.0025 3.52977 36.7752 3.31264 37.3067 3.15756L37.9229 2.98386C37.9963 2.96048 38.0715 2.94284 38.1479 2.93113Z" fill="white"/>
<path d="M49.4904 10.6233C49.4466 10.6663 49.3973 10.7038 49.3437 10.735L48.9101 11.0265C48.5286 11.2747 47.9873 11.6469 47.332 12.1152C46.6766 12.5836 45.9104 13.1729 45.0855 13.8522C44.2606 14.5315 43.3934 15.3131 42.5196 16.1723C41.6457 17.0315 40.8665 17.8968 40.1785 18.6971C39.4906 19.4973 38.9102 20.2479 38.4407 20.8962C37.9712 21.5445 37.5995 22.0687 37.3517 22.4471L37.0615 22.872C37.0325 22.9247 36.9951 22.9728 36.9507 23.0147C36.9713 22.9591 36.9986 22.906 37.0322 22.8565L37.2963 22.416C37.5245 22.0345 37.8799 21.4855 38.3396 20.8404C38.7994 20.1952 39.3797 19.4322 40.0546 18.6133C40.7296 17.7945 41.5251 16.9353 42.3989 16.0699C43.2727 15.2045 44.1563 14.4291 44.9845 13.7498C45.8126 13.0706 46.5886 12.5092 47.2668 12.0346C47.945 11.56 48.4862 11.2157 48.897 10.9831L49.347 10.7164C49.3915 10.6809 49.4395 10.6498 49.4904 10.6233Z" fill="white"/>
<path d="M99.7407 32.202C99.8998 32.4478 100.029 32.71 100.125 32.9836C100.664 34.2784 101.026 35.6335 101.201 37.0159C101.254 37.3004 101.272 37.5898 101.254 37.8782C101.176 37.6 101.12 37.3171 101.084 37.0314C100.989 36.5072 100.843 35.7907 100.634 35.0029C100.425 34.215 100.194 33.5202 100.015 33.0178C99.902 32.7528 99.8104 32.4801 99.7407 32.202Z" fill="white"/>
<path d="M91.9447 67.7571C91.9447 67.7571 91.8925 67.8005 91.7849 67.8719L91.2926 68.1975L90.5101 68.7217L90.0079 69.0536L89.4243 69.4165C87.1059 70.8716 84.6914 72.1832 82.1959 73.3433C81.4069 73.7093 80.5657 74.0722 79.6951 74.4537L78.3453 74.9996L77.6475 75.2788L76.9302 75.5393L75.4565 76.0759L73.9176 76.5815C73.3992 76.7583 72.8645 76.9134 72.3232 77.0715C71.782 77.2297 71.2375 77.4034 70.6734 77.5399C68.3386 78.1672 65.9704 78.6756 63.5787 79.0628C61.0044 79.4897 58.4035 79.7559 55.7927 79.86C53.1819 79.9677 50.5662 79.8899 47.9676 79.6274L47.0286 79.5374C46.7025 79.5095 46.4091 79.4599 46.0993 79.4195L44.2735 79.1714L42.4965 78.8612L41.6227 78.7031L40.7685 78.5169C36.7403 77.6763 32.8088 76.4608 29.0308 74.8879C26.4806 73.8381 24.0267 72.588 21.6948 71.1504C20.8568 70.6603 20.2569 70.2199 19.8331 69.9252L19.357 69.5964C19.2494 69.522 19.1973 69.4785 19.1973 69.4785C19.1973 69.4785 19.2592 69.5127 19.3668 69.584L19.8526 69.8942C20.283 70.1671 20.8894 70.6107 21.7306 71.0883C24.0664 72.5054 26.5186 73.7408 29.0634 74.7825C32.8377 76.3379 36.7623 77.5398 40.7815 78.3712L41.6358 78.5573L42.5063 78.7124L44.28 79.0225L46.1026 79.2676C46.4091 79.3048 46.7156 79.3544 47.0286 79.3854L47.9643 79.4723C50.5566 79.7324 53.1656 79.8091 55.7699 79.7018C58.3739 79.5981 60.9681 79.3339 63.5363 78.9109C65.9297 78.5266 68.3 78.0224 70.6376 77.4003C71.1984 77.2639 71.7428 77.0902 72.2678 76.9351C72.7927 76.78 73.3437 76.6249 73.8621 76.4512L75.3978 75.9487L76.8683 75.4183L77.5856 75.1578L78.2833 74.8817L79.6332 74.342C80.507 73.9667 81.3449 73.6069 82.1339 73.244C84.6297 72.0935 87.0492 70.7987 89.3787 69.3669L89.9656 69.0133L90.4709 68.6845L91.2632 68.1758L91.7523 67.8656L91.9447 67.7571Z" fill="#4F4F4F"/>
<path d="M77.8955 71.079L84.449 87.0187H88.9289L89.9038 85.6322L91.0515 87.0187H92.636L93.2229 61.7552L77.8955 71.079Z" fill="#C96BCF"/>
<path d="M36.729 73.3215L42.2718 87.0187H47.3646L48.4015 85.4337L49.4057 87.0187H50.6707C50.6707 87.0187 51.225 71.566 50.6707 71.1255C50.1165 70.6851 36.729 73.3215 36.729 73.3215Z" fill="#C96BCF"/>
<path d="M101.433 42.7076C101.436 42.7385 101.436 42.7697 101.433 42.8006C101.433 42.8689 101.433 42.9557 101.41 43.0643C101.387 43.3093 101.355 43.6536 101.309 44.0878C101.286 44.3111 101.26 44.5593 101.234 44.826C101.208 45.0928 101.139 45.3874 101.087 45.6976C100.97 46.318 100.875 47.0407 100.663 47.813C100.566 48.2038 100.468 48.6101 100.36 49.032C100.253 49.4538 100.099 49.8849 99.9625 50.3378C99.7016 51.2435 99.3104 52.1771 98.9354 53.1697C98.0333 55.294 96.9426 57.3413 95.675 59.2894C94.3799 61.2183 92.9139 63.0384 91.2929 64.7298C90.5202 65.4866 89.7996 66.2217 89.053 66.8358C88.6845 67.146 88.3454 67.4562 87.99 67.7415L86.963 68.5263C86.3109 69.0443 85.6816 69.4351 85.1437 69.8042C84.8698 69.9841 84.6187 70.1609 84.3807 70.3067L83.7123 70.6944L82.7863 71.2217L82.5451 71.355C82.4896 71.3861 82.4603 71.3985 82.457 71.3954L82.5353 71.3426L82.77 71.1938L83.6765 70.6416L84.3285 70.2446C84.5633 70.0926 84.8111 69.9158 85.0817 69.7297C85.6164 69.3544 86.249 68.9574 86.8815 68.4363L87.8987 67.6485C88.2509 67.3693 88.5867 67.0499 88.9519 66.7366C89.692 66.1162 90.4028 65.3842 91.1723 64.6305C92.7814 62.9396 94.2396 61.124 95.5315 59.2025C96.7949 57.263 97.8856 55.2264 98.792 53.1138C99.1767 52.1275 99.5679 51.2001 99.832 50.2975C99.969 49.8508 100.129 49.4228 100.24 49.0009C100.35 48.5791 100.448 48.1759 100.549 47.7882C100.768 47.019 100.875 46.3056 100.996 45.6852C101.051 45.375 101.117 45.0835 101.156 44.8167C101.195 44.55 101.221 44.3018 101.247 44.0816C101.306 43.6474 101.348 43.3062 101.381 43.0643L101.4 42.8037C101.407 42.7704 101.417 42.738 101.433 42.7076Z" fill="white"/>
<g opacity="0.2">
<path opacity="0.2" d="M94.3447 29.2616C92.8547 25.7535 89.6138 22.4378 85.8676 20.9955C85.1538 20.7264 84.3831 20.6226 83.6188 20.6927C82.8546 20.7628 82.1189 21.0047 81.4724 21.3986C80.8258 21.7925 80.287 22.327 79.9004 22.958C79.5138 23.589 79.2904 24.2984 79.2488 25.0277C79.2488 25.0495 79.2488 25.0712 79.2488 25.096C79.1314 27.3416 80.0574 29.519 81.2051 31.4917C82.3528 33.4644 83.7059 35.3286 84.5895 37.416C86.0457 40.8943 86.0921 44.763 84.7199 48.272C83.8461 50.4805 82.3952 52.8316 83.7091 55.0338C84.1516 55.7287 84.7955 56.2875 85.5636 56.6429C86.3316 56.9983 87.1911 57.1353 88.039 57.0375C91.368 56.7521 93.096 53.8923 94.6741 51.2931C95.9424 49.2025 96.9857 45.9519 97.0477 43.4985C97.2202 38.6241 96.2987 33.7706 94.3447 29.2616Z" fill="white"/>
</g>
<path d="M43.8818 39.1685C43.7612 39.1995 43.5558 38.7373 43.2297 38.0674C43.0561 37.6943 42.818 37.3515 42.5255 37.0531C42.2101 36.7187 41.7705 36.5141 41.2995 36.4824C40.82 36.4887 40.3582 36.6556 39.9953 36.9539C39.6783 37.2133 39.418 37.5294 39.2291 37.8844C38.8835 38.5264 38.7531 39.001 38.6292 38.9793C38.5053 38.9576 38.4303 38.4706 38.6716 37.6704C38.8202 37.1871 39.095 36.7475 39.4704 36.3924C39.7129 36.1612 40.0011 35.9777 40.3183 35.8526C40.6356 35.7275 40.9757 35.6633 41.3191 35.6635C41.6871 35.6737 42.0468 35.7707 42.3657 35.9458C42.6476 36.1023 42.8981 36.3049 43.1058 36.5444C43.4338 36.9302 43.6676 37.3805 43.7905 37.8627C44.0155 38.6598 43.9861 39.1406 43.8818 39.1685Z" fill="#4F4F4F"/>
<path d="M19.1163 37.2733C19.1176 37.7146 18.9812 38.1464 18.7244 38.514C18.4676 38.8815 18.1019 39.1684 17.6736 39.3381C17.2454 39.5078 16.7738 39.5529 16.3187 39.4675C15.8635 39.3822 15.4452 39.1703 15.1167 38.8586C14.7882 38.547 14.5642 38.1496 14.4733 37.7169C14.3823 37.2841 14.4283 36.8354 14.6056 36.4275C14.7828 36.0196 15.0833 35.671 15.4689 35.4257C15.8546 35.1803 16.3081 35.0494 16.772 35.0494C17.3926 35.0494 17.9879 35.2835 18.4273 35.7004C18.8668 36.1173 19.1145 36.6829 19.1163 37.2733Z" fill="#4F4F4F"/>
<path d="M93.5755 18.6103C93.5143 18.5609 93.4595 18.5046 93.4125 18.4428L92.9756 17.9434C92.7897 17.7232 92.5582 17.4564 92.2778 17.1587C91.9974 16.8609 91.6942 16.5042 91.3323 16.1382C90.9704 15.7722 90.5824 15.3566 90.1422 14.9378C89.7021 14.5191 89.226 14.0724 88.7207 13.6103C87.6969 12.7015 86.5329 11.7493 85.2548 10.797C83.9767 9.8448 82.6986 9.03215 81.5118 8.31565C80.9151 7.96826 80.3511 7.63017 79.8033 7.34481C79.2556 7.05945 78.7502 6.7865 78.2807 6.55387C77.8112 6.32124 77.3808 6.11963 77.0058 5.93353C76.6309 5.74743 76.2983 5.60785 76.0277 5.48998L75.4082 5.21393C75.3339 5.18594 75.2629 5.15059 75.1963 5.10847C75.2735 5.12819 75.3487 5.15413 75.4213 5.18601L76.0538 5.43415C76.3309 5.53961 76.6635 5.67609 77.0319 5.85288C77.4004 6.02968 77.8536 6.20958 78.3361 6.44531C78.8187 6.68104 79.3306 6.92608 79.8718 7.22074C80.413 7.51541 80.9934 7.84109 81.5966 8.18227C82.7899 8.89257 84.068 9.71763 85.3591 10.6637C86.6503 11.6097 87.8045 12.5805 88.8283 13.4986C89.3336 13.967 89.8064 14.4043 90.2433 14.8417C90.6802 15.279 91.0682 15.6791 91.4203 16.0575C91.7725 16.436 92.0724 16.7895 92.3528 17.0966C92.6332 17.4037 92.8484 17.6766 93.0277 17.9C93.2071 18.1233 93.3375 18.2877 93.4418 18.4211C93.4918 18.4805 93.5366 18.5437 93.5755 18.6103Z" fill="white"/>
<path d="M68.9261 8.59797C68.8389 8.58273 68.7537 8.55882 68.6718 8.52663L67.9545 8.294C67.648 8.18544 67.2665 8.06137 66.8199 7.9373C66.3732 7.81324 65.8678 7.64574 65.2972 7.51237L64.4071 7.28904C64.0974 7.2115 63.7713 7.15257 63.429 7.07813C62.7573 6.92614 62.027 6.81448 61.264 6.68421C57.9373 6.17282 54.5544 6.08001 51.2023 6.40816C50.4328 6.49811 49.6992 6.56945 49.021 6.68421C48.6787 6.74004 48.3494 6.78036 48.0429 6.8393L47.1397 7.01609C46.5594 7.11535 46.0475 7.25182 45.5943 7.35418C45.1411 7.45654 44.7531 7.55889 44.4401 7.64884L43.7097 7.84425C43.6262 7.87168 43.5399 7.8904 43.4521 7.90008C43.533 7.86683 43.6157 7.83784 43.6999 7.81324L44.4205 7.58991C44.7466 7.49066 45.1182 7.37589 45.5714 7.27974C46.0247 7.18359 46.5496 7.0254 47.1136 6.91684L48.0168 6.73074C48.3428 6.6687 48.6689 6.62217 48.9949 6.56324C49.6731 6.44228 50.41 6.36473 51.1827 6.27478C52.8647 6.11147 54.5558 6.04724 56.2462 6.08248C57.9381 6.13286 59.625 6.28515 61.2966 6.53843C62.0628 6.6718 62.7932 6.78967 63.4648 6.94786C63.7909 7.0254 64.1169 7.08743 64.443 7.16808L65.3331 7.40071C65.9037 7.54339 66.4058 7.71088 66.8525 7.85046C67.2991 7.99003 67.6741 8.1172 67.9806 8.23197L68.6881 8.49561C68.7696 8.52499 68.8491 8.55918 68.9261 8.59797Z" fill="white"/>
</g>
<g clip-path="url(#clip1)">
<path d="M162.141 107.161H113.353V116.755H162.141V107.161Z" fill="#E0A4E3"/>
<path d="M118.135 116.817C117.926 115.244 117.856 113.652 117.925 112.064C117.856 110.473 117.926 108.879 118.135 107.302C118.335 108.88 118.403 110.473 118.338 112.064C118.403 113.652 118.335 115.243 118.135 116.817Z" fill="#4F4F4F"/>
<path d="M115.465 116.817C115.261 115.243 115.193 113.652 115.263 112.064C115.193 110.473 115.261 108.879 115.465 107.302C115.665 108.88 115.733 110.473 115.668 112.064C115.733 113.652 115.665 115.243 115.465 116.817Z" fill="#4F4F4F"/>
<path d="M123.996 116.817C123.791 115.243 123.724 113.652 123.793 112.064C123.723 110.473 123.791 108.879 123.996 107.302C124.196 108.88 124.263 110.473 124.198 112.064C124.263 113.652 124.195 115.243 123.996 116.817Z" fill="#4F4F4F"/>
<path d="M121.326 116.817C121.122 115.243 121.054 113.652 121.124 112.064C121.054 110.473 121.122 108.879 121.326 107.302C121.519 108.88 121.579 110.474 121.507 112.064C121.579 113.651 121.519 115.242 121.326 116.817Z" fill="#4F4F4F"/>
<path d="M129.857 116.817C129.657 115.243 129.589 113.652 129.654 112.064C129.589 110.473 129.657 108.88 129.857 107.302C130.061 108.879 130.129 110.473 130.06 112.064C130.129 113.652 130.061 115.243 129.857 116.817Z" fill="#4F4F4F"/>
<path d="M127.187 116.817C126.987 115.243 126.919 113.652 126.984 112.064C126.919 110.473 126.987 108.88 127.187 107.302C127.391 108.879 127.459 110.473 127.389 112.064C127.458 113.652 127.391 115.243 127.187 116.817Z" fill="#4F4F4F"/>
<path d="M135.717 116.817C135.517 115.243 135.45 113.652 135.515 112.064C135.45 110.473 135.517 108.88 135.717 107.302C135.922 108.879 135.989 110.473 135.92 112.064C135.989 113.652 135.921 115.243 135.717 116.817Z" fill="#4F4F4F"/>
<path d="M133.083 116.817C132.884 115.243 132.816 113.652 132.881 112.064C132.816 110.473 132.884 108.88 133.083 107.302C133.293 108.879 133.363 110.473 133.293 112.064C133.363 113.652 133.292 115.244 133.083 116.817Z" fill="#4F4F4F"/>
<path d="M141.585 116.817C141.376 115.244 141.306 113.652 141.375 112.064C141.306 110.473 141.376 108.879 141.585 107.302C141.778 108.88 141.838 110.474 141.766 112.064C141.838 113.651 141.777 115.242 141.585 116.817Z" fill="#4F4F4F"/>
<path d="M138.916 116.817C138.711 115.243 138.644 113.652 138.713 112.064C138.643 110.473 138.711 108.879 138.916 107.302C139.115 108.88 139.183 110.473 139.118 112.064C139.183 113.652 139.115 115.243 138.916 116.817Z" fill="#4F4F4F"/>
<path d="M147.445 116.817C147.241 115.243 147.173 113.652 147.243 112.064C147.173 110.473 147.241 108.879 147.445 107.302C147.645 108.88 147.713 110.473 147.648 112.064C147.713 113.652 147.645 115.243 147.445 116.817Z" fill="#4F4F4F"/>
<path d="M144.776 116.817C144.572 115.243 144.504 113.652 144.573 112.064C144.504 110.473 144.572 108.879 144.776 107.302C144.976 108.88 145.044 110.473 144.978 112.064C145.043 113.652 144.976 115.243 144.776 116.817Z" fill="#4F4F4F"/>
<path d="M153.343 116.817C153.143 115.243 153.075 113.652 153.14 112.064C153.075 110.473 153.143 108.88 153.343 107.302C153.547 108.879 153.615 110.473 153.545 112.064C153.615 113.652 153.547 115.243 153.343 116.817Z" fill="#4F4F4F"/>
<path d="M150.637 116.817C150.442 115.242 150.379 113.651 150.449 112.064C150.379 110.474 150.442 108.88 150.637 107.302C150.841 108.879 150.909 110.473 150.84 112.064C150.909 113.652 150.841 115.243 150.637 116.817Z" fill="#4F4F4F"/>
<path d="M159.167 116.817C158.967 115.243 158.899 113.652 158.964 112.064C158.899 110.473 158.967 108.88 159.167 107.302C159.371 108.879 159.439 110.473 159.37 112.064C159.439 113.652 159.371 115.243 159.167 116.817Z" fill="#4F4F4F"/>
<path d="M156.497 116.817C156.297 115.243 156.229 113.652 156.294 112.064C156.229 110.473 156.297 108.88 156.497 107.302C156.706 108.879 156.776 110.473 156.707 112.064C156.776 113.652 156.706 115.244 156.497 116.817Z" fill="#4F4F4F"/>
<path d="M162.141 107.161C162.141 107.287 151.165 107.38 137.635 107.38C124.104 107.38 113.121 107.287 113.121 107.161C113.121 107.036 124.097 106.942 137.635 106.942C151.172 106.942 162.141 107.044 162.141 107.161Z" fill="#4F4F4F"/>
<path d="M158.943 116.904H110.155V126.497H158.943V116.904Z" fill="#E0A4E3"/>
<path d="M114.937 126.56C114.738 124.99 114.67 123.405 114.734 121.822C114.669 120.231 114.737 118.638 114.937 117.06C115.141 118.637 115.209 120.231 115.14 121.822C115.208 123.405 115.14 124.991 114.937 126.56Z" fill="#4F4F4F"/>
<path d="M112.267 126.56C112.08 124.989 112.024 123.403 112.1 121.822C112.035 120.231 112.103 118.638 112.303 117.06C112.495 118.638 112.551 120.232 112.469 121.822C112.538 123.405 112.47 124.991 112.267 126.56Z" fill="#4F4F4F"/>
<path d="M120.784 126.56C120.59 124.99 120.527 123.404 120.596 121.822C120.525 120.226 120.588 118.628 120.784 117.045C120.994 118.626 121.066 120.226 121.001 121.822C121.064 123.405 120.992 124.991 120.784 126.56Z" fill="#4F4F4F"/>
<path d="M118.135 126.56C117.927 124.991 117.857 123.405 117.925 121.822C117.856 120.231 117.926 118.637 118.135 117.06C118.335 118.638 118.403 120.231 118.338 121.822C118.402 123.405 118.334 124.99 118.135 126.56Z" fill="#4F4F4F"/>
<path d="M126.666 126.56C126.463 124.991 126.395 123.405 126.463 121.822C126.394 120.231 126.462 118.637 126.666 117.06C126.866 118.638 126.934 120.231 126.869 121.822C126.933 123.405 126.865 124.99 126.666 126.56Z" fill="#4F4F4F"/>
<path d="M123.996 126.56C123.792 124.991 123.725 123.405 123.793 121.822C123.723 120.231 123.791 118.637 123.996 117.06C124.196 118.638 124.263 120.231 124.198 121.822C124.262 123.405 124.195 124.99 123.996 126.56Z" fill="#4F4F4F"/>
<path d="M132.527 126.56C132.336 124.989 132.28 123.403 132.36 121.822C132.291 120.231 132.359 118.637 132.563 117.06C132.751 118.639 132.807 120.232 132.729 121.822C132.794 123.405 132.726 124.99 132.527 126.56Z" fill="#4F4F4F"/>
<path d="M129.857 126.56C129.658 124.99 129.59 123.405 129.654 121.822C129.589 120.231 129.657 118.638 129.857 117.06C130.061 118.637 130.129 120.231 130.06 121.822C130.128 123.405 130.06 124.991 129.857 126.56Z" fill="#4F4F4F"/>
<path d="M138.387 126.56C138.188 124.99 138.12 123.405 138.184 121.822C138.119 120.231 138.187 118.638 138.387 117.06C138.591 118.637 138.659 120.231 138.589 121.822C138.658 123.405 138.59 124.991 138.387 126.56Z" fill="#4F4F4F"/>
<path d="M135.717 126.56C135.518 124.99 135.451 123.405 135.515 121.822C135.45 120.231 135.517 118.638 135.717 117.06C135.922 118.637 135.989 120.231 135.92 121.822C135.988 123.405 135.921 124.991 135.717 126.56Z" fill="#4F4F4F"/>
<path d="M144.248 126.56C144.049 124.99 143.981 123.405 144.045 121.822C143.98 120.231 144.048 118.638 144.248 117.06C144.452 118.637 144.52 120.231 144.451 121.822C144.519 123.405 144.451 124.991 144.248 126.56Z" fill="#4F4F4F"/>
<path d="M141.585 126.56C141.377 124.991 141.307 123.405 141.375 121.822C141.306 120.231 141.376 118.637 141.585 117.06C141.778 118.638 141.838 120.232 141.766 121.822C141.837 123.404 141.777 124.99 141.585 126.56Z" fill="#4F4F4F"/>
<path d="M150.116 126.56C149.912 124.991 149.845 123.405 149.913 121.822C149.844 120.231 149.911 118.637 150.116 117.06C150.316 118.638 150.383 120.231 150.318 121.822C150.382 123.405 150.315 124.99 150.116 126.56Z" fill="#4F4F4F"/>
<path d="M147.445 126.56C147.242 124.991 147.174 123.405 147.243 121.822C147.173 120.231 147.241 118.637 147.445 117.06C147.645 118.638 147.713 120.231 147.648 121.822C147.712 123.405 147.644 124.99 147.445 126.56Z" fill="#4F4F4F"/>
<path d="M155.976 126.56C155.773 124.991 155.705 123.405 155.773 121.822C155.704 120.231 155.772 118.637 155.976 117.06C156.176 118.638 156.244 120.231 156.179 121.822C156.243 123.405 156.175 124.99 155.976 126.56Z" fill="#4F4F4F"/>
<path d="M153.343 126.56C153.132 124.991 153.052 123.406 153.104 121.822C153.05 120.225 153.13 118.626 153.343 117.045C153.536 118.628 153.591 120.227 153.509 121.822C153.589 123.403 153.534 124.989 153.343 126.56Z" fill="#4F4F4F"/>
<path d="M158.95 116.904C158.95 117.021 147.974 117.123 134.444 117.123C120.914 117.123 109.93 117.021 109.93 116.904C109.93 116.786 120.899 116.684 134.444 116.684C147.988 116.684 158.95 116.778 158.95 116.904Z" fill="#4F4F4F"/>
<path d="M162.93 126.56H114.141V136.153H162.93V126.56Z" fill="#E0A4E3"/>
<path d="M118.924 136.216C118.725 134.641 118.657 133.05 118.722 131.462C118.657 129.872 118.724 128.278 118.924 126.701C119.129 128.278 119.196 129.872 119.127 131.462C119.196 133.05 119.128 134.642 118.924 136.216Z" fill="#4F4F4F"/>
<path d="M116.254 136.216C116.054 134.641 115.986 133.05 116.051 131.462C115.986 129.872 116.054 128.278 116.254 126.701C116.453 128.278 116.516 129.872 116.442 131.462C116.516 133.05 116.453 134.641 116.254 136.216Z" fill="#4F4F4F"/>
<path d="M124.785 136.216C124.585 134.641 124.517 133.05 124.582 131.462C124.517 129.872 124.585 128.278 124.785 126.701C124.994 128.277 125.064 129.872 124.994 131.462C125.064 133.051 124.994 134.642 124.785 136.216Z" fill="#4F4F4F"/>
<path d="M122.122 136.216C121.917 134.642 121.85 133.05 121.919 131.462C121.849 129.872 121.917 128.278 122.122 126.701C122.322 128.278 122.389 129.872 122.324 131.462C122.389 133.05 122.321 134.641 122.122 136.216Z" fill="#4F4F4F"/>
<path d="M130.652 136.216C130.448 134.642 130.38 133.05 130.45 131.462C130.38 129.872 130.448 128.278 130.652 126.701C130.852 128.278 130.92 129.872 130.855 131.462C130.92 133.05 130.852 134.641 130.652 136.216Z" fill="#4F4F4F"/>
<path d="M128.019 136.216C127.815 134.642 127.747 133.05 127.816 131.462C127.747 129.872 127.815 128.278 128.019 126.701C128.219 128.278 128.287 129.872 128.222 131.462C128.287 133.05 128.219 134.641 128.019 136.216Z" fill="#4F4F4F"/>
<path d="M136.513 136.216C136.309 134.642 136.241 133.05 136.31 131.462C136.241 129.872 136.308 128.278 136.513 126.701C136.708 128.279 136.771 129.872 136.701 131.462C136.771 133.05 136.708 134.641 136.513 136.216Z" fill="#4F4F4F"/>
<path d="M133.843 136.216C133.643 134.641 133.576 133.05 133.641 131.462C133.575 129.872 133.643 128.278 133.843 126.701C134.048 128.278 134.115 129.872 134.046 131.462C134.115 133.05 134.047 134.642 133.843 136.216Z" fill="#4F4F4F"/>
<path d="M142.374 136.216C142.174 134.641 142.106 133.05 142.171 131.462C142.106 129.872 142.174 128.278 142.374 126.701C142.578 128.278 142.646 129.872 142.577 131.462C142.646 133.05 142.578 134.642 142.374 136.216Z" fill="#4F4F4F"/>
<path d="M139.704 136.216C139.504 134.641 139.436 133.05 139.501 131.462C139.436 129.872 139.504 128.278 139.704 126.701C139.908 128.278 139.976 129.872 139.906 131.462C139.976 133.05 139.908 134.642 139.704 136.216Z" fill="#4F4F4F"/>
<path d="M148.234 136.216C148.035 134.641 147.967 133.05 148.032 131.462C147.967 129.872 148.034 128.278 148.234 126.701C148.443 128.277 148.514 129.872 148.444 131.462C148.514 133.051 148.443 134.642 148.234 136.216Z" fill="#4F4F4F"/>
<path d="M145.572 136.216C145.372 134.641 145.309 133.05 145.384 131.462C145.314 129.872 145.382 128.278 145.586 126.701C145.786 128.278 145.854 129.872 145.789 131.462C145.849 133.051 145.776 134.642 145.572 136.216Z" fill="#4F4F4F"/>
<path d="M154.102 136.216C153.898 134.642 153.83 133.05 153.899 131.462C153.83 129.872 153.898 128.278 154.102 126.701C154.302 128.278 154.37 129.872 154.305 131.462C154.37 133.05 154.302 134.641 154.102 136.216Z" fill="#4F4F4F"/>
<path d="M151.433 136.216C151.228 134.642 151.161 133.05 151.23 131.462C151.161 129.872 151.228 128.278 151.433 126.701C151.633 128.278 151.7 129.872 151.635 131.462C151.7 133.05 151.632 134.641 151.433 136.216Z" fill="#4F4F4F"/>
<path d="M159.963 136.216C159.759 134.642 159.691 133.05 159.76 131.462C159.691 129.872 159.759 128.278 159.963 126.701C160.163 128.278 160.231 129.872 160.165 131.462C160.23 133.05 160.163 134.641 159.963 136.216Z" fill="#4F4F4F"/>
<path d="M157.293 136.216C157.093 134.641 157.025 133.05 157.09 131.462C157.025 129.872 157.093 128.278 157.293 126.701C157.497 128.278 157.565 129.872 157.496 131.462C157.565 133.05 157.497 134.642 157.293 136.216Z" fill="#4F4F4F"/>
<path d="M162.937 126.56C162.937 126.677 151.931 126.779 138.336 126.779C124.741 126.779 113.801 126.677 113.801 126.56C113.801 126.442 124.799 126.341 138.365 126.341C151.931 126.341 162.937 126.435 162.937 126.56Z" fill="#4F4F4F"/>
<path d="M159.109 136.075H110.321V145.669H159.109V136.075Z" fill="#E0A4E3"/>
<path d="M115.103 145.731C114.894 144.155 114.824 142.561 114.894 140.97C114.824 139.382 114.895 137.79 115.103 136.216C115.303 137.791 115.371 139.382 115.306 140.97C115.371 142.56 115.303 144.154 115.103 145.731Z" fill="#4F4F4F"/>
<path d="M112.434 145.731C112.23 144.154 112.162 142.56 112.231 140.97C112.162 139.382 112.23 137.79 112.434 136.216C112.634 137.791 112.702 139.382 112.637 140.97C112.702 142.56 112.634 144.154 112.434 145.731Z" fill="#4F4F4F"/>
<path d="M120.964 145.731C120.767 144.154 120.706 142.56 120.783 140.97C120.714 139.382 120.782 137.79 120.986 136.216C121.186 137.791 121.253 139.382 121.188 140.97C121.246 142.561 121.171 144.155 120.964 145.731Z" fill="#4F4F4F"/>
<path d="M118.294 145.731C118.09 144.154 118.022 142.56 118.092 140.97C118.022 139.382 118.09 137.79 118.294 136.216C118.494 137.791 118.562 139.382 118.497 140.97C118.562 142.56 118.494 144.154 118.294 145.731Z" fill="#4F4F4F"/>
<path d="M126.825 145.731C126.625 144.154 126.557 142.56 126.623 140.97C126.558 139.382 126.625 137.791 126.825 136.216C127.029 137.79 127.097 139.382 127.028 140.97C127.097 142.56 127.029 144.154 126.825 145.731Z" fill="#4F4F4F"/>
<path d="M124.155 145.731C123.955 144.154 123.887 142.56 123.952 140.97C123.887 139.382 123.955 137.791 124.155 136.216C124.359 137.79 124.427 139.382 124.357 140.97C124.427 142.56 124.359 144.154 124.155 145.731Z" fill="#4F4F4F"/>
<path d="M132.686 145.731C132.486 144.154 132.418 142.56 132.483 140.97C132.418 139.382 132.486 137.791 132.686 136.216C132.89 137.79 132.957 139.382 132.888 140.97C132.958 142.56 132.89 144.154 132.686 145.731Z" fill="#4F4F4F"/>
<path d="M130.016 145.731C129.816 144.154 129.748 142.56 129.813 140.97C129.748 139.382 129.816 137.791 130.016 136.216C130.225 137.79 130.295 139.382 130.225 140.97C130.295 142.561 130.225 144.155 130.016 145.731Z" fill="#4F4F4F"/>
<path d="M138.553 145.731C138.349 144.154 138.281 142.56 138.351 140.97C138.281 139.382 138.349 137.79 138.553 136.216C138.753 137.791 138.821 139.382 138.756 140.97C138.821 142.56 138.753 144.154 138.553 145.731Z" fill="#4F4F4F"/>
<path d="M135.884 145.731C135.68 144.154 135.612 142.56 135.681 140.97C135.612 139.382 135.68 137.79 135.884 136.216C136.084 137.791 136.151 139.382 136.086 140.97C136.152 142.56 136.084 144.154 135.884 145.731Z" fill="#4F4F4F"/>
<path d="M144.414 145.731C144.21 144.154 144.142 142.56 144.211 140.97C144.142 139.382 144.21 137.79 144.414 136.216C144.614 137.791 144.682 139.382 144.617 140.97C144.682 142.56 144.614 144.154 144.414 145.731Z" fill="#4F4F4F"/>
<path d="M141.766 145.731C141.566 144.154 141.498 142.56 141.564 140.97C141.499 139.382 141.566 137.791 141.766 136.216C141.97 137.79 142.038 139.382 141.969 140.97C142.038 142.56 141.97 144.154 141.766 145.731Z" fill="#4F4F4F"/>
<path d="M150.275 145.731C150.075 144.154 150.007 142.56 150.072 140.97C150.007 139.382 150.075 137.791 150.275 136.216C150.469 137.791 150.527 139.383 150.449 140.97C150.528 142.559 150.47 144.153 150.275 145.731Z" fill="#4F4F4F"/>
<path d="M147.605 145.731C147.405 144.154 147.337 142.56 147.402 140.97C147.337 139.382 147.405 137.791 147.605 136.216C147.809 137.79 147.877 139.382 147.808 140.97C147.877 142.56 147.809 144.154 147.605 145.731Z" fill="#4F4F4F"/>
<path d="M156.136 145.731C155.936 144.154 155.868 142.56 155.933 140.97C155.868 139.382 155.936 137.791 156.136 136.216C156.34 137.79 156.408 139.382 156.338 140.97C156.408 142.56 156.34 144.154 156.136 145.731Z" fill="#4F4F4F"/>
<path d="M153.473 145.731C153.264 144.155 153.194 142.561 153.263 140.97C153.194 139.382 153.264 137.79 153.473 136.216C153.673 137.791 153.741 139.382 153.676 140.97C153.741 142.56 153.673 144.154 153.473 145.731Z" fill="#4F4F4F"/>
<path d="M159.132 136.075C159.132 136.193 148.155 136.294 134.625 136.294C121.095 136.294 110.09 136.193 110.09 136.075C110.09 135.958 121.066 135.856 134.603 135.856C148.141 135.856 159.132 135.918 159.132 136.075Z" fill="#4F4F4F"/>
<path d="M164.001 145.802H115.212V155.395H164.001V145.802Z" fill="#E0A4E3"/>
<path d="M119.987 155.497C119.788 153.923 119.72 152.331 119.785 150.744C119.72 149.153 119.787 147.559 119.987 145.982C120.192 147.559 120.259 149.153 120.19 150.744C120.259 152.331 120.191 153.923 119.987 155.497Z" fill="#4F4F4F"/>
<path d="M117.325 155.497C117.116 153.923 117.045 152.332 117.115 150.744C117.045 149.153 117.116 147.558 117.325 145.982C117.525 147.559 117.592 149.153 117.527 150.744C117.592 152.331 117.524 153.923 117.325 155.497Z" fill="#4F4F4F"/>
<path d="M125.848 155.497C125.644 153.923 125.577 152.331 125.646 150.744C125.574 149.14 125.642 147.533 125.848 145.943C126.048 147.52 126.116 149.114 126.051 150.704C126.118 152.305 126.05 153.91 125.848 155.497Z" fill="#4F4F4F"/>
<path d="M123.185 155.497C122.969 153.911 122.892 152.306 122.954 150.704C122.884 149.114 122.952 147.52 123.156 145.943C123.356 147.52 123.424 149.114 123.359 150.704C123.436 152.304 123.378 153.909 123.185 155.497Z" fill="#4F4F4F"/>
<path d="M131.716 155.497C131.512 153.923 131.444 152.331 131.513 150.744C131.444 149.153 131.512 147.559 131.716 145.982C131.916 147.559 131.984 149.153 131.918 150.744C131.983 152.331 131.916 153.923 131.716 155.497Z" fill="#4F4F4F"/>
<path d="M129.046 155.497C128.847 153.923 128.779 152.331 128.844 150.744C128.779 149.153 128.846 147.559 129.046 145.982C129.251 147.559 129.318 149.153 129.249 150.744C129.318 152.331 129.251 153.923 129.046 155.497Z" fill="#4F4F4F"/>
<path d="M137.577 155.497C137.377 153.923 137.31 152.331 137.375 150.744C137.309 149.153 137.377 147.559 137.577 145.982C137.781 147.559 137.849 149.153 137.78 150.744C137.849 152.331 137.781 153.923 137.577 155.497Z" fill="#4F4F4F"/>
<path d="M134.907 155.497C134.707 153.923 134.639 152.331 134.704 150.744C134.639 149.153 134.707 147.559 134.907 145.982C135.111 147.559 135.179 149.153 135.109 150.744C135.179 152.331 135.111 153.923 134.907 155.497Z" fill="#4F4F4F"/>
<path d="M143.438 155.497C143.228 153.91 143.153 152.306 143.213 150.704C143.148 149.114 143.216 147.52 143.416 145.943C143.62 147.52 143.688 149.114 143.619 150.704C143.697 152.305 143.637 153.909 143.438 155.497Z" fill="#4F4F4F"/>
<path d="M140.774 155.497C140.565 153.923 140.495 152.332 140.564 150.744C140.495 149.153 140.565 147.558 140.774 145.982C140.974 147.559 141.042 149.153 140.977 150.744C141.042 152.331 140.974 153.923 140.774 155.497Z" fill="#4F4F4F"/>
<path d="M149.305 155.497C149.101 153.923 149.033 152.331 149.103 150.744C149.033 149.153 149.101 147.559 149.305 145.982C149.505 147.559 149.573 149.153 149.508 150.744C149.573 152.331 149.505 153.923 149.305 155.497Z" fill="#4F4F4F"/>
<path d="M146.636 155.497C146.432 153.923 146.364 152.331 146.433 150.744C146.364 149.153 146.431 147.559 146.636 145.982C146.831 147.547 146.896 149.127 146.831 150.704C146.901 152.305 146.835 153.909 146.636 155.497Z" fill="#4F4F4F"/>
<path d="M155.166 155.497C154.962 153.923 154.894 152.331 154.963 150.744C154.894 149.153 154.962 147.559 155.166 145.982C155.366 147.559 155.434 149.153 155.369 150.744C155.434 152.331 155.366 153.923 155.166 155.497Z" fill="#4F4F4F"/>
<path d="M152.496 155.497C152.296 153.923 152.228 152.331 152.294 150.744C152.228 149.153 152.296 147.559 152.496 145.982C152.7 147.559 152.768 149.153 152.699 150.744C152.768 152.331 152.7 153.923 152.496 155.497Z" fill="#4F4F4F"/>
<path d="M161.027 155.497C160.827 153.923 160.759 152.331 160.824 150.744C160.759 149.153 160.827 147.559 161.027 145.982C161.231 147.559 161.299 149.153 161.229 150.744C161.299 152.331 161.231 153.923 161.027 155.497Z" fill="#4F4F4F"/>
<path d="M158.357 155.497C158.157 153.923 158.089 152.331 158.154 150.744C158.089 149.153 158.157 147.559 158.357 145.982C158.561 147.559 158.629 149.153 158.56 150.744C158.629 152.331 158.561 153.923 158.357 155.497Z" fill="#4F4F4F"/>
<path d="M164 145.802C164 145.919 153.024 146.021 139.494 146.021C125.964 146.021 114.995 145.919 114.995 145.802C114.995 145.684 125.971 145.583 139.508 145.583C153.046 145.583 164 145.677 164 145.802Z" fill="#4F4F4F"/>
<g opacity="0.3">
<path opacity="0.3" d="M114.141 126.56C121.534 128.39 129.141 128.989 136.701 128.338C144.19 127.797 151.751 126.607 159.254 126.701L114.141 126.56Z" fill="#4F4F4F"/>
</g>
<g opacity="0.3">
<path opacity="0.3" d="M114.583 117.013C121.968 118.841 129.568 119.441 137.121 118.791C144.61 118.251 152.171 117.06 159.674 117.154L114.583 117.013Z" fill="#4F4F4F"/>
</g>
<g opacity="0.3">
<path opacity="0.3" d="M116.948 136.169C124.334 137.997 131.934 138.597 139.487 137.947C146.975 137.406 154.529 136.216 162.025 136.31L116.948 136.169Z" fill="#4F4F4F"/>
</g>
<g opacity="0.3">
<path opacity="0.3" d="M115.031 145.747C122.417 147.572 130.017 148.169 137.569 147.517C145.058 146.977 152.619 145.786 160.122 145.888L115.031 145.747Z" fill="#4F4F4F"/>
</g>
<path d="M114.272 113.724C114.063 112.866 113.985 111.978 114.04 111.093C113.989 110.223 114.067 109.351 114.272 108.508C114.46 109.353 114.519 110.227 114.445 111.093C114.523 111.974 114.465 112.864 114.272 113.724Z" fill="white"/>
<path d="M111.168 123.968C110.969 123.044 110.901 122.094 110.965 121.148C110.901 120.203 110.969 119.252 111.168 118.329C111.373 119.251 111.443 120.202 111.378 121.148C111.444 122.094 111.373 123.045 111.168 123.968Z" fill="white"/>
<path d="M115.545 133.827C115.346 133.016 115.278 132.174 115.342 131.337C115.281 130.508 115.349 129.674 115.545 128.87C115.735 129.675 115.793 130.51 115.718 131.337C115.796 132.172 115.738 133.015 115.545 133.827Z" fill="white"/>
<path d="M111.052 142.967C110.85 142.239 110.781 141.476 110.849 140.719C110.781 139.965 110.85 139.205 111.052 138.479C111.249 139.205 111.318 139.965 111.255 140.719C111.319 141.476 111.25 142.238 111.052 142.967Z" fill="white"/>
<path d="M128.916 117.695C128.916 117.812 125.298 117.914 120.87 117.914C116.442 117.914 112.824 117.812 112.824 117.695C115.501 117.473 118.186 117.4 120.87 117.475C123.554 117.4 126.239 117.473 128.916 117.695Z" fill="white"/>
<path d="M134.126 108.508C131.43 108.73 128.725 108.803 126.022 108.728C123.31 108.804 120.595 108.731 117.89 108.508C117.89 108.391 121.507 108.289 126.001 108.289C130.494 108.289 134.126 108.352 134.126 108.508Z" fill="white"/>
<path d="M141.94 108.594C141.068 108.818 140.17 108.895 139.277 108.821C138.384 108.896 137.485 108.82 136.614 108.594C137.487 108.379 138.384 108.305 139.277 108.375C140.17 108.306 141.067 108.379 141.94 108.594Z" fill="white"/>
</g>
<defs>
<clipPath id="clip0">
<rect width="109.93" height="87.0187" fill="white"/>
</clipPath>
<clipPath id="clip1">
<rect width="54.0703" height="48.5161" fill="white" transform="translate(109.93 106.942)"/>
</clipPath>
</defs>
</svg>
