<svg width="56" height="56" viewBox="0 0 56 56" fill="none" xmlns="http://www.w3.org/2000/svg">
<path d="M23.3472 6.65833C24.5306 1.78056 31.4694 1.78056 32.6528 6.65833C32.8303 7.39111 33.1784 8.07161 33.6686 8.64444C34.1589 9.21728 34.7775 9.66626 35.474 9.95485C36.1706 10.2434 36.9255 10.3635 37.6772 10.3052C38.4289 10.2469 39.1562 10.012 39.8 9.61944C44.0861 7.00833 48.9944 11.9139 46.3833 16.2028C45.9914 16.8463 45.7568 17.5732 45.6987 18.3244C45.6405 19.0756 45.7604 19.8299 46.0487 20.5261C46.3369 21.2222 46.7854 21.8405 47.3576 22.3307C47.9298 22.8209 48.6095 23.1692 49.3417 23.3472C54.2194 24.5306 54.2194 31.4694 49.3417 32.6528C48.6089 32.8303 47.9284 33.1784 47.3556 33.6686C46.7827 34.1589 46.3337 34.7775 46.0451 35.474C45.7566 36.1706 45.6365 36.9255 45.6948 37.6772C45.7531 38.4289 45.988 39.1562 46.3806 39.8C48.9917 44.0861 44.0861 48.9944 39.7972 46.3833C39.1537 45.9914 38.4268 45.7568 37.6756 45.6987C36.9244 45.6405 36.1701 45.7604 35.4739 46.0487C34.7778 46.3369 34.1595 46.7854 33.6693 47.3576C33.1791 47.9298 32.8308 48.6095 32.6528 49.3417C31.4694 54.2194 24.5306 54.2194 23.3472 49.3417C23.1697 48.6089 22.8216 47.9284 22.3314 47.3556C21.8411 46.7827 21.2225 46.3337 20.526 46.0451C19.8294 45.7566 19.0745 45.6365 18.3228 45.6948C17.5711 45.7531 16.8438 45.988 16.2 46.3806C11.9139 48.9917 7.00556 44.0861 9.61667 39.7972C10.0086 39.1537 10.2432 38.4268 10.3013 37.6756C10.3595 36.9244 10.2396 36.1701 9.95131 35.4739C9.66306 34.7778 9.21461 34.1595 8.64242 33.6693C8.07024 33.1791 7.39046 32.8308 6.65833 32.6528C1.78056 31.4694 1.78056 24.5306 6.65833 23.3472C7.39111 23.1697 8.07161 22.8216 8.64444 22.3314C9.21728 21.8411 9.66626 21.2225 9.95485 20.526C10.2434 19.8294 10.3635 19.0745 10.3052 18.3228C10.2469 17.5711 10.012 16.8438 9.61944 16.2C7.00833 11.9139 11.9139 7.00556 16.2028 9.61667C18.9694 11.3056 22.5806 9.81111 23.3472 6.65833Z" stroke="black" stroke-width="5" stroke-linecap="round" stroke-linejoin="round"/>
<path d="M36.3334 28C36.3334 30.2101 35.4554 32.3297 33.8926 33.8925C32.3298 35.4553 30.2102 36.3333 28.0001 36.3333C25.7899 36.3333 23.6703 35.4553 22.1075 33.8925C20.5447 32.3297 19.6667 30.2101 19.6667 28C19.6667 25.7898 20.5447 23.6702 22.1075 22.1074C23.6703 20.5446 25.7899 19.6666 28.0001 19.6666C30.2102 19.6666 32.3298 20.5446 33.8926 22.1074C35.4554 23.6702 36.3334 25.7898 36.3334 28V28Z" stroke="black" stroke-width="5" stroke-linecap="round" stroke-linejoin="round"/>
</svg>

