<svg width="63" height="63" viewBox="0 0 63 63" fill="none" xmlns="http://www.w3.org/2000/svg">
<path d="M28.4433 12.8063V53.6232C28.4424 54.8897 27.9946 56.1152 27.1788 57.0838C26.3629 58.0525 25.2314 58.7021 23.9835 58.9183C22.7356 59.1345 21.4515 58.9034 20.3573 58.2657C19.2632 57.6279 18.4292 56.6245 18.0023 55.4321L11.4419 36.6401M49.8327 34.5562C52.2639 34.5562 54.5955 33.5904 56.3146 31.8713C58.0337 30.1521 58.9995 27.8205 58.9995 25.3893C58.9995 22.9581 58.0337 20.6265 56.3146 18.9074C54.5955 17.1883 52.2639 16.2225 49.8327 16.2225V34.5562ZM11.4419 36.6432C8.84834 35.5404 6.71542 33.5755 5.40408 31.0809C4.09275 28.5863 3.68354 25.7153 4.24572 22.9537C4.80789 20.1921 6.30691 17.7095 8.4891 15.9261C10.6713 14.1427 13.4026 13.1679 16.2209 13.1669H21.8188C34.3468 13.1669 45.1178 9.39622 49.8327 4V46.7786C45.1178 41.3824 34.3498 37.6118 21.8188 37.6118H16.2209C14.5789 37.6142 12.9534 37.2847 11.4419 36.6432Z" stroke="black" stroke-width="6.11123" stroke-linecap="round" stroke-linejoin="round"/>
</svg>
