<svg width="75" height="75" viewBox="0 0 75 75" fill="none" xmlns="http://www.w3.org/2000/svg">
<path d="M17.7782 17.7782H17.8176H17.7782ZM17.7782 2H37.5008C39.5204 2 41.54 2.76918 43.0784 4.3115L70.6902 31.9233C72.1692 33.4027 73 35.4089 73 37.5008C73 39.5927 72.1692 41.599 70.6902 43.0784L43.0784 70.6902C41.599 72.1692 39.5927 73 37.5008 73C35.4089 73 33.4027 72.1692 31.9233 70.6902L4.3115 43.0784C3.57783 42.3468 2.99595 41.4774 2.59927 40.5203C2.20259 39.5631 1.99893 38.537 2 37.5008V17.7782C2 13.5935 3.66234 9.58029 6.62132 6.62131C9.58029 3.66234 13.5935 2 17.7782 2V2Z" stroke="black" stroke-width="3" stroke-linecap="round" stroke-linejoin="round"/>
</svg>

