<svg width="56" height="56" viewBox="0 0 56 56" fill="none" xmlns="http://www.w3.org/2000/svg">
<path d="M33.9616 22.4444H47.3708C48.3302 22.4445 49.2737 22.6865 50.1117 23.1476C50.9498 23.6086 51.6545 24.2734 52.1589 25.0788C52.6634 25.8842 52.951 26.8034 52.9943 27.7493C53.0376 28.6952 52.8352 29.6363 52.4063 30.4833L42.5549 49.9278C42.0872 50.8513 41.3681 51.6279 40.4782 52.1706C39.5882 52.7133 38.5627 53.0005 37.5166 53H26.2099C25.7512 53 25.2924 52.9444 24.8448 52.8333L14.2588 50.2222M33.9616 22.4444V8.55556C33.9616 7.08213 33.3685 5.66905 32.3128 4.62718C31.2571 3.58532 29.8252 3 28.3322 3H28.0648C26.6575 3 25.5175 4.125 25.5175 5.51389C25.5175 7.49722 24.9236 9.43611 23.8062 11.0861L14.2588 25.2222V50.2222M33.9616 22.4444H28.3322M14.2588 50.2222H8.62938C7.13638 50.2222 5.70452 49.6369 4.64881 48.595C3.59309 47.5532 3 46.1401 3 44.6667V28C3 26.5266 3.59309 25.1135 4.64881 24.0716C5.70452 23.0298 7.13638 22.4444 8.62938 22.4444H15.6661" stroke="black" stroke-width="5" stroke-linecap="round" stroke-linejoin="round"/>
</svg>
