<svg width="56" height="56" viewBox="0 0 56 56" fill="none" xmlns="http://www.w3.org/2000/svg">
<path d="M22.0384 33.5556L8.6292 33.5556C7.66976 33.5555 6.72626 33.3135 5.88825 32.8524C5.05024 32.3914 4.34554 31.7266 3.84105 30.9212C3.33656 30.1158 3.04902 29.1966 3.00573 28.2507C2.96245 27.3048 3.16485 26.3637 3.59372 25.5167L13.4451 6.07223C13.9128 5.14871 14.6319 4.37205 15.5218 3.82939C16.4118 3.28673 17.4373 2.99952 18.4834 3L29.7901 3C30.2488 3 30.7076 3.05556 31.1552 3.16667L41.7412 5.77778M22.0384 33.5556L22.0384 47.4444C22.0384 48.9179 22.6315 50.3309 23.6872 51.3728C24.7429 52.4147 26.1748 53 27.6678 53H27.9352C29.3425 53 30.4825 51.875 30.4825 50.4861C30.4825 48.5028 31.0764 46.5639 32.1938 44.9139L41.7412 30.7778L41.7412 5.77778M22.0384 33.5556H27.6678M41.7412 5.77778H47.3706C48.8636 5.77778 50.2955 6.3631 51.3512 7.40497C52.4069 8.44684 53 9.85991 53 11.3333L53 28C53 29.4734 52.4069 30.8865 51.3512 31.9284C50.2955 32.9702 48.8636 33.5556 47.3706 33.5556H40.3339" stroke="black" stroke-width="5" stroke-linecap="round" stroke-linejoin="round"/>
</svg>
