<svg width="64" height="63" viewBox="0 0 64 63" fill="none" xmlns="http://www.w3.org/2000/svg">
<circle cx="32" cy="31.0526" r="31.0526" fill="#41CE88"/>
<path d="M16.0609 49.6622L17.0918 44.0953C13.9991 40.5902 12.9682 37.4974 12.3496 33.1676C11.7311 28.8378 13.5867 18.5286 22.0402 13.9926C30.4937 9.45662 40.0295 10.7369 46.1635 16.673C52.5552 22.8585 52.9676 29.8687 52.5552 34.1985C52.1428 38.5283 47.1945 49.6622 37.2977 51.1055C29.3803 52.2601 23.1398 49.6622 21.0093 48.2189L16.0609 49.6622Z" stroke="white" stroke-width="1.24211"/>
<path d="M28.2255 25.5389L25.7513 19.9719C25.1327 19.3534 24.1018 19.5596 23.0709 19.7658C22.04 19.9719 19.5658 23.0647 19.5658 25.1265C19.5658 27.1883 20.8029 31.1058 25.5451 36.2603C30.2873 41.4149 36.6789 43.2705 39.3593 43.2705C42.0397 43.2705 43.483 41.8273 44.3077 40.5902C45.1324 39.3531 45.5448 38.3222 45.3386 37.7036C45.1324 37.0851 39.9779 34.6109 39.1531 34.1985C38.3284 33.7862 36.0604 37.2913 35.648 37.4974C35.2357 37.7036 34.2047 37.4974 32.3491 36.2603C30.4935 35.0232 27.4007 31.7243 26.7822 30.8996C26.1636 30.0749 25.5451 29.6625 26.9884 28.013C28.143 26.6935 28.2942 25.8138 28.2255 25.5389Z" fill="white"/>
</svg>

